M48
;GenerationSoftware,Autodesk,EAGLE,9.6.2*%
;CreationDate,2022-05-04T14:27:06Z*%
FMAT,2
ICI,OFF
METRIC,TZ,000.000
T7C0.350
T6C0.700
T5C0.813
T4C0.914
T3C1.016
T2C1.118
T1C3.200
%
G90
M71
T1
X17780Y16510
X17780Y93980
T2
X12700Y41275
X2540Y41275
X22860Y41275
X33020Y41275
T3
X19050Y80010
X16510Y80010
X19050Y82550
X16510Y82550
X19050Y85090
X16510Y85090
X19050Y87630
X16510Y87630
T4
X12700Y4445
X12700Y6985
X15240Y4445
X15240Y6985
X17780Y4445
X17780Y6985
X20320Y4445
X20320Y6985
X22860Y4445
X22860Y6985
T5
X10160Y22860
X5080Y22860
X26670Y38100
X31750Y38100
X8890Y38100
X3810Y38100
X25400Y35560
X33020Y35560
X2540Y35560
X10160Y35560
X25400Y73025
X33020Y73025
X25400Y70485
X33020Y70485
X26670Y65405
X31750Y65405
X33020Y67945
X25400Y67945
X2540Y70485
X10160Y70485
X5080Y78740
X10160Y78740
X10160Y73025
X2540Y73025
X10160Y75565
X2540Y75565
X21590Y44450
X21590Y46990
X21590Y59690
X13970Y59690
X21590Y49530
X21590Y52070
X21590Y57150
X21590Y54610
X13970Y57150
X13970Y54610
X13970Y52070
X13970Y49530
X13970Y46990
X13970Y44450
X25400Y46990
X33020Y46990
X26670Y44450
X31750Y44450
X33020Y54610
X25400Y54610
X3810Y6985
X33020Y57150
X26670Y62230
X31750Y62230
X25400Y59690
X33020Y59690
X33020Y33020
X25400Y33020
X3810Y4445
X31750Y4445
X10160Y57150
X2540Y57150
X8890Y54610
X3810Y54610
X3810Y46990
X8890Y46990
X2540Y44450
X10160Y44450
X10160Y59690
X2540Y59690
X2540Y62230
X10160Y62230
X2540Y33020
X10160Y33020
X31750Y6985
X25400Y57150
X26670Y75565
X31750Y75565
X8890Y52070
X3810Y52070
X8890Y67945
X3810Y67945
X26670Y52070
X31750Y52070
X13970Y22860
X13970Y25400
X13970Y27940
X13970Y30480
X13970Y33020
X13970Y35560
X13970Y38100
X21590Y38100
X21590Y22860
X21590Y25400
X21590Y27940
X21590Y30480
X21590Y33020
X21590Y35560
T6
X21590Y67945
X21590Y70485
X21590Y73025
X21590Y75565
X13970Y75565
X13970Y73025
X13970Y70485
X13970Y67945
T7
X3810Y82550
X5080Y70485
X30480Y60960
X27940Y85090
X29210Y70485
X29210Y80010
X10160Y41275
X6350Y85090
X29210Y35560
X30480Y82550
X16510Y49530
X16510Y58420
X16510Y62230
X19050Y54610
M30