G04 EAGLE Gerber RS-274X export*
G75*
%MOMM*%
%FSLAX34Y34*%
%LPD*%
%INTop Copper*%
%IPPOS*%
%AMOC8*
5,1,8,0,0,1.08239X$1,22.5*%
G01*
%ADD10C,1.208000*%
%ADD11P,1.429621X8X202.500000*%
%ADD12P,1.429621X8X22.500000*%
%ADD13C,1.320800*%
%ADD14C,1.676400*%
%ADD15P,1.649562X8X292.500000*%
%ADD16P,1.539592X8X202.500000*%
%ADD17P,1.732040X8X112.500000*%
%ADD18C,1.600200*%
%ADD19P,1.732040X8X292.500000*%
%ADD20C,0.609600*%
%ADD21C,0.756400*%
%ADD22C,0.406400*%

G36*
X343426Y10163D02*
X343426Y10163D01*
X343444Y10161D01*
X343626Y10182D01*
X343809Y10201D01*
X343826Y10206D01*
X343843Y10208D01*
X344018Y10265D01*
X344194Y10319D01*
X344209Y10327D01*
X344226Y10333D01*
X344386Y10423D01*
X344548Y10511D01*
X344561Y10522D01*
X344577Y10531D01*
X344716Y10651D01*
X344857Y10768D01*
X344868Y10782D01*
X344882Y10794D01*
X344994Y10939D01*
X345109Y11082D01*
X345117Y11098D01*
X345128Y11112D01*
X345210Y11277D01*
X345295Y11439D01*
X345300Y11456D01*
X345308Y11472D01*
X345355Y11651D01*
X345406Y11826D01*
X345408Y11844D01*
X345412Y11861D01*
X345439Y12192D01*
X345439Y978405D01*
X345437Y978423D01*
X345439Y978441D01*
X345417Y978623D01*
X345399Y978805D01*
X345394Y978823D01*
X345392Y978841D01*
X345335Y979014D01*
X345281Y979190D01*
X345273Y979206D01*
X345267Y979223D01*
X345177Y979383D01*
X345089Y979544D01*
X345078Y979558D01*
X345069Y979574D01*
X344949Y979712D01*
X344832Y979853D01*
X344818Y979865D01*
X344806Y979879D01*
X344661Y979991D01*
X344518Y980106D01*
X344502Y980114D01*
X344488Y980125D01*
X344323Y980207D01*
X344161Y980291D01*
X344143Y980296D01*
X344127Y980304D01*
X343950Y980352D01*
X343774Y980403D01*
X343756Y980404D01*
X343738Y980409D01*
X343407Y980436D01*
X12191Y980343D01*
X12174Y980341D01*
X12156Y980342D01*
X11974Y980321D01*
X11791Y980303D01*
X11774Y980298D01*
X11757Y980295D01*
X11582Y980239D01*
X11406Y980184D01*
X11390Y980176D01*
X11374Y980171D01*
X11214Y980080D01*
X11052Y979993D01*
X11038Y979981D01*
X11023Y979973D01*
X10884Y979852D01*
X10743Y979735D01*
X10732Y979721D01*
X10718Y979710D01*
X10606Y979564D01*
X10491Y979421D01*
X10482Y979405D01*
X10472Y979391D01*
X10390Y979226D01*
X10305Y979064D01*
X10300Y979047D01*
X10292Y979031D01*
X10244Y978852D01*
X10194Y978677D01*
X10192Y978659D01*
X10188Y978642D01*
X10161Y978311D01*
X10161Y12192D01*
X10163Y12174D01*
X10161Y12156D01*
X10182Y11974D01*
X10201Y11791D01*
X10206Y11774D01*
X10208Y11757D01*
X10265Y11582D01*
X10319Y11406D01*
X10327Y11391D01*
X10333Y11374D01*
X10423Y11214D01*
X10511Y11052D01*
X10522Y11039D01*
X10531Y11023D01*
X10651Y10884D01*
X10768Y10743D01*
X10782Y10732D01*
X10794Y10718D01*
X10939Y10606D01*
X11082Y10491D01*
X11098Y10483D01*
X11112Y10472D01*
X11277Y10390D01*
X11439Y10305D01*
X11456Y10300D01*
X11472Y10292D01*
X11651Y10245D01*
X11826Y10194D01*
X11844Y10192D01*
X11861Y10188D01*
X12192Y10161D01*
X343408Y10161D01*
X343426Y10163D01*
G37*
%LPC*%
G36*
X225023Y35813D02*
X225023Y35813D01*
X219963Y40873D01*
X219963Y48027D01*
X223432Y51496D01*
X223449Y51517D01*
X223470Y51535D01*
X223577Y51673D01*
X223687Y51808D01*
X223700Y51832D01*
X223716Y51853D01*
X223794Y52009D01*
X223876Y52164D01*
X223884Y52189D01*
X223896Y52213D01*
X223941Y52383D01*
X223991Y52550D01*
X223993Y52576D01*
X224000Y52602D01*
X224027Y52933D01*
X224027Y61367D01*
X224025Y61394D01*
X224027Y61421D01*
X224005Y61594D01*
X223987Y61768D01*
X223980Y61793D01*
X223976Y61820D01*
X223920Y61986D01*
X223869Y62153D01*
X223856Y62176D01*
X223848Y62202D01*
X223761Y62353D01*
X223677Y62507D01*
X223660Y62527D01*
X223647Y62551D01*
X223432Y62804D01*
X219963Y66273D01*
X219963Y73427D01*
X223432Y76896D01*
X223449Y76917D01*
X223470Y76935D01*
X223577Y77073D01*
X223687Y77208D01*
X223700Y77232D01*
X223716Y77253D01*
X223794Y77409D01*
X223876Y77564D01*
X223884Y77589D01*
X223896Y77613D01*
X223941Y77783D01*
X223991Y77950D01*
X223993Y77976D01*
X224000Y78002D01*
X224027Y78333D01*
X224027Y175065D01*
X224025Y175091D01*
X224027Y175118D01*
X224005Y175292D01*
X223987Y175465D01*
X223980Y175491D01*
X223976Y175517D01*
X223921Y175683D01*
X223869Y175850D01*
X223856Y175874D01*
X223848Y175899D01*
X223761Y176051D01*
X223677Y176204D01*
X223660Y176225D01*
X223647Y176248D01*
X223432Y176501D01*
X186623Y213310D01*
X185927Y214990D01*
X185927Y542868D01*
X185924Y542899D01*
X185926Y542931D01*
X185904Y543100D01*
X185887Y543269D01*
X185878Y543299D01*
X185874Y543330D01*
X185773Y543646D01*
X185193Y545044D01*
X185193Y547156D01*
X185773Y548554D01*
X185782Y548584D01*
X185796Y548612D01*
X185840Y548777D01*
X185889Y548940D01*
X185892Y548971D01*
X185900Y549001D01*
X185927Y549332D01*
X185927Y743860D01*
X186623Y745540D01*
X200610Y759527D01*
X202290Y760223D01*
X202893Y760223D01*
X202920Y760225D01*
X202947Y760223D01*
X203121Y760245D01*
X203294Y760263D01*
X203319Y760270D01*
X203346Y760274D01*
X203512Y760330D01*
X203679Y760381D01*
X203702Y760394D01*
X203728Y760402D01*
X203879Y760489D01*
X204033Y760573D01*
X204053Y760590D01*
X204077Y760603D01*
X204330Y760818D01*
X205575Y762063D01*
X208355Y763215D01*
X223445Y763215D01*
X226225Y762063D01*
X227470Y760818D01*
X227491Y760801D01*
X227509Y760780D01*
X227647Y760673D01*
X227782Y760563D01*
X227806Y760550D01*
X227827Y760534D01*
X227983Y760456D01*
X228138Y760374D01*
X228163Y760366D01*
X228187Y760354D01*
X228356Y760309D01*
X228524Y760259D01*
X228550Y760257D01*
X228576Y760250D01*
X228907Y760223D01*
X258936Y760223D01*
X258962Y760225D01*
X258989Y760223D01*
X259163Y760245D01*
X259336Y760263D01*
X259362Y760270D01*
X259388Y760274D01*
X259554Y760329D01*
X259721Y760381D01*
X259745Y760394D01*
X259770Y760402D01*
X259922Y760489D01*
X260075Y760573D01*
X260096Y760590D01*
X260119Y760603D01*
X260372Y760818D01*
X263333Y763779D01*
X270067Y763779D01*
X272376Y761470D01*
X272383Y761464D01*
X272388Y761458D01*
X272538Y761337D01*
X272687Y761215D01*
X272695Y761211D01*
X272702Y761205D01*
X272872Y761117D01*
X273043Y761026D01*
X273052Y761024D01*
X273059Y761020D01*
X273244Y760967D01*
X273429Y760912D01*
X273438Y760911D01*
X273446Y760908D01*
X273637Y760893D01*
X273830Y760875D01*
X273839Y760876D01*
X273848Y760875D01*
X274037Y760898D01*
X274230Y760919D01*
X274239Y760921D01*
X274247Y760922D01*
X274429Y760982D01*
X274614Y761040D01*
X274622Y761044D01*
X274630Y761047D01*
X274799Y761142D01*
X274966Y761235D01*
X274973Y761241D01*
X274981Y761245D01*
X275127Y761371D01*
X275273Y761495D01*
X275279Y761502D01*
X275286Y761508D01*
X275403Y761660D01*
X275523Y761811D01*
X275527Y761819D01*
X275532Y761826D01*
X275618Y761998D01*
X275705Y762170D01*
X275708Y762179D01*
X275712Y762187D01*
X275762Y762373D01*
X275813Y762558D01*
X275814Y762567D01*
X275816Y762576D01*
X275843Y762906D01*
X275843Y846110D01*
X275841Y846137D01*
X275843Y846164D01*
X275821Y846338D01*
X275803Y846511D01*
X275796Y846537D01*
X275792Y846563D01*
X275737Y846729D01*
X275685Y846896D01*
X275672Y846920D01*
X275664Y846945D01*
X275577Y847097D01*
X275493Y847250D01*
X275476Y847271D01*
X275463Y847294D01*
X275248Y847547D01*
X274901Y847894D01*
X274093Y849844D01*
X274093Y851956D01*
X274901Y853906D01*
X276394Y855399D01*
X278344Y856207D01*
X280456Y856207D01*
X282406Y855399D01*
X283899Y853906D01*
X284707Y851956D01*
X284707Y849844D01*
X283899Y847894D01*
X283552Y847547D01*
X283535Y847526D01*
X283514Y847509D01*
X283407Y847371D01*
X283297Y847235D01*
X283284Y847212D01*
X283268Y847191D01*
X283190Y847034D01*
X283108Y846880D01*
X283100Y846854D01*
X283088Y846830D01*
X283043Y846661D01*
X282993Y846494D01*
X282991Y846467D01*
X282984Y846441D01*
X282957Y846110D01*
X282957Y802105D01*
X282957Y802101D01*
X282957Y802096D01*
X282977Y801902D01*
X282997Y801705D01*
X282998Y801700D01*
X282998Y801696D01*
X283057Y801508D01*
X283115Y801320D01*
X283117Y801316D01*
X283118Y801311D01*
X283215Y801134D01*
X283307Y800966D01*
X283309Y800962D01*
X283312Y800958D01*
X283441Y800805D01*
X283564Y800656D01*
X283568Y800654D01*
X283571Y800650D01*
X283725Y800527D01*
X283878Y800404D01*
X283882Y800402D01*
X283885Y800399D01*
X284060Y800310D01*
X284235Y800218D01*
X284240Y800217D01*
X284244Y800215D01*
X284431Y800162D01*
X284622Y800107D01*
X284627Y800107D01*
X284631Y800106D01*
X284824Y800091D01*
X285024Y800074D01*
X285028Y800075D01*
X285032Y800074D01*
X285226Y800098D01*
X285423Y800121D01*
X285428Y800123D01*
X285432Y800123D01*
X285617Y800184D01*
X285806Y800246D01*
X285810Y800248D01*
X285814Y800250D01*
X285983Y800346D01*
X286157Y800444D01*
X286160Y800447D01*
X286164Y800449D01*
X286313Y800579D01*
X286461Y800707D01*
X286464Y800711D01*
X286468Y800713D01*
X286588Y800870D01*
X286708Y801025D01*
X286710Y801029D01*
X286713Y801033D01*
X286865Y801328D01*
X287601Y803106D01*
X289094Y804599D01*
X291044Y805407D01*
X293156Y805407D01*
X295106Y804599D01*
X296599Y803106D01*
X297335Y801328D01*
X297337Y801324D01*
X297339Y801320D01*
X297432Y801147D01*
X297526Y800973D01*
X297528Y800969D01*
X297531Y800966D01*
X297655Y800817D01*
X297782Y800663D01*
X297785Y800660D01*
X297788Y800656D01*
X297941Y800533D01*
X298095Y800409D01*
X298099Y800407D01*
X298102Y800404D01*
X298275Y800314D01*
X298451Y800222D01*
X298455Y800221D01*
X298459Y800218D01*
X298648Y800164D01*
X298838Y800109D01*
X298842Y800108D01*
X298846Y800107D01*
X299044Y800091D01*
X299239Y800074D01*
X299243Y800075D01*
X299248Y800074D01*
X299442Y800097D01*
X299639Y800119D01*
X299643Y800121D01*
X299647Y800121D01*
X299833Y800182D01*
X300022Y800242D01*
X300026Y800245D01*
X300030Y800246D01*
X300203Y800343D01*
X300374Y800439D01*
X300377Y800442D01*
X300381Y800444D01*
X300530Y800572D01*
X300679Y800701D01*
X300682Y800704D01*
X300686Y800707D01*
X300806Y800862D01*
X300928Y801018D01*
X300930Y801022D01*
X300932Y801025D01*
X301021Y801203D01*
X301108Y801377D01*
X301110Y801382D01*
X301112Y801386D01*
X301163Y801578D01*
X301215Y801766D01*
X301215Y801770D01*
X301216Y801774D01*
X301243Y802105D01*
X301243Y820710D01*
X301241Y820737D01*
X301243Y820764D01*
X301221Y820938D01*
X301203Y821111D01*
X301196Y821137D01*
X301192Y821163D01*
X301137Y821329D01*
X301085Y821496D01*
X301072Y821520D01*
X301064Y821545D01*
X300977Y821697D01*
X300893Y821850D01*
X300876Y821871D01*
X300863Y821894D01*
X300648Y822147D01*
X300301Y822494D01*
X299493Y824444D01*
X299493Y826556D01*
X300301Y828506D01*
X301794Y829999D01*
X303744Y830807D01*
X305856Y830807D01*
X307806Y829999D01*
X309299Y828506D01*
X310107Y826556D01*
X310107Y824444D01*
X309299Y822494D01*
X308952Y822147D01*
X308935Y822126D01*
X308914Y822109D01*
X308807Y821971D01*
X308697Y821835D01*
X308684Y821812D01*
X308668Y821791D01*
X308590Y821634D01*
X308508Y821480D01*
X308500Y821454D01*
X308488Y821430D01*
X308443Y821261D01*
X308393Y821094D01*
X308391Y821067D01*
X308384Y821041D01*
X308357Y820710D01*
X308357Y764343D01*
X308358Y764334D01*
X308357Y764325D01*
X308378Y764131D01*
X308397Y763943D01*
X308399Y763934D01*
X308400Y763925D01*
X308458Y763743D01*
X308515Y763558D01*
X308519Y763550D01*
X308522Y763541D01*
X308615Y763373D01*
X308707Y763204D01*
X308712Y763197D01*
X308717Y763189D01*
X308841Y763042D01*
X308964Y762894D01*
X308971Y762889D01*
X308977Y762882D01*
X309128Y762763D01*
X309278Y762642D01*
X309286Y762638D01*
X309293Y762632D01*
X309466Y762545D01*
X309635Y762457D01*
X309644Y762454D01*
X309652Y762450D01*
X309838Y762398D01*
X310022Y762345D01*
X310031Y762344D01*
X310040Y762342D01*
X310233Y762328D01*
X310424Y762312D01*
X310432Y762313D01*
X310441Y762313D01*
X310634Y762337D01*
X310823Y762359D01*
X310832Y762362D01*
X310841Y762363D01*
X311024Y762424D01*
X311206Y762484D01*
X311214Y762488D01*
X311222Y762491D01*
X311388Y762587D01*
X311557Y762682D01*
X311564Y762688D01*
X311571Y762692D01*
X311824Y762907D01*
X313712Y764795D01*
X315469Y764795D01*
X315469Y755650D01*
X315469Y746505D01*
X313712Y746505D01*
X311824Y748393D01*
X311817Y748399D01*
X311812Y748406D01*
X311662Y748526D01*
X311513Y748648D01*
X311505Y748652D01*
X311498Y748658D01*
X311328Y748746D01*
X311157Y748837D01*
X311148Y748839D01*
X311141Y748843D01*
X310956Y748897D01*
X310771Y748952D01*
X310762Y748952D01*
X310754Y748955D01*
X310563Y748971D01*
X310370Y748988D01*
X310361Y748987D01*
X310352Y748988D01*
X310163Y748966D01*
X309970Y748945D01*
X309961Y748942D01*
X309953Y748941D01*
X309771Y748881D01*
X309586Y748823D01*
X309578Y748819D01*
X309570Y748816D01*
X309401Y748721D01*
X309234Y748628D01*
X309227Y748623D01*
X309219Y748618D01*
X309073Y748492D01*
X308927Y748368D01*
X308921Y748361D01*
X308914Y748355D01*
X308797Y748204D01*
X308677Y748052D01*
X308673Y748044D01*
X308668Y748037D01*
X308582Y747865D01*
X308495Y747693D01*
X308492Y747684D01*
X308488Y747676D01*
X308438Y747490D01*
X308387Y747305D01*
X308386Y747296D01*
X308384Y747288D01*
X308357Y746957D01*
X308357Y665277D01*
X296252Y653172D01*
X296235Y653151D01*
X296214Y653133D01*
X296107Y652996D01*
X295997Y652860D01*
X295984Y652837D01*
X295968Y652815D01*
X295890Y652658D01*
X295808Y652504D01*
X295800Y652479D01*
X295788Y652455D01*
X295743Y652285D01*
X295693Y652119D01*
X295691Y652092D01*
X295684Y652066D01*
X295657Y651735D01*
X295657Y611605D01*
X295657Y611601D01*
X295657Y611596D01*
X295677Y611402D01*
X295697Y611204D01*
X295698Y611200D01*
X295698Y611196D01*
X295757Y611008D01*
X295815Y610820D01*
X295817Y610816D01*
X295818Y610811D01*
X295914Y610637D01*
X296007Y610466D01*
X296009Y610462D01*
X296012Y610458D01*
X296140Y610305D01*
X296264Y610156D01*
X296268Y610154D01*
X296271Y610150D01*
X296426Y610027D01*
X296578Y609904D01*
X296582Y609902D01*
X296586Y609899D01*
X296764Y609807D01*
X296935Y609718D01*
X296940Y609717D01*
X296944Y609715D01*
X297137Y609660D01*
X297322Y609607D01*
X297327Y609607D01*
X297331Y609605D01*
X297527Y609590D01*
X297724Y609574D01*
X297728Y609575D01*
X297732Y609574D01*
X297926Y609598D01*
X298123Y609621D01*
X298128Y609622D01*
X298132Y609623D01*
X298317Y609684D01*
X298506Y609746D01*
X298510Y609748D01*
X298514Y609750D01*
X298683Y609846D01*
X298857Y609944D01*
X298860Y609947D01*
X298864Y609949D01*
X299011Y610077D01*
X299161Y610207D01*
X299164Y610211D01*
X299168Y610213D01*
X299288Y610370D01*
X299408Y610525D01*
X299410Y610529D01*
X299413Y610533D01*
X299565Y610828D01*
X300301Y612606D01*
X301794Y614099D01*
X303744Y614907D01*
X304235Y614907D01*
X304262Y614909D01*
X304289Y614907D01*
X304463Y614929D01*
X304636Y614947D01*
X304662Y614954D01*
X304688Y614958D01*
X304854Y615013D01*
X305021Y615065D01*
X305045Y615078D01*
X305070Y615086D01*
X305221Y615173D01*
X305375Y615257D01*
X305395Y615274D01*
X305419Y615287D01*
X305672Y615502D01*
X308776Y618606D01*
X308793Y618627D01*
X308814Y618644D01*
X308921Y618782D01*
X309031Y618918D01*
X309044Y618941D01*
X309060Y618963D01*
X309138Y619120D01*
X309220Y619274D01*
X309228Y619299D01*
X309240Y619323D01*
X309285Y619493D01*
X309335Y619659D01*
X309337Y619686D01*
X309344Y619712D01*
X309371Y620043D01*
X309371Y625667D01*
X314133Y630429D01*
X320867Y630429D01*
X325629Y625667D01*
X325629Y618933D01*
X320867Y614171D01*
X315243Y614171D01*
X315216Y614169D01*
X315189Y614171D01*
X315015Y614149D01*
X314842Y614131D01*
X314816Y614124D01*
X314790Y614120D01*
X314624Y614065D01*
X314457Y614013D01*
X314433Y614000D01*
X314408Y613992D01*
X314257Y613905D01*
X314103Y613821D01*
X314083Y613804D01*
X314059Y613791D01*
X313806Y613576D01*
X310702Y610472D01*
X310685Y610451D01*
X310664Y610434D01*
X310557Y610296D01*
X310447Y610160D01*
X310434Y610137D01*
X310418Y610115D01*
X310340Y609958D01*
X310258Y609804D01*
X310250Y609779D01*
X310238Y609755D01*
X310193Y609585D01*
X310143Y609419D01*
X310141Y609392D01*
X310134Y609366D01*
X310107Y609035D01*
X310107Y608544D01*
X309299Y606594D01*
X308952Y606247D01*
X308935Y606226D01*
X308914Y606209D01*
X308807Y606071D01*
X308697Y605935D01*
X308684Y605912D01*
X308668Y605891D01*
X308590Y605734D01*
X308508Y605580D01*
X308500Y605554D01*
X308488Y605530D01*
X308443Y605361D01*
X308393Y605194D01*
X308391Y605167D01*
X308384Y605141D01*
X308357Y604810D01*
X308357Y577088D01*
X308359Y577070D01*
X308357Y577052D01*
X308378Y576870D01*
X308397Y576687D01*
X308402Y576670D01*
X308404Y576653D01*
X308461Y576477D01*
X308515Y576302D01*
X308523Y576287D01*
X308529Y576270D01*
X308620Y576109D01*
X308707Y575948D01*
X308718Y575935D01*
X308727Y575919D01*
X308847Y575780D01*
X308964Y575639D01*
X308978Y575628D01*
X308990Y575614D01*
X309135Y575502D01*
X309278Y575387D01*
X309294Y575379D01*
X309308Y575368D01*
X309473Y575286D01*
X309635Y575201D01*
X309652Y575196D01*
X309668Y575188D01*
X309847Y575141D01*
X310022Y575090D01*
X310040Y575088D01*
X310057Y575084D01*
X310388Y575057D01*
X321420Y575057D01*
X321446Y575059D01*
X321473Y575057D01*
X321647Y575079D01*
X321820Y575097D01*
X321846Y575104D01*
X321872Y575108D01*
X322038Y575163D01*
X322205Y575215D01*
X322229Y575228D01*
X322254Y575236D01*
X322406Y575323D01*
X322559Y575407D01*
X322580Y575424D01*
X322603Y575437D01*
X322856Y575652D01*
X326833Y579629D01*
X333567Y579629D01*
X338329Y574867D01*
X338329Y568133D01*
X333567Y563371D01*
X326833Y563371D01*
X322856Y567348D01*
X322835Y567365D01*
X322818Y567386D01*
X322680Y567493D01*
X322544Y567603D01*
X322521Y567616D01*
X322500Y567632D01*
X322343Y567710D01*
X322189Y567792D01*
X322163Y567800D01*
X322139Y567812D01*
X321970Y567857D01*
X321803Y567907D01*
X321776Y567909D01*
X321750Y567916D01*
X321420Y567943D01*
X310388Y567943D01*
X310370Y567941D01*
X310352Y567943D01*
X310170Y567922D01*
X309987Y567903D01*
X309970Y567898D01*
X309953Y567896D01*
X309778Y567839D01*
X309602Y567785D01*
X309587Y567777D01*
X309570Y567771D01*
X309410Y567681D01*
X309248Y567593D01*
X309235Y567582D01*
X309219Y567573D01*
X309080Y567453D01*
X308939Y567336D01*
X308928Y567322D01*
X308914Y567310D01*
X308802Y567165D01*
X308687Y567022D01*
X308679Y567006D01*
X308668Y566992D01*
X308586Y566827D01*
X308501Y566665D01*
X308496Y566648D01*
X308488Y566632D01*
X308441Y566453D01*
X308390Y566278D01*
X308388Y566260D01*
X308384Y566243D01*
X308357Y565912D01*
X308357Y529393D01*
X308358Y529384D01*
X308357Y529375D01*
X308378Y529184D01*
X308397Y528993D01*
X308399Y528984D01*
X308400Y528975D01*
X308458Y528793D01*
X308515Y528608D01*
X308519Y528600D01*
X308522Y528591D01*
X308615Y528423D01*
X308707Y528254D01*
X308712Y528247D01*
X308717Y528239D01*
X308841Y528092D01*
X308964Y527944D01*
X308971Y527939D01*
X308977Y527932D01*
X309128Y527813D01*
X309278Y527692D01*
X309286Y527688D01*
X309293Y527682D01*
X309466Y527595D01*
X309635Y527507D01*
X309644Y527504D01*
X309652Y527500D01*
X309838Y527448D01*
X310022Y527395D01*
X310031Y527394D01*
X310040Y527392D01*
X310233Y527378D01*
X310424Y527362D01*
X310432Y527363D01*
X310441Y527363D01*
X310634Y527387D01*
X310823Y527409D01*
X310832Y527412D01*
X310841Y527413D01*
X311024Y527474D01*
X311206Y527534D01*
X311214Y527538D01*
X311222Y527541D01*
X311388Y527637D01*
X311557Y527732D01*
X311564Y527738D01*
X311571Y527742D01*
X311824Y527957D01*
X313712Y529845D01*
X315469Y529845D01*
X315469Y520700D01*
X315469Y511555D01*
X313712Y511555D01*
X311824Y513443D01*
X311817Y513449D01*
X311812Y513456D01*
X311662Y513576D01*
X311513Y513698D01*
X311505Y513702D01*
X311498Y513708D01*
X311328Y513796D01*
X311157Y513887D01*
X311148Y513889D01*
X311141Y513893D01*
X310956Y513947D01*
X310771Y514002D01*
X310762Y514002D01*
X310754Y514005D01*
X310563Y514021D01*
X310370Y514038D01*
X310361Y514037D01*
X310352Y514038D01*
X310163Y514016D01*
X309970Y513995D01*
X309961Y513992D01*
X309953Y513991D01*
X309771Y513931D01*
X309586Y513873D01*
X309578Y513869D01*
X309570Y513866D01*
X309401Y513771D01*
X309234Y513678D01*
X309227Y513673D01*
X309219Y513668D01*
X309073Y513542D01*
X308927Y513418D01*
X308921Y513411D01*
X308914Y513405D01*
X308797Y513254D01*
X308677Y513102D01*
X308673Y513094D01*
X308668Y513087D01*
X308582Y512914D01*
X308495Y512743D01*
X308492Y512734D01*
X308488Y512726D01*
X308438Y512540D01*
X308387Y512355D01*
X308386Y512346D01*
X308384Y512338D01*
X308357Y512007D01*
X308357Y451756D01*
X308358Y451748D01*
X308357Y451739D01*
X308378Y451547D01*
X308397Y451356D01*
X308399Y451347D01*
X308400Y451338D01*
X308458Y451156D01*
X308515Y450971D01*
X308519Y450963D01*
X308522Y450954D01*
X308615Y450786D01*
X308707Y450617D01*
X308712Y450610D01*
X308717Y450602D01*
X308841Y450455D01*
X308964Y450308D01*
X308971Y450302D01*
X308977Y450295D01*
X309128Y450176D01*
X309278Y450055D01*
X309286Y450051D01*
X309293Y450046D01*
X309466Y449958D01*
X309635Y449870D01*
X309644Y449867D01*
X309652Y449863D01*
X309838Y449811D01*
X310022Y449758D01*
X310031Y449758D01*
X310040Y449755D01*
X310233Y449741D01*
X310424Y449725D01*
X310432Y449726D01*
X310441Y449726D01*
X310634Y449750D01*
X310823Y449772D01*
X310832Y449775D01*
X310841Y449776D01*
X311024Y449838D01*
X311206Y449897D01*
X311214Y449902D01*
X311222Y449904D01*
X311388Y450000D01*
X311557Y450095D01*
X311564Y450101D01*
X311571Y450105D01*
X311824Y450320D01*
X314133Y452629D01*
X319757Y452629D01*
X319784Y452631D01*
X319811Y452629D01*
X319985Y452651D01*
X320158Y452669D01*
X320183Y452676D01*
X320210Y452680D01*
X320376Y452735D01*
X320543Y452787D01*
X320566Y452800D01*
X320592Y452808D01*
X320743Y452895D01*
X320897Y452979D01*
X320917Y452996D01*
X320941Y453009D01*
X321194Y453224D01*
X326048Y458078D01*
X326065Y458099D01*
X326086Y458117D01*
X326193Y458254D01*
X326303Y458390D01*
X326316Y458413D01*
X326332Y458435D01*
X326410Y458592D01*
X326492Y458746D01*
X326500Y458771D01*
X326512Y458795D01*
X326557Y458965D01*
X326607Y459131D01*
X326609Y459158D01*
X326616Y459184D01*
X326643Y459515D01*
X326643Y461120D01*
X326642Y461128D01*
X326643Y461134D01*
X326641Y461151D01*
X326643Y461173D01*
X326621Y461347D01*
X326603Y461520D01*
X326596Y461546D01*
X326592Y461572D01*
X326537Y461738D01*
X326485Y461905D01*
X326472Y461929D01*
X326464Y461954D01*
X326377Y462106D01*
X326293Y462259D01*
X326276Y462280D01*
X326263Y462303D01*
X326048Y462556D01*
X322071Y466533D01*
X322071Y473267D01*
X326048Y477244D01*
X326065Y477265D01*
X326086Y477282D01*
X326193Y477420D01*
X326303Y477556D01*
X326316Y477579D01*
X326332Y477600D01*
X326410Y477757D01*
X326492Y477911D01*
X326500Y477937D01*
X326512Y477961D01*
X326557Y478130D01*
X326607Y478297D01*
X326609Y478324D01*
X326616Y478350D01*
X326643Y478680D01*
X326643Y512007D01*
X326642Y512016D01*
X326643Y512025D01*
X326622Y512216D01*
X326603Y512407D01*
X326601Y512416D01*
X326600Y512425D01*
X326542Y512607D01*
X326485Y512792D01*
X326481Y512800D01*
X326478Y512809D01*
X326385Y512977D01*
X326293Y513146D01*
X326288Y513153D01*
X326283Y513161D01*
X326159Y513308D01*
X326036Y513456D01*
X326029Y513461D01*
X326023Y513468D01*
X325872Y513587D01*
X325722Y513708D01*
X325714Y513712D01*
X325707Y513718D01*
X325534Y513805D01*
X325365Y513893D01*
X325356Y513896D01*
X325348Y513900D01*
X325162Y513952D01*
X324978Y514005D01*
X324969Y514006D01*
X324960Y514008D01*
X324767Y514022D01*
X324576Y514038D01*
X324568Y514037D01*
X324559Y514037D01*
X324366Y514013D01*
X324177Y513991D01*
X324168Y513988D01*
X324159Y513987D01*
X323976Y513926D01*
X323794Y513866D01*
X323786Y513862D01*
X323778Y513859D01*
X323612Y513763D01*
X323443Y513668D01*
X323436Y513662D01*
X323429Y513658D01*
X323176Y513443D01*
X321288Y511555D01*
X319531Y511555D01*
X319531Y520700D01*
X319531Y529845D01*
X321288Y529845D01*
X323176Y527957D01*
X323183Y527951D01*
X323188Y527944D01*
X323338Y527824D01*
X323487Y527702D01*
X323495Y527698D01*
X323502Y527692D01*
X323672Y527604D01*
X323843Y527513D01*
X323852Y527511D01*
X323859Y527507D01*
X324044Y527453D01*
X324229Y527398D01*
X324238Y527398D01*
X324246Y527395D01*
X324437Y527379D01*
X324630Y527362D01*
X324639Y527363D01*
X324648Y527362D01*
X324837Y527384D01*
X325030Y527405D01*
X325039Y527408D01*
X325047Y527409D01*
X325229Y527469D01*
X325414Y527527D01*
X325422Y527531D01*
X325430Y527534D01*
X325599Y527629D01*
X325766Y527722D01*
X325773Y527727D01*
X325781Y527732D01*
X325927Y527858D01*
X326073Y527982D01*
X326079Y527989D01*
X326086Y527995D01*
X326203Y528146D01*
X326323Y528298D01*
X326327Y528306D01*
X326332Y528313D01*
X326418Y528485D01*
X326505Y528657D01*
X326508Y528666D01*
X326512Y528674D01*
X326562Y528860D01*
X326613Y529045D01*
X326614Y529054D01*
X326616Y529062D01*
X326643Y529393D01*
X326643Y537320D01*
X326641Y537346D01*
X326643Y537373D01*
X326621Y537547D01*
X326603Y537720D01*
X326596Y537746D01*
X326592Y537772D01*
X326537Y537938D01*
X326485Y538105D01*
X326472Y538129D01*
X326464Y538154D01*
X326377Y538306D01*
X326293Y538459D01*
X326276Y538480D01*
X326263Y538503D01*
X326048Y538756D01*
X322071Y542733D01*
X322071Y549467D01*
X326833Y554229D01*
X333567Y554229D01*
X338329Y549467D01*
X338329Y542733D01*
X334352Y538756D01*
X334335Y538735D01*
X334314Y538718D01*
X334207Y538580D01*
X334097Y538444D01*
X334084Y538421D01*
X334068Y538400D01*
X333990Y538243D01*
X333908Y538089D01*
X333900Y538063D01*
X333888Y538039D01*
X333843Y537870D01*
X333793Y537703D01*
X333791Y537676D01*
X333784Y537650D01*
X333757Y537320D01*
X333757Y478680D01*
X333759Y478654D01*
X333757Y478627D01*
X333779Y478453D01*
X333797Y478280D01*
X333804Y478254D01*
X333808Y478228D01*
X333864Y478062D01*
X333915Y477895D01*
X333928Y477871D01*
X333936Y477846D01*
X334023Y477694D01*
X334107Y477541D01*
X334124Y477520D01*
X334137Y477497D01*
X334352Y477244D01*
X338329Y473267D01*
X338329Y466533D01*
X334352Y462556D01*
X334335Y462535D01*
X334314Y462518D01*
X334207Y462380D01*
X334097Y462244D01*
X334084Y462221D01*
X334068Y462200D01*
X333990Y462043D01*
X333908Y461889D01*
X333900Y461863D01*
X333888Y461839D01*
X333843Y461670D01*
X333793Y461503D01*
X333791Y461476D01*
X333784Y461450D01*
X333757Y461120D01*
X333757Y455727D01*
X326224Y448194D01*
X326207Y448173D01*
X326186Y448155D01*
X326079Y448018D01*
X325969Y447882D01*
X325956Y447859D01*
X325940Y447837D01*
X325862Y447680D01*
X325780Y447526D01*
X325772Y447501D01*
X325760Y447477D01*
X325715Y447307D01*
X325665Y447141D01*
X325663Y447114D01*
X325656Y447088D01*
X325629Y446757D01*
X325629Y441133D01*
X320867Y436371D01*
X314133Y436371D01*
X311824Y438680D01*
X311817Y438686D01*
X311812Y438692D01*
X311662Y438813D01*
X311513Y438935D01*
X311505Y438939D01*
X311498Y438945D01*
X311328Y439033D01*
X311157Y439124D01*
X311148Y439126D01*
X311141Y439130D01*
X310956Y439183D01*
X310771Y439238D01*
X310762Y439239D01*
X310754Y439242D01*
X310563Y439257D01*
X310370Y439275D01*
X310361Y439274D01*
X310352Y439275D01*
X310163Y439252D01*
X309970Y439231D01*
X309961Y439229D01*
X309953Y439228D01*
X309771Y439168D01*
X309586Y439110D01*
X309578Y439106D01*
X309570Y439103D01*
X309401Y439008D01*
X309234Y438915D01*
X309227Y438909D01*
X309219Y438905D01*
X309073Y438779D01*
X308927Y438655D01*
X308921Y438648D01*
X308914Y438642D01*
X308797Y438490D01*
X308677Y438339D01*
X308673Y438331D01*
X308668Y438324D01*
X308582Y438152D01*
X308495Y437980D01*
X308492Y437971D01*
X308488Y437963D01*
X308438Y437777D01*
X308387Y437592D01*
X308386Y437583D01*
X308384Y437574D01*
X308357Y437244D01*
X308357Y389693D01*
X308358Y389684D01*
X308357Y389675D01*
X308378Y389484D01*
X308397Y389293D01*
X308399Y389284D01*
X308400Y389275D01*
X308458Y389093D01*
X308515Y388908D01*
X308519Y388900D01*
X308522Y388891D01*
X308615Y388723D01*
X308707Y388554D01*
X308712Y388547D01*
X308717Y388539D01*
X308841Y388392D01*
X308964Y388244D01*
X308971Y388239D01*
X308977Y388232D01*
X309128Y388113D01*
X309278Y387992D01*
X309286Y387988D01*
X309293Y387982D01*
X309466Y387895D01*
X309635Y387807D01*
X309644Y387804D01*
X309652Y387800D01*
X309838Y387748D01*
X310022Y387695D01*
X310031Y387694D01*
X310040Y387692D01*
X310233Y387678D01*
X310424Y387662D01*
X310432Y387663D01*
X310441Y387663D01*
X310634Y387687D01*
X310823Y387709D01*
X310832Y387712D01*
X310841Y387713D01*
X311024Y387774D01*
X311206Y387834D01*
X311214Y387838D01*
X311222Y387841D01*
X311388Y387937D01*
X311557Y388032D01*
X311564Y388038D01*
X311571Y388042D01*
X311824Y388257D01*
X313712Y390145D01*
X315469Y390145D01*
X315469Y381000D01*
X315469Y371855D01*
X313712Y371855D01*
X311824Y373743D01*
X311817Y373749D01*
X311812Y373756D01*
X311662Y373876D01*
X311513Y373998D01*
X311505Y374002D01*
X311498Y374008D01*
X311328Y374096D01*
X311157Y374187D01*
X311148Y374189D01*
X311141Y374193D01*
X310956Y374247D01*
X310771Y374302D01*
X310762Y374302D01*
X310754Y374305D01*
X310563Y374321D01*
X310370Y374338D01*
X310361Y374337D01*
X310352Y374338D01*
X310163Y374316D01*
X309970Y374295D01*
X309961Y374292D01*
X309953Y374291D01*
X309771Y374231D01*
X309586Y374173D01*
X309578Y374169D01*
X309570Y374166D01*
X309401Y374071D01*
X309234Y373978D01*
X309227Y373973D01*
X309219Y373968D01*
X309073Y373842D01*
X308927Y373718D01*
X308921Y373711D01*
X308914Y373705D01*
X308797Y373554D01*
X308677Y373402D01*
X308673Y373394D01*
X308668Y373387D01*
X308582Y373214D01*
X308495Y373043D01*
X308492Y373034D01*
X308488Y373026D01*
X308438Y372840D01*
X308387Y372655D01*
X308386Y372646D01*
X308384Y372638D01*
X308357Y372307D01*
X308357Y345215D01*
X308359Y345188D01*
X308357Y345161D01*
X308379Y344987D01*
X308397Y344814D01*
X308404Y344789D01*
X308408Y344762D01*
X308463Y344596D01*
X308515Y344429D01*
X308528Y344406D01*
X308536Y344380D01*
X308623Y344229D01*
X308707Y344075D01*
X308724Y344055D01*
X308737Y344031D01*
X308952Y343778D01*
X318378Y334352D01*
X318399Y334335D01*
X318417Y334314D01*
X318554Y334207D01*
X318690Y334097D01*
X318713Y334084D01*
X318735Y334068D01*
X318892Y333990D01*
X319046Y333908D01*
X319071Y333900D01*
X319095Y333888D01*
X319265Y333843D01*
X319431Y333793D01*
X319458Y333791D01*
X319484Y333784D01*
X319815Y333757D01*
X321420Y333757D01*
X321446Y333759D01*
X321473Y333757D01*
X321647Y333779D01*
X321820Y333797D01*
X321846Y333804D01*
X321872Y333808D01*
X322038Y333863D01*
X322205Y333915D01*
X322229Y333928D01*
X322254Y333936D01*
X322406Y334023D01*
X322559Y334107D01*
X322580Y334124D01*
X322603Y334137D01*
X322856Y334352D01*
X326833Y338329D01*
X333567Y338329D01*
X338329Y333567D01*
X338329Y326833D01*
X333567Y322071D01*
X326833Y322071D01*
X322856Y326048D01*
X322835Y326065D01*
X322818Y326086D01*
X322680Y326193D01*
X322544Y326303D01*
X322521Y326316D01*
X322500Y326332D01*
X322343Y326410D01*
X322189Y326492D01*
X322163Y326500D01*
X322139Y326512D01*
X321970Y326557D01*
X321803Y326607D01*
X321776Y326609D01*
X321750Y326616D01*
X321420Y326643D01*
X316027Y326643D01*
X301243Y341427D01*
X301243Y353595D01*
X301243Y353599D01*
X301243Y353604D01*
X301223Y353798D01*
X301203Y353996D01*
X301202Y354000D01*
X301202Y354004D01*
X301143Y354192D01*
X301085Y354380D01*
X301083Y354384D01*
X301082Y354389D01*
X300986Y354563D01*
X300893Y354734D01*
X300891Y354738D01*
X300888Y354742D01*
X300760Y354895D01*
X300636Y355044D01*
X300632Y355046D01*
X300629Y355050D01*
X300474Y355173D01*
X300322Y355296D01*
X300318Y355298D01*
X300314Y355301D01*
X300136Y355393D01*
X299965Y355482D01*
X299960Y355483D01*
X299956Y355485D01*
X299763Y355540D01*
X299578Y355593D01*
X299573Y355593D01*
X299569Y355595D01*
X299373Y355610D01*
X299176Y355626D01*
X299172Y355625D01*
X299168Y355626D01*
X298974Y355602D01*
X298777Y355579D01*
X298772Y355578D01*
X298768Y355577D01*
X298583Y355516D01*
X298394Y355454D01*
X298390Y355452D01*
X298386Y355450D01*
X298217Y355354D01*
X298043Y355256D01*
X298040Y355253D01*
X298036Y355251D01*
X297889Y355123D01*
X297739Y354993D01*
X297736Y354989D01*
X297732Y354987D01*
X297612Y354830D01*
X297492Y354675D01*
X297490Y354671D01*
X297487Y354667D01*
X297335Y354372D01*
X296599Y352594D01*
X295106Y351101D01*
X293156Y350293D01*
X291044Y350293D01*
X289094Y351101D01*
X287601Y352594D01*
X286865Y354372D01*
X286862Y354376D01*
X286861Y354380D01*
X286768Y354552D01*
X286674Y354727D01*
X286672Y354731D01*
X286669Y354734D01*
X286544Y354885D01*
X286418Y355037D01*
X286415Y355040D01*
X286412Y355044D01*
X286259Y355167D01*
X286105Y355291D01*
X286101Y355293D01*
X286098Y355296D01*
X285925Y355386D01*
X285749Y355478D01*
X285745Y355480D01*
X285741Y355482D01*
X285553Y355536D01*
X285362Y355591D01*
X285358Y355592D01*
X285354Y355593D01*
X285156Y355609D01*
X284961Y355626D01*
X284957Y355625D01*
X284952Y355626D01*
X284758Y355603D01*
X284561Y355581D01*
X284557Y355579D01*
X284553Y355579D01*
X284367Y355518D01*
X284178Y355458D01*
X284174Y355455D01*
X284170Y355454D01*
X283998Y355357D01*
X283826Y355261D01*
X283823Y355258D01*
X283819Y355256D01*
X283671Y355128D01*
X283521Y354999D01*
X283518Y354996D01*
X283514Y354993D01*
X283394Y354838D01*
X283272Y354682D01*
X283270Y354678D01*
X283268Y354675D01*
X283180Y354499D01*
X283092Y354323D01*
X283090Y354318D01*
X283088Y354314D01*
X283037Y354123D01*
X282985Y353934D01*
X282985Y353930D01*
X282984Y353926D01*
X282957Y353595D01*
X282957Y271577D01*
X261823Y250443D01*
X231186Y250443D01*
X231164Y250441D01*
X231142Y250443D01*
X230965Y250421D01*
X230786Y250403D01*
X230765Y250397D01*
X230742Y250394D01*
X230573Y250338D01*
X230401Y250285D01*
X230381Y250275D01*
X230360Y250268D01*
X230205Y250179D01*
X230047Y250093D01*
X230030Y250079D01*
X230010Y250068D01*
X229875Y249950D01*
X229738Y249836D01*
X229724Y249818D01*
X229707Y249804D01*
X229598Y249662D01*
X229485Y249522D01*
X229475Y249502D01*
X229461Y249484D01*
X229437Y249438D01*
X227109Y247109D01*
X224121Y245871D01*
X207679Y245871D01*
X204691Y247109D01*
X202405Y249395D01*
X201167Y252383D01*
X201167Y255617D01*
X202405Y258605D01*
X204691Y260891D01*
X207679Y262129D01*
X224121Y262129D01*
X227109Y260891D01*
X229449Y258551D01*
X229500Y258456D01*
X229514Y258439D01*
X229525Y258419D01*
X229642Y258284D01*
X229756Y258145D01*
X229774Y258131D01*
X229788Y258114D01*
X229930Y258005D01*
X230069Y257892D01*
X230089Y257881D01*
X230106Y257868D01*
X230267Y257788D01*
X230426Y257705D01*
X230447Y257698D01*
X230467Y257688D01*
X230641Y257642D01*
X230812Y257592D01*
X230834Y257590D01*
X230856Y257584D01*
X231186Y257557D01*
X258035Y257557D01*
X258062Y257559D01*
X258089Y257557D01*
X258263Y257579D01*
X258436Y257597D01*
X258461Y257604D01*
X258488Y257608D01*
X258654Y257663D01*
X258821Y257715D01*
X258844Y257728D01*
X258870Y257736D01*
X259021Y257823D01*
X259175Y257907D01*
X259195Y257924D01*
X259219Y257937D01*
X259472Y258152D01*
X275248Y273928D01*
X275265Y273949D01*
X275286Y273967D01*
X275393Y274104D01*
X275503Y274240D01*
X275516Y274263D01*
X275532Y274285D01*
X275610Y274442D01*
X275692Y274596D01*
X275700Y274621D01*
X275712Y274645D01*
X275757Y274815D01*
X275807Y274981D01*
X275809Y275008D01*
X275816Y275034D01*
X275843Y275365D01*
X275843Y373744D01*
X275842Y373752D01*
X275843Y373761D01*
X275822Y373953D01*
X275803Y374144D01*
X275801Y374153D01*
X275800Y374162D01*
X275742Y374343D01*
X275685Y374529D01*
X275681Y374537D01*
X275678Y374546D01*
X275585Y374714D01*
X275493Y374883D01*
X275488Y374890D01*
X275483Y374898D01*
X275359Y375045D01*
X275236Y375192D01*
X275229Y375198D01*
X275223Y375205D01*
X275072Y375324D01*
X274922Y375445D01*
X274914Y375449D01*
X274907Y375454D01*
X274734Y375542D01*
X274565Y375630D01*
X274556Y375633D01*
X274548Y375637D01*
X274362Y375689D01*
X274178Y375742D01*
X274169Y375742D01*
X274160Y375745D01*
X273967Y375759D01*
X273776Y375775D01*
X273768Y375774D01*
X273759Y375774D01*
X273566Y375750D01*
X273377Y375728D01*
X273368Y375725D01*
X273359Y375724D01*
X273176Y375662D01*
X272994Y375603D01*
X272986Y375598D01*
X272978Y375596D01*
X272812Y375500D01*
X272643Y375405D01*
X272636Y375399D01*
X272629Y375395D01*
X272376Y375180D01*
X270067Y372871D01*
X263333Y372871D01*
X259356Y376848D01*
X259335Y376865D01*
X259318Y376886D01*
X259180Y376993D01*
X259044Y377103D01*
X259021Y377116D01*
X259000Y377132D01*
X258843Y377210D01*
X258689Y377292D01*
X258663Y377300D01*
X258639Y377312D01*
X258470Y377357D01*
X258303Y377407D01*
X258276Y377409D01*
X258250Y377416D01*
X257920Y377443D01*
X231186Y377443D01*
X231164Y377441D01*
X231142Y377443D01*
X230965Y377421D01*
X230786Y377403D01*
X230765Y377397D01*
X230742Y377394D01*
X230573Y377338D01*
X230401Y377285D01*
X230381Y377275D01*
X230360Y377268D01*
X230205Y377179D01*
X230047Y377093D01*
X230030Y377079D01*
X230010Y377068D01*
X229875Y376950D01*
X229738Y376836D01*
X229724Y376818D01*
X229707Y376804D01*
X229598Y376662D01*
X229485Y376522D01*
X229475Y376502D01*
X229461Y376484D01*
X229437Y376438D01*
X227109Y374109D01*
X224121Y372871D01*
X207679Y372871D01*
X204691Y374109D01*
X202968Y375832D01*
X202947Y375849D01*
X202930Y375870D01*
X202792Y375977D01*
X202656Y376087D01*
X202633Y376100D01*
X202612Y376116D01*
X202455Y376194D01*
X202301Y376276D01*
X202275Y376284D01*
X202251Y376296D01*
X202082Y376341D01*
X201915Y376391D01*
X201888Y376393D01*
X201862Y376400D01*
X201532Y376427D01*
X197104Y376427D01*
X197086Y376425D01*
X197068Y376427D01*
X196886Y376406D01*
X196703Y376387D01*
X196686Y376382D01*
X196669Y376380D01*
X196494Y376323D01*
X196318Y376269D01*
X196303Y376261D01*
X196286Y376255D01*
X196126Y376165D01*
X195964Y376077D01*
X195951Y376066D01*
X195935Y376057D01*
X195796Y375937D01*
X195655Y375820D01*
X195644Y375806D01*
X195630Y375794D01*
X195518Y375649D01*
X195403Y375506D01*
X195395Y375490D01*
X195384Y375476D01*
X195302Y375311D01*
X195217Y375149D01*
X195212Y375132D01*
X195204Y375116D01*
X195157Y374937D01*
X195106Y374762D01*
X195104Y374744D01*
X195100Y374727D01*
X195073Y374396D01*
X195073Y218635D01*
X195075Y218609D01*
X195073Y218582D01*
X195095Y218408D01*
X195113Y218235D01*
X195120Y218209D01*
X195124Y218183D01*
X195179Y218017D01*
X195231Y217850D01*
X195244Y217826D01*
X195252Y217801D01*
X195339Y217649D01*
X195423Y217496D01*
X195440Y217475D01*
X195453Y217452D01*
X195668Y217199D01*
X230905Y181962D01*
X232477Y180390D01*
X233173Y178710D01*
X233173Y78333D01*
X233175Y78306D01*
X233173Y78279D01*
X233195Y78106D01*
X233213Y77932D01*
X233220Y77907D01*
X233224Y77880D01*
X233279Y77714D01*
X233331Y77547D01*
X233344Y77524D01*
X233352Y77498D01*
X233439Y77347D01*
X233523Y77193D01*
X233540Y77173D01*
X233553Y77149D01*
X233768Y76896D01*
X235646Y75018D01*
X235667Y75001D01*
X235685Y74980D01*
X235823Y74873D01*
X235958Y74763D01*
X235982Y74750D01*
X236003Y74734D01*
X236160Y74656D01*
X236314Y74574D01*
X236339Y74566D01*
X236363Y74554D01*
X236533Y74509D01*
X236700Y74459D01*
X236726Y74457D01*
X236752Y74450D01*
X237083Y74423D01*
X307760Y74423D01*
X307787Y74425D01*
X307813Y74423D01*
X307987Y74445D01*
X308161Y74463D01*
X308186Y74470D01*
X308213Y74474D01*
X308379Y74530D01*
X308546Y74581D01*
X308569Y74594D01*
X308594Y74602D01*
X308746Y74689D01*
X308900Y74773D01*
X308920Y74790D01*
X308943Y74803D01*
X309196Y75018D01*
X313554Y79376D01*
X321446Y79376D01*
X327026Y73796D01*
X327026Y65904D01*
X321446Y60324D01*
X313554Y60324D01*
X309196Y64682D01*
X309176Y64699D01*
X309158Y64720D01*
X309020Y64827D01*
X308885Y64937D01*
X308861Y64950D01*
X308840Y64966D01*
X308683Y65044D01*
X308529Y65126D01*
X308504Y65134D01*
X308479Y65146D01*
X308310Y65191D01*
X308143Y65241D01*
X308117Y65243D01*
X308091Y65250D01*
X307760Y65277D01*
X237083Y65277D01*
X237056Y65275D01*
X237029Y65277D01*
X236856Y65255D01*
X236682Y65237D01*
X236657Y65230D01*
X236630Y65226D01*
X236464Y65171D01*
X236297Y65119D01*
X236274Y65106D01*
X236248Y65098D01*
X236097Y65011D01*
X235943Y64927D01*
X235923Y64910D01*
X235899Y64897D01*
X235646Y64682D01*
X233768Y62804D01*
X233751Y62783D01*
X233730Y62765D01*
X233623Y62627D01*
X233513Y62492D01*
X233500Y62468D01*
X233484Y62447D01*
X233406Y62290D01*
X233324Y62136D01*
X233316Y62111D01*
X233304Y62087D01*
X233259Y61917D01*
X233209Y61750D01*
X233207Y61724D01*
X233200Y61698D01*
X233173Y61367D01*
X233173Y52933D01*
X233175Y52906D01*
X233173Y52879D01*
X233195Y52706D01*
X233213Y52532D01*
X233220Y52507D01*
X233224Y52480D01*
X233280Y52314D01*
X233331Y52147D01*
X233344Y52124D01*
X233352Y52098D01*
X233439Y51947D01*
X233523Y51793D01*
X233540Y51773D01*
X233553Y51749D01*
X233768Y51496D01*
X237237Y48027D01*
X237237Y40873D01*
X232177Y35813D01*
X225023Y35813D01*
G37*
%LPD*%
G36*
X257946Y384559D02*
X257946Y384559D01*
X257973Y384557D01*
X258147Y384579D01*
X258320Y384597D01*
X258346Y384604D01*
X258372Y384608D01*
X258538Y384663D01*
X258705Y384715D01*
X258729Y384728D01*
X258754Y384736D01*
X258906Y384823D01*
X259059Y384907D01*
X259080Y384924D01*
X259103Y384937D01*
X259356Y385152D01*
X263333Y389129D01*
X270067Y389129D01*
X272376Y386820D01*
X272383Y386814D01*
X272388Y386808D01*
X272538Y386687D01*
X272687Y386565D01*
X272695Y386561D01*
X272702Y386555D01*
X272872Y386467D01*
X273043Y386376D01*
X273052Y386374D01*
X273059Y386370D01*
X273244Y386317D01*
X273429Y386262D01*
X273438Y386261D01*
X273446Y386258D01*
X273637Y386243D01*
X273830Y386225D01*
X273839Y386226D01*
X273848Y386225D01*
X274037Y386248D01*
X274230Y386269D01*
X274239Y386271D01*
X274247Y386272D01*
X274429Y386332D01*
X274614Y386390D01*
X274622Y386394D01*
X274630Y386397D01*
X274799Y386492D01*
X274966Y386585D01*
X274973Y386591D01*
X274981Y386595D01*
X275127Y386721D01*
X275273Y386845D01*
X275279Y386852D01*
X275286Y386858D01*
X275403Y387010D01*
X275523Y387161D01*
X275527Y387169D01*
X275532Y387176D01*
X275618Y387348D01*
X275705Y387520D01*
X275708Y387529D01*
X275712Y387537D01*
X275762Y387723D01*
X275813Y387908D01*
X275814Y387917D01*
X275816Y387926D01*
X275843Y388256D01*
X275843Y404085D01*
X275841Y404112D01*
X275843Y404139D01*
X275821Y404313D01*
X275803Y404486D01*
X275796Y404511D01*
X275792Y404538D01*
X275737Y404704D01*
X275685Y404871D01*
X275672Y404894D01*
X275664Y404920D01*
X275577Y405071D01*
X275493Y405225D01*
X275476Y405245D01*
X275463Y405269D01*
X275248Y405522D01*
X237743Y443027D01*
X237743Y724662D01*
X237741Y724680D01*
X237743Y724698D01*
X237722Y724880D01*
X237703Y725063D01*
X237698Y725080D01*
X237696Y725097D01*
X237639Y725272D01*
X237585Y725448D01*
X237577Y725463D01*
X237571Y725480D01*
X237481Y725640D01*
X237393Y725802D01*
X237382Y725815D01*
X237373Y725831D01*
X237253Y725970D01*
X237136Y726111D01*
X237122Y726122D01*
X237110Y726136D01*
X236965Y726248D01*
X236822Y726363D01*
X236806Y726371D01*
X236792Y726382D01*
X236627Y726464D01*
X236465Y726549D01*
X236448Y726554D01*
X236432Y726562D01*
X236253Y726609D01*
X236078Y726660D01*
X236060Y726662D01*
X236043Y726666D01*
X235712Y726693D01*
X229923Y726693D01*
X229896Y726691D01*
X229869Y726693D01*
X229695Y726671D01*
X229522Y726653D01*
X229497Y726646D01*
X229470Y726642D01*
X229304Y726586D01*
X229137Y726535D01*
X229114Y726522D01*
X229088Y726514D01*
X228937Y726427D01*
X228783Y726343D01*
X228763Y726326D01*
X228739Y726313D01*
X228486Y726098D01*
X226225Y723837D01*
X223445Y722685D01*
X208355Y722685D01*
X205575Y723837D01*
X203447Y725965D01*
X202295Y728745D01*
X202295Y731755D01*
X203447Y734535D01*
X205575Y736663D01*
X208355Y737815D01*
X223445Y737815D01*
X226225Y736663D01*
X228486Y734402D01*
X228507Y734385D01*
X228525Y734364D01*
X228663Y734257D01*
X228798Y734147D01*
X228822Y734134D01*
X228843Y734118D01*
X228999Y734040D01*
X229154Y733958D01*
X229179Y733950D01*
X229203Y733938D01*
X229372Y733893D01*
X229540Y733843D01*
X229566Y733841D01*
X229592Y733834D01*
X229923Y733807D01*
X245220Y733807D01*
X245246Y733809D01*
X245273Y733807D01*
X245447Y733829D01*
X245620Y733847D01*
X245646Y733854D01*
X245672Y733858D01*
X245838Y733913D01*
X246005Y733965D01*
X246029Y733978D01*
X246054Y733986D01*
X246206Y734073D01*
X246359Y734157D01*
X246380Y734174D01*
X246403Y734187D01*
X246656Y734402D01*
X250633Y738379D01*
X257367Y738379D01*
X262129Y733617D01*
X262129Y726883D01*
X257367Y722121D01*
X250633Y722121D01*
X248324Y724430D01*
X248317Y724436D01*
X248312Y724442D01*
X248162Y724563D01*
X248013Y724685D01*
X248005Y724689D01*
X247998Y724695D01*
X247828Y724783D01*
X247657Y724874D01*
X247648Y724876D01*
X247641Y724880D01*
X247456Y724933D01*
X247271Y724988D01*
X247262Y724989D01*
X247254Y724992D01*
X247063Y725007D01*
X246870Y725025D01*
X246861Y725024D01*
X246852Y725025D01*
X246663Y725002D01*
X246470Y724981D01*
X246461Y724979D01*
X246453Y724978D01*
X246271Y724918D01*
X246086Y724860D01*
X246078Y724856D01*
X246070Y724853D01*
X245901Y724758D01*
X245734Y724665D01*
X245727Y724659D01*
X245719Y724655D01*
X245573Y724529D01*
X245427Y724405D01*
X245421Y724398D01*
X245414Y724392D01*
X245296Y724239D01*
X245177Y724089D01*
X245173Y724081D01*
X245168Y724074D01*
X245082Y723902D01*
X244995Y723730D01*
X244992Y723721D01*
X244988Y723713D01*
X244938Y723527D01*
X244887Y723342D01*
X244886Y723333D01*
X244884Y723324D01*
X244857Y722994D01*
X244857Y712106D01*
X244858Y712098D01*
X244857Y712089D01*
X244878Y711897D01*
X244897Y711706D01*
X244899Y711697D01*
X244900Y711688D01*
X244958Y711506D01*
X245015Y711321D01*
X245019Y711313D01*
X245022Y711304D01*
X245115Y711136D01*
X245207Y710967D01*
X245212Y710960D01*
X245217Y710952D01*
X245341Y710805D01*
X245464Y710658D01*
X245471Y710652D01*
X245477Y710645D01*
X245628Y710526D01*
X245778Y710405D01*
X245786Y710401D01*
X245793Y710396D01*
X245966Y710308D01*
X246135Y710220D01*
X246144Y710217D01*
X246152Y710213D01*
X246338Y710161D01*
X246522Y710108D01*
X246531Y710108D01*
X246540Y710105D01*
X246733Y710091D01*
X246924Y710075D01*
X246932Y710076D01*
X246941Y710076D01*
X247134Y710100D01*
X247323Y710122D01*
X247332Y710125D01*
X247341Y710126D01*
X247524Y710188D01*
X247706Y710247D01*
X247714Y710252D01*
X247722Y710254D01*
X247888Y710350D01*
X248057Y710445D01*
X248064Y710451D01*
X248071Y710455D01*
X248324Y710670D01*
X250633Y712979D01*
X257367Y712979D01*
X262129Y708217D01*
X262129Y701483D01*
X257367Y696721D01*
X250633Y696721D01*
X248324Y699030D01*
X248317Y699036D01*
X248312Y699042D01*
X248162Y699163D01*
X248013Y699285D01*
X248005Y699289D01*
X247998Y699295D01*
X247828Y699383D01*
X247657Y699474D01*
X247648Y699476D01*
X247641Y699480D01*
X247456Y699533D01*
X247271Y699588D01*
X247262Y699589D01*
X247254Y699592D01*
X247063Y699607D01*
X246870Y699625D01*
X246861Y699624D01*
X246852Y699625D01*
X246663Y699602D01*
X246470Y699581D01*
X246461Y699579D01*
X246453Y699578D01*
X246271Y699518D01*
X246086Y699460D01*
X246078Y699456D01*
X246070Y699453D01*
X245901Y699358D01*
X245734Y699265D01*
X245727Y699259D01*
X245719Y699255D01*
X245573Y699129D01*
X245427Y699005D01*
X245421Y698998D01*
X245414Y698992D01*
X245297Y698840D01*
X245177Y698689D01*
X245173Y698681D01*
X245168Y698674D01*
X245082Y698502D01*
X244995Y698330D01*
X244992Y698321D01*
X244988Y698313D01*
X244938Y698127D01*
X244887Y697942D01*
X244886Y697933D01*
X244884Y697924D01*
X244857Y697594D01*
X244857Y686706D01*
X244858Y686698D01*
X244857Y686689D01*
X244878Y686497D01*
X244897Y686306D01*
X244899Y686297D01*
X244900Y686288D01*
X244958Y686106D01*
X245015Y685921D01*
X245019Y685913D01*
X245022Y685904D01*
X245115Y685736D01*
X245207Y685567D01*
X245212Y685560D01*
X245217Y685552D01*
X245341Y685405D01*
X245464Y685258D01*
X245471Y685252D01*
X245477Y685245D01*
X245628Y685126D01*
X245778Y685005D01*
X245786Y685001D01*
X245793Y684996D01*
X245966Y684908D01*
X246135Y684820D01*
X246144Y684817D01*
X246152Y684813D01*
X246338Y684761D01*
X246522Y684708D01*
X246531Y684708D01*
X246540Y684705D01*
X246733Y684691D01*
X246924Y684675D01*
X246932Y684676D01*
X246941Y684676D01*
X247134Y684700D01*
X247323Y684722D01*
X247332Y684725D01*
X247341Y684726D01*
X247524Y684788D01*
X247706Y684847D01*
X247714Y684852D01*
X247722Y684854D01*
X247888Y684950D01*
X248057Y685045D01*
X248064Y685051D01*
X248071Y685055D01*
X248324Y685270D01*
X250633Y687579D01*
X257367Y687579D01*
X262129Y682817D01*
X262129Y676083D01*
X257367Y671321D01*
X250633Y671321D01*
X248324Y673630D01*
X248317Y673636D01*
X248312Y673642D01*
X248162Y673763D01*
X248013Y673885D01*
X248005Y673889D01*
X247998Y673895D01*
X247828Y673983D01*
X247657Y674074D01*
X247648Y674076D01*
X247641Y674080D01*
X247456Y674133D01*
X247271Y674188D01*
X247262Y674189D01*
X247254Y674192D01*
X247063Y674207D01*
X246870Y674225D01*
X246861Y674224D01*
X246852Y674225D01*
X246663Y674202D01*
X246470Y674181D01*
X246461Y674179D01*
X246453Y674178D01*
X246271Y674118D01*
X246086Y674060D01*
X246078Y674056D01*
X246070Y674053D01*
X245901Y673958D01*
X245734Y673865D01*
X245727Y673859D01*
X245719Y673855D01*
X245573Y673729D01*
X245427Y673605D01*
X245421Y673598D01*
X245414Y673592D01*
X245297Y673440D01*
X245177Y673289D01*
X245173Y673281D01*
X245168Y673274D01*
X245082Y673101D01*
X244995Y672930D01*
X244992Y672921D01*
X244988Y672913D01*
X244938Y672727D01*
X244887Y672542D01*
X244886Y672533D01*
X244884Y672524D01*
X244857Y672194D01*
X244857Y604156D01*
X244858Y604148D01*
X244857Y604139D01*
X244878Y603947D01*
X244897Y603756D01*
X244899Y603747D01*
X244900Y603738D01*
X244959Y603553D01*
X245015Y603371D01*
X245019Y603363D01*
X245022Y603354D01*
X245115Y603186D01*
X245207Y603017D01*
X245212Y603010D01*
X245217Y603002D01*
X245341Y602855D01*
X245464Y602708D01*
X245471Y602702D01*
X245477Y602695D01*
X245628Y602576D01*
X245778Y602455D01*
X245786Y602451D01*
X245793Y602446D01*
X245966Y602358D01*
X246135Y602270D01*
X246144Y602267D01*
X246152Y602263D01*
X246338Y602211D01*
X246522Y602158D01*
X246531Y602158D01*
X246540Y602155D01*
X246733Y602141D01*
X246924Y602125D01*
X246932Y602126D01*
X246941Y602126D01*
X247134Y602150D01*
X247323Y602172D01*
X247332Y602175D01*
X247341Y602176D01*
X247524Y602238D01*
X247706Y602297D01*
X247714Y602302D01*
X247722Y602304D01*
X247888Y602400D01*
X248057Y602495D01*
X248064Y602501D01*
X248071Y602505D01*
X248324Y602720D01*
X250633Y605029D01*
X256257Y605029D01*
X256284Y605031D01*
X256311Y605029D01*
X256485Y605051D01*
X256658Y605069D01*
X256683Y605076D01*
X256710Y605080D01*
X256876Y605135D01*
X257043Y605187D01*
X257066Y605200D01*
X257092Y605208D01*
X257243Y605295D01*
X257397Y605379D01*
X257417Y605396D01*
X257441Y605409D01*
X257694Y605624D01*
X262548Y610478D01*
X262565Y610499D01*
X262586Y610517D01*
X262693Y610654D01*
X262803Y610790D01*
X262816Y610813D01*
X262832Y610835D01*
X262910Y610992D01*
X262992Y611146D01*
X263000Y611171D01*
X263012Y611195D01*
X263057Y611365D01*
X263107Y611531D01*
X263109Y611558D01*
X263116Y611584D01*
X263143Y611915D01*
X263143Y613520D01*
X263141Y613546D01*
X263143Y613573D01*
X263121Y613747D01*
X263103Y613920D01*
X263096Y613946D01*
X263092Y613972D01*
X263037Y614138D01*
X262985Y614305D01*
X262972Y614329D01*
X262964Y614354D01*
X262877Y614506D01*
X262793Y614659D01*
X262776Y614680D01*
X262763Y614703D01*
X262548Y614956D01*
X258571Y618933D01*
X258571Y625667D01*
X263333Y630429D01*
X270067Y630429D01*
X272376Y628120D01*
X272383Y628114D01*
X272388Y628108D01*
X272538Y627987D01*
X272687Y627865D01*
X272695Y627861D01*
X272702Y627855D01*
X272872Y627767D01*
X273043Y627676D01*
X273052Y627674D01*
X273059Y627670D01*
X273244Y627617D01*
X273429Y627562D01*
X273438Y627561D01*
X273446Y627558D01*
X273637Y627543D01*
X273830Y627525D01*
X273839Y627526D01*
X273848Y627525D01*
X274037Y627548D01*
X274230Y627569D01*
X274239Y627571D01*
X274247Y627572D01*
X274429Y627632D01*
X274614Y627690D01*
X274622Y627694D01*
X274630Y627697D01*
X274799Y627792D01*
X274966Y627885D01*
X274973Y627891D01*
X274981Y627895D01*
X275127Y628021D01*
X275273Y628145D01*
X275279Y628152D01*
X275286Y628158D01*
X275403Y628310D01*
X275523Y628461D01*
X275527Y628469D01*
X275532Y628476D01*
X275618Y628648D01*
X275705Y628820D01*
X275708Y628829D01*
X275712Y628837D01*
X275762Y629023D01*
X275813Y629208D01*
X275814Y629217D01*
X275816Y629226D01*
X275843Y629556D01*
X275843Y646794D01*
X275842Y646802D01*
X275843Y646811D01*
X275822Y647003D01*
X275803Y647194D01*
X275801Y647203D01*
X275800Y647212D01*
X275742Y647394D01*
X275685Y647579D01*
X275681Y647587D01*
X275678Y647596D01*
X275585Y647764D01*
X275493Y647933D01*
X275488Y647940D01*
X275483Y647948D01*
X275359Y648095D01*
X275236Y648242D01*
X275229Y648248D01*
X275223Y648255D01*
X275072Y648374D01*
X274922Y648495D01*
X274914Y648499D01*
X274907Y648504D01*
X274734Y648592D01*
X274565Y648680D01*
X274556Y648683D01*
X274548Y648687D01*
X274362Y648739D01*
X274178Y648792D01*
X274169Y648792D01*
X274160Y648795D01*
X273967Y648809D01*
X273776Y648825D01*
X273768Y648824D01*
X273759Y648824D01*
X273566Y648800D01*
X273377Y648778D01*
X273368Y648775D01*
X273359Y648774D01*
X273176Y648712D01*
X272994Y648653D01*
X272986Y648648D01*
X272978Y648646D01*
X272812Y648550D01*
X272643Y648455D01*
X272636Y648449D01*
X272629Y648445D01*
X272376Y648230D01*
X270067Y645921D01*
X263333Y645921D01*
X258571Y650683D01*
X258571Y657417D01*
X263333Y662179D01*
X270067Y662179D01*
X272376Y659870D01*
X272383Y659864D01*
X272388Y659858D01*
X272538Y659737D01*
X272687Y659615D01*
X272695Y659611D01*
X272702Y659605D01*
X272872Y659517D01*
X273043Y659426D01*
X273052Y659424D01*
X273059Y659420D01*
X273244Y659367D01*
X273429Y659312D01*
X273438Y659311D01*
X273446Y659308D01*
X273637Y659293D01*
X273830Y659275D01*
X273839Y659276D01*
X273848Y659275D01*
X274037Y659298D01*
X274230Y659319D01*
X274239Y659321D01*
X274247Y659322D01*
X274429Y659382D01*
X274614Y659440D01*
X274622Y659444D01*
X274630Y659447D01*
X274799Y659542D01*
X274966Y659635D01*
X274973Y659641D01*
X274981Y659645D01*
X275127Y659771D01*
X275273Y659895D01*
X275279Y659902D01*
X275286Y659908D01*
X275403Y660060D01*
X275523Y660211D01*
X275527Y660219D01*
X275532Y660226D01*
X275618Y660398D01*
X275705Y660570D01*
X275708Y660579D01*
X275712Y660587D01*
X275762Y660773D01*
X275813Y660958D01*
X275814Y660967D01*
X275816Y660976D01*
X275843Y661306D01*
X275843Y748394D01*
X275842Y748402D01*
X275843Y748411D01*
X275822Y748603D01*
X275803Y748794D01*
X275801Y748803D01*
X275800Y748812D01*
X275742Y748993D01*
X275685Y749179D01*
X275681Y749187D01*
X275678Y749196D01*
X275585Y749364D01*
X275493Y749533D01*
X275488Y749540D01*
X275483Y749548D01*
X275360Y749694D01*
X275236Y749842D01*
X275229Y749848D01*
X275223Y749855D01*
X275072Y749974D01*
X274922Y750095D01*
X274914Y750099D01*
X274907Y750104D01*
X274734Y750192D01*
X274565Y750280D01*
X274556Y750283D01*
X274548Y750287D01*
X274362Y750339D01*
X274178Y750392D01*
X274169Y750392D01*
X274160Y750395D01*
X273967Y750409D01*
X273776Y750425D01*
X273768Y750424D01*
X273759Y750424D01*
X273566Y750400D01*
X273377Y750378D01*
X273368Y750375D01*
X273359Y750374D01*
X273176Y750312D01*
X272994Y750253D01*
X272986Y750248D01*
X272978Y750246D01*
X272812Y750150D01*
X272643Y750055D01*
X272636Y750049D01*
X272629Y750045D01*
X272376Y749830D01*
X270067Y747521D01*
X263333Y747521D01*
X260372Y750482D01*
X260351Y750499D01*
X260334Y750520D01*
X260196Y750627D01*
X260060Y750737D01*
X260037Y750750D01*
X260016Y750766D01*
X259859Y750844D01*
X259705Y750926D01*
X259679Y750934D01*
X259655Y750946D01*
X259486Y750991D01*
X259319Y751041D01*
X259292Y751043D01*
X259266Y751050D01*
X258936Y751077D01*
X228907Y751077D01*
X228880Y751075D01*
X228853Y751077D01*
X228679Y751055D01*
X228506Y751037D01*
X228481Y751030D01*
X228454Y751026D01*
X228288Y750970D01*
X228121Y750919D01*
X228098Y750906D01*
X228072Y750898D01*
X227921Y750811D01*
X227767Y750727D01*
X227747Y750710D01*
X227723Y750697D01*
X227470Y750482D01*
X226225Y749237D01*
X223445Y748085D01*
X208355Y748085D01*
X205236Y749377D01*
X205186Y749404D01*
X205168Y749409D01*
X205150Y749418D01*
X204975Y749467D01*
X204801Y749519D01*
X204781Y749521D01*
X204763Y749526D01*
X204580Y749539D01*
X204400Y749556D01*
X204381Y749554D01*
X204361Y749555D01*
X204179Y749533D01*
X203999Y749513D01*
X203981Y749508D01*
X203962Y749505D01*
X203789Y749447D01*
X203615Y749392D01*
X203598Y749383D01*
X203580Y749377D01*
X203422Y749286D01*
X203263Y749198D01*
X203248Y749186D01*
X203231Y749176D01*
X202978Y748961D01*
X195668Y741651D01*
X195651Y741630D01*
X195630Y741613D01*
X195523Y741475D01*
X195413Y741339D01*
X195400Y741316D01*
X195384Y741295D01*
X195306Y741138D01*
X195224Y740984D01*
X195216Y740958D01*
X195204Y740934D01*
X195159Y740765D01*
X195109Y740598D01*
X195107Y740571D01*
X195100Y740545D01*
X195073Y740215D01*
X195073Y549332D01*
X195076Y549301D01*
X195074Y549269D01*
X195096Y549100D01*
X195113Y548931D01*
X195122Y548901D01*
X195126Y548870D01*
X195227Y548554D01*
X195807Y547156D01*
X195807Y545044D01*
X195227Y543646D01*
X195218Y543616D01*
X195204Y543588D01*
X195160Y543423D01*
X195111Y543260D01*
X195108Y543229D01*
X195100Y543199D01*
X195073Y542868D01*
X195073Y387604D01*
X195075Y387586D01*
X195073Y387568D01*
X195094Y387386D01*
X195113Y387203D01*
X195118Y387186D01*
X195120Y387169D01*
X195177Y386994D01*
X195231Y386818D01*
X195239Y386803D01*
X195245Y386786D01*
X195335Y386626D01*
X195423Y386464D01*
X195434Y386451D01*
X195443Y386435D01*
X195563Y386296D01*
X195680Y386155D01*
X195694Y386144D01*
X195706Y386130D01*
X195851Y386018D01*
X195994Y385903D01*
X196010Y385895D01*
X196024Y385884D01*
X196189Y385802D01*
X196351Y385717D01*
X196368Y385712D01*
X196384Y385704D01*
X196563Y385657D01*
X196738Y385606D01*
X196756Y385604D01*
X196773Y385600D01*
X197104Y385573D01*
X201532Y385573D01*
X201558Y385575D01*
X201585Y385573D01*
X201759Y385595D01*
X201932Y385613D01*
X201958Y385620D01*
X201984Y385624D01*
X202150Y385679D01*
X202317Y385731D01*
X202341Y385744D01*
X202366Y385752D01*
X202518Y385839D01*
X202671Y385923D01*
X202692Y385940D01*
X202715Y385953D01*
X202968Y386168D01*
X204691Y387891D01*
X205271Y388131D01*
X207679Y389129D01*
X224121Y389129D01*
X227109Y387891D01*
X229449Y385551D01*
X229500Y385456D01*
X229514Y385439D01*
X229525Y385419D01*
X229642Y385284D01*
X229756Y385145D01*
X229774Y385131D01*
X229788Y385114D01*
X229930Y385005D01*
X230069Y384892D01*
X230089Y384881D01*
X230106Y384868D01*
X230267Y384788D01*
X230426Y384705D01*
X230447Y384698D01*
X230467Y384688D01*
X230641Y384642D01*
X230812Y384592D01*
X230834Y384590D01*
X230856Y384584D01*
X231186Y384557D01*
X257920Y384557D01*
X257946Y384559D01*
G37*
%LPC*%
G36*
X131479Y245871D02*
X131479Y245871D01*
X128491Y247109D01*
X126205Y249395D01*
X126098Y249653D01*
X126083Y249681D01*
X126073Y249711D01*
X125988Y249858D01*
X125908Y250008D01*
X125888Y250032D01*
X125872Y250059D01*
X125658Y250312D01*
X110743Y265227D01*
X110743Y322944D01*
X110742Y322952D01*
X110743Y322961D01*
X110723Y323151D01*
X110703Y323344D01*
X110701Y323353D01*
X110700Y323362D01*
X110642Y323544D01*
X110585Y323729D01*
X110581Y323737D01*
X110578Y323746D01*
X110485Y323914D01*
X110393Y324083D01*
X110388Y324090D01*
X110383Y324098D01*
X110259Y324245D01*
X110136Y324392D01*
X110129Y324398D01*
X110123Y324405D01*
X109972Y324524D01*
X109822Y324645D01*
X109814Y324649D01*
X109807Y324654D01*
X109634Y324742D01*
X109465Y324830D01*
X109456Y324833D01*
X109448Y324837D01*
X109262Y324889D01*
X109078Y324942D01*
X109069Y324942D01*
X109060Y324945D01*
X108867Y324959D01*
X108676Y324975D01*
X108668Y324974D01*
X108659Y324974D01*
X108466Y324950D01*
X108277Y324928D01*
X108268Y324925D01*
X108259Y324924D01*
X108076Y324862D01*
X107894Y324803D01*
X107886Y324798D01*
X107878Y324796D01*
X107712Y324700D01*
X107543Y324605D01*
X107536Y324599D01*
X107529Y324595D01*
X107276Y324380D01*
X104967Y322071D01*
X98233Y322071D01*
X93471Y326833D01*
X93471Y332457D01*
X93469Y332484D01*
X93471Y332511D01*
X93449Y332685D01*
X93431Y332858D01*
X93424Y332883D01*
X93420Y332910D01*
X93365Y333076D01*
X93313Y333243D01*
X93300Y333266D01*
X93292Y333292D01*
X93205Y333443D01*
X93121Y333597D01*
X93104Y333617D01*
X93091Y333641D01*
X92876Y333894D01*
X85343Y341427D01*
X85343Y363423D01*
X91324Y369404D01*
X91329Y369411D01*
X91336Y369416D01*
X91457Y369566D01*
X91579Y369715D01*
X91583Y369723D01*
X91589Y369730D01*
X91677Y369900D01*
X91767Y370071D01*
X91770Y370080D01*
X91774Y370087D01*
X91827Y370272D01*
X91882Y370457D01*
X91883Y370466D01*
X91885Y370474D01*
X91901Y370666D01*
X91919Y370858D01*
X91918Y370867D01*
X91918Y370876D01*
X91896Y371065D01*
X91875Y371258D01*
X91872Y371267D01*
X91871Y371275D01*
X91812Y371457D01*
X91754Y371642D01*
X91749Y371650D01*
X91747Y371658D01*
X91652Y371827D01*
X91559Y371994D01*
X91553Y372001D01*
X91549Y372009D01*
X91423Y372155D01*
X91298Y372301D01*
X91291Y372307D01*
X91286Y372314D01*
X91134Y372431D01*
X90982Y372551D01*
X90974Y372555D01*
X90967Y372560D01*
X90795Y372646D01*
X90624Y372733D01*
X90615Y372736D01*
X90607Y372740D01*
X90420Y372790D01*
X90236Y372841D01*
X90227Y372842D01*
X90218Y372844D01*
X89887Y372871D01*
X85533Y372871D01*
X83224Y375180D01*
X83217Y375186D01*
X83212Y375192D01*
X83062Y375313D01*
X82913Y375435D01*
X82905Y375439D01*
X82898Y375445D01*
X82728Y375533D01*
X82557Y375624D01*
X82548Y375626D01*
X82541Y375630D01*
X82356Y375683D01*
X82171Y375738D01*
X82162Y375739D01*
X82154Y375742D01*
X81963Y375757D01*
X81770Y375775D01*
X81761Y375774D01*
X81752Y375775D01*
X81563Y375752D01*
X81370Y375731D01*
X81361Y375729D01*
X81353Y375728D01*
X81171Y375668D01*
X80986Y375610D01*
X80978Y375606D01*
X80970Y375603D01*
X80801Y375508D01*
X80634Y375415D01*
X80627Y375409D01*
X80619Y375405D01*
X80473Y375279D01*
X80327Y375155D01*
X80321Y375148D01*
X80314Y375142D01*
X80197Y374990D01*
X80077Y374839D01*
X80073Y374831D01*
X80068Y374824D01*
X79982Y374652D01*
X79895Y374480D01*
X79892Y374471D01*
X79888Y374463D01*
X79838Y374277D01*
X79787Y374092D01*
X79786Y374083D01*
X79784Y374074D01*
X79757Y373744D01*
X79757Y366827D01*
X39573Y326643D01*
X34180Y326643D01*
X34154Y326641D01*
X34127Y326643D01*
X33953Y326621D01*
X33780Y326603D01*
X33754Y326596D01*
X33728Y326592D01*
X33562Y326537D01*
X33395Y326485D01*
X33371Y326472D01*
X33346Y326464D01*
X33194Y326377D01*
X33041Y326293D01*
X33020Y326276D01*
X32997Y326263D01*
X32744Y326048D01*
X28767Y322071D01*
X22033Y322071D01*
X17271Y326833D01*
X17271Y333567D01*
X22033Y338329D01*
X28767Y338329D01*
X32744Y334352D01*
X32765Y334335D01*
X32782Y334314D01*
X32920Y334207D01*
X33056Y334097D01*
X33079Y334084D01*
X33100Y334068D01*
X33257Y333990D01*
X33411Y333908D01*
X33437Y333900D01*
X33461Y333888D01*
X33630Y333843D01*
X33797Y333793D01*
X33824Y333791D01*
X33850Y333784D01*
X34180Y333757D01*
X35785Y333757D01*
X35812Y333759D01*
X35839Y333757D01*
X36013Y333779D01*
X36186Y333797D01*
X36211Y333804D01*
X36238Y333808D01*
X36404Y333863D01*
X36571Y333915D01*
X36594Y333928D01*
X36620Y333936D01*
X36771Y334023D01*
X36925Y334107D01*
X36945Y334124D01*
X36969Y334137D01*
X37222Y334352D01*
X72048Y369178D01*
X72065Y369199D01*
X72086Y369217D01*
X72193Y369354D01*
X72303Y369490D01*
X72316Y369513D01*
X72332Y369535D01*
X72410Y369692D01*
X72492Y369846D01*
X72500Y369871D01*
X72512Y369895D01*
X72557Y370065D01*
X72607Y370231D01*
X72609Y370258D01*
X72616Y370284D01*
X72643Y370615D01*
X72643Y420573D01*
X92876Y440806D01*
X92893Y440827D01*
X92914Y440845D01*
X93021Y440982D01*
X93131Y441118D01*
X93144Y441141D01*
X93160Y441163D01*
X93238Y441320D01*
X93320Y441474D01*
X93328Y441499D01*
X93340Y441523D01*
X93385Y441693D01*
X93435Y441859D01*
X93437Y441886D01*
X93444Y441912D01*
X93471Y442243D01*
X93471Y446757D01*
X93469Y446784D01*
X93471Y446811D01*
X93449Y446985D01*
X93431Y447158D01*
X93424Y447183D01*
X93420Y447210D01*
X93365Y447376D01*
X93313Y447543D01*
X93300Y447566D01*
X93292Y447592D01*
X93205Y447743D01*
X93121Y447897D01*
X93104Y447917D01*
X93091Y447941D01*
X92876Y448194D01*
X85343Y455727D01*
X85343Y461120D01*
X85342Y461128D01*
X85343Y461134D01*
X85341Y461151D01*
X85343Y461173D01*
X85321Y461347D01*
X85303Y461520D01*
X85296Y461546D01*
X85292Y461572D01*
X85237Y461738D01*
X85185Y461905D01*
X85172Y461929D01*
X85164Y461954D01*
X85077Y462106D01*
X84993Y462259D01*
X84976Y462280D01*
X84963Y462303D01*
X84748Y462556D01*
X80771Y466533D01*
X80771Y473267D01*
X85533Y478029D01*
X92267Y478029D01*
X97029Y473267D01*
X97029Y466533D01*
X93052Y462556D01*
X93035Y462535D01*
X93014Y462518D01*
X92907Y462380D01*
X92797Y462244D01*
X92784Y462221D01*
X92768Y462200D01*
X92690Y462043D01*
X92608Y461889D01*
X92600Y461863D01*
X92588Y461839D01*
X92543Y461670D01*
X92493Y461503D01*
X92491Y461476D01*
X92484Y461450D01*
X92457Y461120D01*
X92457Y459515D01*
X92459Y459488D01*
X92457Y459461D01*
X92479Y459287D01*
X92497Y459114D01*
X92504Y459088D01*
X92508Y459062D01*
X92563Y458896D01*
X92615Y458729D01*
X92628Y458706D01*
X92636Y458680D01*
X92723Y458529D01*
X92807Y458375D01*
X92824Y458355D01*
X92837Y458331D01*
X93052Y458078D01*
X97906Y453224D01*
X97927Y453207D01*
X97945Y453186D01*
X98082Y453079D01*
X98218Y452969D01*
X98241Y452956D01*
X98263Y452940D01*
X98420Y452862D01*
X98574Y452780D01*
X98599Y452772D01*
X98623Y452760D01*
X98793Y452715D01*
X98959Y452665D01*
X98986Y452663D01*
X99012Y452656D01*
X99343Y452629D01*
X104967Y452629D01*
X107276Y450320D01*
X107283Y450314D01*
X107288Y450308D01*
X107438Y450187D01*
X107587Y450065D01*
X107595Y450061D01*
X107602Y450055D01*
X107772Y449967D01*
X107943Y449876D01*
X107952Y449874D01*
X107959Y449870D01*
X108144Y449817D01*
X108329Y449762D01*
X108338Y449761D01*
X108346Y449758D01*
X108537Y449743D01*
X108730Y449725D01*
X108739Y449726D01*
X108748Y449725D01*
X108937Y449748D01*
X109130Y449769D01*
X109139Y449771D01*
X109147Y449772D01*
X109329Y449832D01*
X109514Y449890D01*
X109522Y449894D01*
X109530Y449897D01*
X109699Y449992D01*
X109866Y450085D01*
X109873Y450091D01*
X109881Y450095D01*
X110027Y450221D01*
X110173Y450345D01*
X110179Y450352D01*
X110186Y450358D01*
X110303Y450510D01*
X110423Y450661D01*
X110427Y450669D01*
X110432Y450676D01*
X110518Y450848D01*
X110605Y451020D01*
X110608Y451029D01*
X110612Y451037D01*
X110662Y451223D01*
X110713Y451408D01*
X110714Y451417D01*
X110716Y451426D01*
X110743Y451756D01*
X110743Y564244D01*
X110742Y564252D01*
X110743Y564261D01*
X110722Y564453D01*
X110703Y564644D01*
X110701Y564653D01*
X110700Y564662D01*
X110642Y564844D01*
X110585Y565029D01*
X110581Y565037D01*
X110578Y565046D01*
X110485Y565214D01*
X110393Y565383D01*
X110388Y565390D01*
X110383Y565398D01*
X110259Y565545D01*
X110136Y565692D01*
X110129Y565698D01*
X110123Y565705D01*
X109972Y565824D01*
X109822Y565945D01*
X109814Y565949D01*
X109807Y565954D01*
X109634Y566042D01*
X109465Y566130D01*
X109456Y566133D01*
X109448Y566137D01*
X109262Y566189D01*
X109078Y566242D01*
X109069Y566242D01*
X109060Y566245D01*
X108867Y566259D01*
X108676Y566275D01*
X108668Y566274D01*
X108659Y566274D01*
X108466Y566250D01*
X108277Y566228D01*
X108268Y566225D01*
X108259Y566224D01*
X108076Y566162D01*
X107894Y566103D01*
X107886Y566098D01*
X107878Y566096D01*
X107712Y566000D01*
X107543Y565905D01*
X107536Y565899D01*
X107529Y565895D01*
X107276Y565680D01*
X104967Y563371D01*
X99343Y563371D01*
X99316Y563369D01*
X99289Y563371D01*
X99115Y563349D01*
X98942Y563331D01*
X98917Y563324D01*
X98890Y563320D01*
X98724Y563265D01*
X98557Y563213D01*
X98534Y563200D01*
X98508Y563192D01*
X98357Y563105D01*
X98203Y563021D01*
X98183Y563004D01*
X98159Y562991D01*
X97906Y562776D01*
X93052Y557922D01*
X93035Y557901D01*
X93014Y557883D01*
X92907Y557746D01*
X92797Y557610D01*
X92784Y557587D01*
X92768Y557565D01*
X92690Y557408D01*
X92608Y557254D01*
X92600Y557229D01*
X92588Y557205D01*
X92543Y557035D01*
X92493Y556869D01*
X92491Y556842D01*
X92484Y556816D01*
X92457Y556485D01*
X92457Y554880D01*
X92459Y554854D01*
X92457Y554827D01*
X92479Y554653D01*
X92497Y554480D01*
X92504Y554454D01*
X92508Y554428D01*
X92564Y554262D01*
X92615Y554095D01*
X92628Y554071D01*
X92636Y554046D01*
X92723Y553894D01*
X92807Y553741D01*
X92824Y553720D01*
X92837Y553697D01*
X93052Y553444D01*
X97029Y549467D01*
X97029Y542733D01*
X92267Y537971D01*
X85533Y537971D01*
X80771Y542733D01*
X80771Y549467D01*
X84748Y553444D01*
X84765Y553465D01*
X84786Y553482D01*
X84893Y553620D01*
X85003Y553756D01*
X85016Y553779D01*
X85032Y553800D01*
X85110Y553957D01*
X85192Y554111D01*
X85200Y554137D01*
X85212Y554161D01*
X85257Y554330D01*
X85307Y554497D01*
X85309Y554524D01*
X85316Y554550D01*
X85343Y554880D01*
X85343Y560273D01*
X92876Y567806D01*
X92893Y567827D01*
X92914Y567845D01*
X93021Y567982D01*
X93131Y568118D01*
X93144Y568141D01*
X93160Y568163D01*
X93238Y568319D01*
X93320Y568474D01*
X93328Y568499D01*
X93340Y568523D01*
X93385Y568693D01*
X93435Y568859D01*
X93437Y568886D01*
X93444Y568912D01*
X93471Y569243D01*
X93471Y573757D01*
X93469Y573784D01*
X93471Y573811D01*
X93449Y573985D01*
X93431Y574158D01*
X93424Y574183D01*
X93420Y574210D01*
X93365Y574376D01*
X93313Y574543D01*
X93300Y574566D01*
X93292Y574592D01*
X93205Y574743D01*
X93121Y574897D01*
X93104Y574917D01*
X93091Y574941D01*
X92876Y575194D01*
X72643Y595427D01*
X72643Y848895D01*
X72643Y848899D01*
X72643Y848904D01*
X72623Y849098D01*
X72603Y849296D01*
X72602Y849300D01*
X72602Y849304D01*
X72543Y849492D01*
X72485Y849680D01*
X72483Y849684D01*
X72482Y849689D01*
X72386Y849863D01*
X72293Y850034D01*
X72291Y850038D01*
X72288Y850042D01*
X72160Y850195D01*
X72036Y850344D01*
X72032Y850346D01*
X72029Y850350D01*
X71874Y850473D01*
X71722Y850596D01*
X71718Y850598D01*
X71714Y850601D01*
X71536Y850693D01*
X71365Y850782D01*
X71360Y850783D01*
X71356Y850785D01*
X71163Y850840D01*
X70978Y850893D01*
X70973Y850893D01*
X70969Y850895D01*
X70881Y850901D01*
X71039Y850919D01*
X71043Y850921D01*
X71047Y850921D01*
X71233Y850982D01*
X71422Y851042D01*
X71426Y851045D01*
X71430Y851046D01*
X71602Y851143D01*
X71774Y851239D01*
X71777Y851242D01*
X71781Y851244D01*
X71929Y851372D01*
X72079Y851501D01*
X72082Y851504D01*
X72086Y851507D01*
X72206Y851662D01*
X72328Y851818D01*
X72330Y851822D01*
X72332Y851825D01*
X72420Y852001D01*
X72508Y852177D01*
X72510Y852182D01*
X72512Y852186D01*
X72563Y852377D01*
X72615Y852566D01*
X72615Y852570D01*
X72616Y852574D01*
X72643Y852905D01*
X72643Y865073D01*
X75321Y867751D01*
X75322Y867752D01*
X84748Y877178D01*
X87427Y879857D01*
X154883Y879857D01*
X154909Y879859D01*
X154936Y879857D01*
X155110Y879879D01*
X155283Y879897D01*
X155309Y879904D01*
X155336Y879908D01*
X155501Y879964D01*
X155668Y880015D01*
X155692Y880028D01*
X155717Y880036D01*
X155869Y880123D01*
X156022Y880207D01*
X156043Y880224D01*
X156066Y880237D01*
X156319Y880452D01*
X161312Y885445D01*
X168888Y885445D01*
X174245Y880088D01*
X174245Y872512D01*
X168888Y867155D01*
X161312Y867155D01*
X156319Y872148D01*
X156298Y872165D01*
X156281Y872186D01*
X156143Y872293D01*
X156008Y872403D01*
X155984Y872416D01*
X155963Y872432D01*
X155806Y872510D01*
X155652Y872592D01*
X155626Y872600D01*
X155602Y872612D01*
X155433Y872657D01*
X155266Y872707D01*
X155239Y872709D01*
X155214Y872716D01*
X154883Y872743D01*
X91215Y872743D01*
X91188Y872741D01*
X91161Y872743D01*
X90987Y872721D01*
X90814Y872703D01*
X90788Y872696D01*
X90762Y872692D01*
X90596Y872637D01*
X90429Y872585D01*
X90405Y872572D01*
X90380Y872564D01*
X90229Y872477D01*
X90075Y872393D01*
X90055Y872376D01*
X90031Y872363D01*
X89778Y872148D01*
X80352Y862722D01*
X80335Y862701D01*
X80314Y862684D01*
X80207Y862546D01*
X80097Y862410D01*
X80084Y862387D01*
X80068Y862365D01*
X79990Y862208D01*
X79908Y862054D01*
X79900Y862029D01*
X79888Y862005D01*
X79843Y861835D01*
X79793Y861669D01*
X79791Y861642D01*
X79784Y861616D01*
X79757Y861285D01*
X79757Y686706D01*
X79758Y686698D01*
X79757Y686689D01*
X79778Y686497D01*
X79797Y686306D01*
X79799Y686297D01*
X79800Y686288D01*
X79858Y686106D01*
X79915Y685921D01*
X79919Y685913D01*
X79922Y685904D01*
X80015Y685736D01*
X80107Y685567D01*
X80112Y685560D01*
X80117Y685552D01*
X80241Y685405D01*
X80364Y685258D01*
X80371Y685252D01*
X80377Y685245D01*
X80528Y685126D01*
X80678Y685005D01*
X80686Y685001D01*
X80693Y684996D01*
X80866Y684908D01*
X81035Y684820D01*
X81044Y684817D01*
X81052Y684813D01*
X81238Y684761D01*
X81422Y684708D01*
X81431Y684708D01*
X81440Y684705D01*
X81633Y684691D01*
X81824Y684675D01*
X81832Y684676D01*
X81841Y684676D01*
X82034Y684700D01*
X82223Y684722D01*
X82232Y684725D01*
X82241Y684726D01*
X82424Y684788D01*
X82606Y684847D01*
X82614Y684852D01*
X82622Y684854D01*
X82788Y684950D01*
X82957Y685045D01*
X82964Y685051D01*
X82971Y685055D01*
X83224Y685270D01*
X85533Y687579D01*
X92267Y687579D01*
X97029Y682817D01*
X97029Y676083D01*
X92267Y671321D01*
X85533Y671321D01*
X83224Y673630D01*
X83217Y673636D01*
X83212Y673642D01*
X83062Y673763D01*
X82913Y673885D01*
X82905Y673889D01*
X82898Y673895D01*
X82728Y673983D01*
X82557Y674074D01*
X82548Y674076D01*
X82541Y674080D01*
X82356Y674133D01*
X82171Y674188D01*
X82162Y674189D01*
X82154Y674192D01*
X81963Y674207D01*
X81770Y674225D01*
X81761Y674224D01*
X81752Y674225D01*
X81563Y674202D01*
X81370Y674181D01*
X81361Y674179D01*
X81353Y674178D01*
X81171Y674118D01*
X80986Y674060D01*
X80978Y674056D01*
X80970Y674053D01*
X80801Y673958D01*
X80634Y673865D01*
X80627Y673859D01*
X80619Y673855D01*
X80473Y673729D01*
X80327Y673605D01*
X80321Y673598D01*
X80314Y673592D01*
X80197Y673440D01*
X80077Y673289D01*
X80073Y673281D01*
X80068Y673274D01*
X79982Y673101D01*
X79895Y672930D01*
X79892Y672921D01*
X79888Y672913D01*
X79838Y672727D01*
X79787Y672542D01*
X79786Y672533D01*
X79784Y672524D01*
X79757Y672194D01*
X79757Y599215D01*
X79758Y599201D01*
X79757Y599188D01*
X79758Y599176D01*
X79757Y599161D01*
X79779Y598987D01*
X79797Y598814D01*
X79804Y598792D01*
X79804Y598788D01*
X79805Y598785D01*
X79808Y598762D01*
X79863Y598596D01*
X79915Y598429D01*
X79928Y598406D01*
X79936Y598380D01*
X80023Y598229D01*
X80107Y598075D01*
X80124Y598055D01*
X80137Y598031D01*
X80352Y597778D01*
X97906Y580224D01*
X97927Y580207D01*
X97945Y580186D01*
X98082Y580079D01*
X98218Y579969D01*
X98241Y579956D01*
X98263Y579940D01*
X98420Y579862D01*
X98574Y579780D01*
X98599Y579772D01*
X98623Y579760D01*
X98793Y579715D01*
X98959Y579665D01*
X98986Y579663D01*
X99012Y579656D01*
X99343Y579629D01*
X104967Y579629D01*
X107276Y577320D01*
X107283Y577314D01*
X107288Y577308D01*
X107438Y577187D01*
X107587Y577065D01*
X107595Y577061D01*
X107602Y577055D01*
X107772Y576967D01*
X107943Y576876D01*
X107952Y576874D01*
X107959Y576870D01*
X108144Y576817D01*
X108329Y576762D01*
X108338Y576761D01*
X108346Y576758D01*
X108537Y576743D01*
X108730Y576725D01*
X108739Y576726D01*
X108748Y576725D01*
X108937Y576748D01*
X109130Y576769D01*
X109139Y576771D01*
X109147Y576772D01*
X109329Y576832D01*
X109514Y576890D01*
X109522Y576894D01*
X109530Y576897D01*
X109699Y576992D01*
X109866Y577085D01*
X109873Y577091D01*
X109881Y577095D01*
X110027Y577221D01*
X110173Y577345D01*
X110179Y577352D01*
X110186Y577358D01*
X110303Y577510D01*
X110423Y577661D01*
X110427Y577669D01*
X110432Y577676D01*
X110518Y577848D01*
X110605Y578020D01*
X110608Y578029D01*
X110612Y578037D01*
X110662Y578223D01*
X110713Y578408D01*
X110714Y578417D01*
X110716Y578426D01*
X110743Y578756D01*
X110743Y589644D01*
X110742Y589652D01*
X110743Y589661D01*
X110722Y589853D01*
X110703Y590044D01*
X110701Y590053D01*
X110700Y590062D01*
X110642Y590244D01*
X110585Y590429D01*
X110581Y590437D01*
X110578Y590446D01*
X110485Y590614D01*
X110393Y590783D01*
X110388Y590790D01*
X110383Y590798D01*
X110259Y590945D01*
X110136Y591092D01*
X110129Y591098D01*
X110123Y591105D01*
X109972Y591224D01*
X109822Y591345D01*
X109814Y591349D01*
X109807Y591354D01*
X109634Y591442D01*
X109465Y591530D01*
X109456Y591533D01*
X109448Y591537D01*
X109262Y591589D01*
X109078Y591642D01*
X109069Y591642D01*
X109060Y591645D01*
X108867Y591659D01*
X108676Y591675D01*
X108668Y591674D01*
X108659Y591674D01*
X108466Y591650D01*
X108277Y591628D01*
X108268Y591625D01*
X108259Y591624D01*
X108076Y591562D01*
X107894Y591503D01*
X107886Y591498D01*
X107878Y591496D01*
X107712Y591400D01*
X107543Y591305D01*
X107536Y591299D01*
X107529Y591295D01*
X107276Y591080D01*
X104967Y588771D01*
X98233Y588771D01*
X93471Y593533D01*
X93471Y600267D01*
X98233Y605029D01*
X104967Y605029D01*
X107276Y602720D01*
X107283Y602714D01*
X107288Y602708D01*
X107438Y602587D01*
X107587Y602465D01*
X107595Y602461D01*
X107602Y602455D01*
X107772Y602367D01*
X107943Y602276D01*
X107952Y602274D01*
X107959Y602270D01*
X108144Y602217D01*
X108329Y602162D01*
X108338Y602161D01*
X108346Y602158D01*
X108537Y602143D01*
X108730Y602125D01*
X108739Y602126D01*
X108748Y602125D01*
X108937Y602148D01*
X109130Y602169D01*
X109139Y602171D01*
X109147Y602172D01*
X109329Y602232D01*
X109514Y602290D01*
X109522Y602294D01*
X109530Y602297D01*
X109699Y602392D01*
X109866Y602485D01*
X109873Y602491D01*
X109881Y602495D01*
X110027Y602621D01*
X110173Y602745D01*
X110179Y602752D01*
X110186Y602758D01*
X110303Y602910D01*
X110423Y603061D01*
X110427Y603069D01*
X110432Y603076D01*
X110518Y603248D01*
X110605Y603420D01*
X110608Y603429D01*
X110612Y603437D01*
X110662Y603623D01*
X110713Y603808D01*
X110714Y603817D01*
X110716Y603826D01*
X110743Y604156D01*
X110743Y615044D01*
X110742Y615052D01*
X110743Y615061D01*
X110722Y615253D01*
X110703Y615444D01*
X110701Y615453D01*
X110700Y615462D01*
X110642Y615644D01*
X110585Y615829D01*
X110581Y615837D01*
X110578Y615846D01*
X110485Y616014D01*
X110393Y616183D01*
X110388Y616190D01*
X110383Y616198D01*
X110259Y616345D01*
X110136Y616492D01*
X110129Y616498D01*
X110123Y616505D01*
X109972Y616624D01*
X109822Y616745D01*
X109814Y616749D01*
X109807Y616754D01*
X109634Y616842D01*
X109465Y616930D01*
X109456Y616933D01*
X109448Y616937D01*
X109262Y616989D01*
X109078Y617042D01*
X109069Y617042D01*
X109060Y617045D01*
X108867Y617059D01*
X108676Y617075D01*
X108668Y617074D01*
X108659Y617074D01*
X108466Y617050D01*
X108277Y617028D01*
X108268Y617025D01*
X108259Y617024D01*
X108076Y616962D01*
X107894Y616903D01*
X107886Y616898D01*
X107878Y616896D01*
X107712Y616800D01*
X107543Y616705D01*
X107536Y616699D01*
X107529Y616695D01*
X107276Y616480D01*
X104967Y614171D01*
X98233Y614171D01*
X93471Y618933D01*
X93471Y625667D01*
X98233Y630429D01*
X104967Y630429D01*
X107276Y628120D01*
X107283Y628114D01*
X107288Y628108D01*
X107438Y627987D01*
X107587Y627865D01*
X107595Y627861D01*
X107602Y627855D01*
X107772Y627767D01*
X107943Y627676D01*
X107952Y627674D01*
X107959Y627670D01*
X108144Y627617D01*
X108329Y627562D01*
X108338Y627561D01*
X108346Y627558D01*
X108537Y627543D01*
X108730Y627525D01*
X108739Y627526D01*
X108748Y627525D01*
X108937Y627548D01*
X109130Y627569D01*
X109139Y627571D01*
X109147Y627572D01*
X109329Y627632D01*
X109514Y627690D01*
X109522Y627694D01*
X109530Y627697D01*
X109699Y627792D01*
X109866Y627885D01*
X109873Y627891D01*
X109881Y627895D01*
X110027Y628021D01*
X110173Y628145D01*
X110179Y628152D01*
X110186Y628158D01*
X110303Y628310D01*
X110423Y628461D01*
X110427Y628469D01*
X110432Y628476D01*
X110518Y628648D01*
X110605Y628820D01*
X110608Y628829D01*
X110612Y628837D01*
X110662Y629023D01*
X110713Y629208D01*
X110714Y629217D01*
X110716Y629226D01*
X110743Y629556D01*
X110743Y697594D01*
X110742Y697602D01*
X110743Y697611D01*
X110722Y697803D01*
X110703Y697994D01*
X110701Y698003D01*
X110700Y698012D01*
X110642Y698194D01*
X110585Y698379D01*
X110581Y698387D01*
X110578Y698396D01*
X110485Y698564D01*
X110393Y698733D01*
X110388Y698740D01*
X110383Y698748D01*
X110259Y698895D01*
X110136Y699042D01*
X110129Y699048D01*
X110123Y699055D01*
X109972Y699174D01*
X109822Y699295D01*
X109814Y699299D01*
X109807Y699304D01*
X109634Y699392D01*
X109465Y699480D01*
X109456Y699483D01*
X109448Y699487D01*
X109262Y699539D01*
X109078Y699592D01*
X109069Y699592D01*
X109060Y699595D01*
X108867Y699609D01*
X108676Y699625D01*
X108668Y699624D01*
X108659Y699624D01*
X108466Y699600D01*
X108277Y699578D01*
X108268Y699575D01*
X108259Y699574D01*
X108076Y699512D01*
X107894Y699453D01*
X107886Y699448D01*
X107878Y699446D01*
X107712Y699350D01*
X107543Y699255D01*
X107536Y699249D01*
X107529Y699245D01*
X107276Y699030D01*
X104967Y696721D01*
X98233Y696721D01*
X93471Y701483D01*
X93471Y708217D01*
X98233Y712979D01*
X104967Y712979D01*
X107276Y710670D01*
X107283Y710664D01*
X107288Y710658D01*
X107438Y710537D01*
X107587Y710415D01*
X107595Y710411D01*
X107602Y710405D01*
X107772Y710317D01*
X107943Y710226D01*
X107952Y710224D01*
X107959Y710220D01*
X108144Y710167D01*
X108329Y710112D01*
X108338Y710111D01*
X108346Y710108D01*
X108537Y710093D01*
X108730Y710075D01*
X108739Y710076D01*
X108748Y710075D01*
X108937Y710098D01*
X109130Y710119D01*
X109139Y710121D01*
X109147Y710122D01*
X109329Y710182D01*
X109514Y710240D01*
X109522Y710244D01*
X109530Y710247D01*
X109699Y710342D01*
X109866Y710435D01*
X109873Y710441D01*
X109881Y710445D01*
X110027Y710571D01*
X110173Y710695D01*
X110179Y710702D01*
X110186Y710708D01*
X110303Y710860D01*
X110423Y711011D01*
X110427Y711019D01*
X110432Y711026D01*
X110518Y711198D01*
X110605Y711370D01*
X110608Y711379D01*
X110612Y711387D01*
X110662Y711573D01*
X110713Y711758D01*
X110714Y711767D01*
X110716Y711776D01*
X110743Y712106D01*
X110743Y722994D01*
X110742Y723002D01*
X110743Y723011D01*
X110722Y723203D01*
X110703Y723394D01*
X110701Y723403D01*
X110700Y723412D01*
X110642Y723594D01*
X110585Y723779D01*
X110581Y723787D01*
X110578Y723796D01*
X110485Y723964D01*
X110393Y724133D01*
X110388Y724140D01*
X110383Y724148D01*
X110259Y724295D01*
X110136Y724442D01*
X110129Y724448D01*
X110123Y724455D01*
X109972Y724574D01*
X109822Y724695D01*
X109814Y724699D01*
X109807Y724704D01*
X109634Y724792D01*
X109465Y724880D01*
X109456Y724883D01*
X109448Y724887D01*
X109262Y724939D01*
X109078Y724992D01*
X109069Y724992D01*
X109060Y724995D01*
X108867Y725009D01*
X108676Y725025D01*
X108668Y725024D01*
X108659Y725024D01*
X108466Y725000D01*
X108277Y724978D01*
X108268Y724975D01*
X108259Y724974D01*
X108076Y724912D01*
X107894Y724853D01*
X107886Y724848D01*
X107878Y724846D01*
X107712Y724750D01*
X107543Y724655D01*
X107536Y724649D01*
X107529Y724645D01*
X107276Y724430D01*
X104967Y722121D01*
X98233Y722121D01*
X93471Y726883D01*
X93471Y732507D01*
X93469Y732534D01*
X93471Y732561D01*
X93449Y732735D01*
X93431Y732908D01*
X93424Y732934D01*
X93420Y732960D01*
X93364Y733126D01*
X93313Y733293D01*
X93300Y733317D01*
X93292Y733342D01*
X93205Y733493D01*
X93121Y733647D01*
X93104Y733667D01*
X93091Y733691D01*
X92876Y733944D01*
X85343Y741477D01*
X85343Y776173D01*
X88022Y778852D01*
X92876Y783706D01*
X92893Y783727D01*
X92914Y783744D01*
X93021Y783882D01*
X93131Y784018D01*
X93144Y784041D01*
X93160Y784063D01*
X93238Y784219D01*
X93320Y784373D01*
X93328Y784399D01*
X93340Y784423D01*
X93385Y784592D01*
X93435Y784759D01*
X93437Y784786D01*
X93444Y784812D01*
X93471Y785143D01*
X93471Y790767D01*
X98233Y795529D01*
X104967Y795529D01*
X109729Y790767D01*
X109729Y784033D01*
X104967Y779271D01*
X99343Y779271D01*
X99316Y779269D01*
X99289Y779271D01*
X99115Y779249D01*
X98942Y779231D01*
X98916Y779224D01*
X98890Y779220D01*
X98724Y779164D01*
X98557Y779113D01*
X98533Y779100D01*
X98508Y779092D01*
X98357Y779005D01*
X98203Y778921D01*
X98183Y778904D01*
X98159Y778891D01*
X97906Y778676D01*
X93052Y773822D01*
X93035Y773801D01*
X93014Y773783D01*
X92908Y773646D01*
X92797Y773510D01*
X92784Y773486D01*
X92768Y773465D01*
X92690Y773309D01*
X92608Y773154D01*
X92600Y773129D01*
X92588Y773105D01*
X92543Y772936D01*
X92493Y772769D01*
X92491Y772742D01*
X92484Y772716D01*
X92457Y772385D01*
X92457Y762906D01*
X92458Y762898D01*
X92457Y762889D01*
X92478Y762697D01*
X92497Y762506D01*
X92499Y762497D01*
X92500Y762488D01*
X92558Y762306D01*
X92615Y762121D01*
X92619Y762113D01*
X92622Y762104D01*
X92715Y761936D01*
X92807Y761767D01*
X92812Y761760D01*
X92817Y761752D01*
X92942Y761604D01*
X93064Y761458D01*
X93071Y761452D01*
X93077Y761445D01*
X93228Y761326D01*
X93378Y761205D01*
X93386Y761201D01*
X93393Y761196D01*
X93566Y761108D01*
X93735Y761020D01*
X93744Y761017D01*
X93752Y761013D01*
X93938Y760961D01*
X94122Y760908D01*
X94131Y760908D01*
X94140Y760905D01*
X94333Y760891D01*
X94524Y760875D01*
X94532Y760876D01*
X94541Y760876D01*
X94734Y760900D01*
X94923Y760922D01*
X94932Y760925D01*
X94941Y760926D01*
X95124Y760988D01*
X95306Y761047D01*
X95314Y761052D01*
X95322Y761054D01*
X95488Y761150D01*
X95657Y761245D01*
X95664Y761251D01*
X95671Y761255D01*
X95924Y761470D01*
X98233Y763779D01*
X104967Y763779D01*
X108944Y759802D01*
X108965Y759785D01*
X108982Y759764D01*
X109120Y759657D01*
X109256Y759547D01*
X109279Y759534D01*
X109300Y759518D01*
X109457Y759440D01*
X109611Y759358D01*
X109637Y759350D01*
X109661Y759338D01*
X109830Y759293D01*
X109997Y759243D01*
X110024Y759241D01*
X110050Y759234D01*
X110380Y759207D01*
X125677Y759207D01*
X125704Y759209D01*
X125731Y759207D01*
X125904Y759229D01*
X126078Y759247D01*
X126103Y759254D01*
X126130Y759258D01*
X126296Y759313D01*
X126463Y759365D01*
X126486Y759378D01*
X126512Y759386D01*
X126663Y759473D01*
X126817Y759557D01*
X126837Y759574D01*
X126861Y759587D01*
X127114Y759802D01*
X129375Y762063D01*
X132155Y763215D01*
X147245Y763215D01*
X150025Y762063D01*
X152153Y759935D01*
X153305Y757155D01*
X153305Y754145D01*
X152153Y751365D01*
X150025Y749237D01*
X147245Y748085D01*
X132155Y748085D01*
X129375Y749237D01*
X127114Y751498D01*
X127093Y751515D01*
X127075Y751536D01*
X126937Y751643D01*
X126802Y751753D01*
X126778Y751766D01*
X126757Y751782D01*
X126600Y751860D01*
X126446Y751942D01*
X126421Y751950D01*
X126397Y751962D01*
X126227Y752007D01*
X126060Y752057D01*
X126034Y752059D01*
X126008Y752066D01*
X125677Y752093D01*
X119888Y752093D01*
X119870Y752091D01*
X119852Y752093D01*
X119670Y752072D01*
X119487Y752053D01*
X119470Y752048D01*
X119453Y752046D01*
X119278Y751989D01*
X119102Y751935D01*
X119087Y751927D01*
X119070Y751921D01*
X118910Y751831D01*
X118748Y751743D01*
X118735Y751732D01*
X118719Y751723D01*
X118580Y751603D01*
X118439Y751486D01*
X118428Y751472D01*
X118414Y751460D01*
X118302Y751315D01*
X118187Y751172D01*
X118179Y751156D01*
X118168Y751142D01*
X118086Y750977D01*
X118001Y750815D01*
X117996Y750798D01*
X117988Y750782D01*
X117941Y750603D01*
X117890Y750428D01*
X117888Y750410D01*
X117884Y750393D01*
X117857Y750062D01*
X117857Y422521D01*
X117858Y422512D01*
X117857Y422503D01*
X117878Y422312D01*
X117897Y422120D01*
X117899Y422112D01*
X117900Y422103D01*
X117958Y421920D01*
X118015Y421735D01*
X118019Y421727D01*
X118022Y421719D01*
X118115Y421550D01*
X118207Y421381D01*
X118212Y421374D01*
X118217Y421367D01*
X118342Y421218D01*
X118464Y421072D01*
X118471Y421066D01*
X118477Y421060D01*
X118630Y420939D01*
X118778Y420820D01*
X118786Y420816D01*
X118793Y420810D01*
X118966Y420722D01*
X119135Y420634D01*
X119144Y420632D01*
X119152Y420628D01*
X119337Y420576D01*
X119522Y420523D01*
X119531Y420522D01*
X119540Y420520D01*
X119732Y420506D01*
X119924Y420490D01*
X119932Y420491D01*
X119941Y420490D01*
X120133Y420515D01*
X120323Y420537D01*
X120332Y420540D01*
X120341Y420541D01*
X120522Y420602D01*
X120706Y420662D01*
X120714Y420666D01*
X120722Y420669D01*
X120888Y420764D01*
X121057Y420860D01*
X121064Y420865D01*
X121071Y420870D01*
X121324Y421085D01*
X121388Y421149D01*
X125029Y422657D01*
X128971Y422657D01*
X132612Y421149D01*
X135399Y418362D01*
X136907Y414721D01*
X136907Y410779D01*
X135399Y407138D01*
X132612Y404351D01*
X128971Y402843D01*
X125029Y402843D01*
X121388Y404351D01*
X121324Y404415D01*
X121317Y404421D01*
X121312Y404428D01*
X121162Y404548D01*
X121013Y404671D01*
X121005Y404675D01*
X120998Y404680D01*
X120828Y404769D01*
X120657Y404859D01*
X120649Y404862D01*
X120641Y404866D01*
X120455Y404919D01*
X120271Y404974D01*
X120262Y404975D01*
X120254Y404977D01*
X120062Y404993D01*
X119870Y405010D01*
X119861Y405009D01*
X119852Y405010D01*
X119662Y404988D01*
X119470Y404967D01*
X119461Y404964D01*
X119453Y404963D01*
X119270Y404904D01*
X119086Y404845D01*
X119078Y404841D01*
X119070Y404838D01*
X118903Y404744D01*
X118734Y404651D01*
X118727Y404645D01*
X118719Y404640D01*
X118574Y404515D01*
X118427Y404390D01*
X118421Y404383D01*
X118414Y404377D01*
X118297Y404226D01*
X118177Y404074D01*
X118173Y404066D01*
X118168Y404059D01*
X118082Y403887D01*
X117995Y403715D01*
X117992Y403707D01*
X117988Y403699D01*
X117938Y403512D01*
X117887Y403327D01*
X117886Y403319D01*
X117884Y403310D01*
X117857Y402979D01*
X117857Y269015D01*
X117859Y268988D01*
X117857Y268961D01*
X117879Y268787D01*
X117897Y268614D01*
X117904Y268589D01*
X117908Y268562D01*
X117963Y268396D01*
X118015Y268229D01*
X118028Y268205D01*
X118036Y268180D01*
X118123Y268029D01*
X118207Y267875D01*
X118224Y267855D01*
X118237Y267831D01*
X118452Y267578D01*
X125379Y260651D01*
X125393Y260640D01*
X125404Y260626D01*
X125548Y260512D01*
X125690Y260396D01*
X125706Y260388D01*
X125720Y260377D01*
X125884Y260293D01*
X126046Y260207D01*
X126063Y260202D01*
X126079Y260194D01*
X126256Y260145D01*
X126432Y260093D01*
X126450Y260091D01*
X126467Y260086D01*
X126650Y260073D01*
X126833Y260056D01*
X126851Y260058D01*
X126868Y260057D01*
X127050Y260080D01*
X127233Y260100D01*
X127250Y260105D01*
X127268Y260107D01*
X127441Y260166D01*
X127617Y260221D01*
X127633Y260230D01*
X127650Y260236D01*
X127809Y260328D01*
X127969Y260416D01*
X127983Y260428D01*
X127998Y260437D01*
X128251Y260651D01*
X128491Y260891D01*
X131479Y262129D01*
X147921Y262129D01*
X150909Y260891D01*
X153195Y258605D01*
X154433Y255617D01*
X154433Y252383D01*
X153195Y249395D01*
X150909Y247109D01*
X147921Y245871D01*
X131479Y245871D01*
G37*
%LPD*%
%LPC*%
G36*
X123423Y35813D02*
X123423Y35813D01*
X118363Y40873D01*
X118363Y48027D01*
X121832Y51496D01*
X121849Y51517D01*
X121870Y51535D01*
X121977Y51673D01*
X122087Y51808D01*
X122100Y51832D01*
X122116Y51853D01*
X122194Y52009D01*
X122276Y52164D01*
X122284Y52189D01*
X122296Y52213D01*
X122341Y52383D01*
X122391Y52550D01*
X122393Y52576D01*
X122400Y52602D01*
X122427Y52933D01*
X122427Y61367D01*
X122425Y61394D01*
X122427Y61420D01*
X122405Y61594D01*
X122387Y61768D01*
X122380Y61793D01*
X122376Y61820D01*
X122321Y61986D01*
X122269Y62153D01*
X122256Y62176D01*
X122248Y62202D01*
X122161Y62353D01*
X122077Y62507D01*
X122060Y62527D01*
X122047Y62550D01*
X121832Y62803D01*
X119953Y64682D01*
X119933Y64699D01*
X119915Y64720D01*
X119777Y64827D01*
X119642Y64937D01*
X119618Y64950D01*
X119597Y64966D01*
X119440Y65044D01*
X119286Y65126D01*
X119261Y65134D01*
X119237Y65146D01*
X119067Y65191D01*
X118900Y65241D01*
X118874Y65243D01*
X118848Y65250D01*
X118517Y65277D01*
X47840Y65277D01*
X47814Y65275D01*
X47787Y65277D01*
X47613Y65255D01*
X47439Y65237D01*
X47414Y65230D01*
X47387Y65226D01*
X47222Y65171D01*
X47055Y65119D01*
X47031Y65106D01*
X47006Y65098D01*
X46854Y65011D01*
X46701Y64927D01*
X46680Y64910D01*
X46657Y64897D01*
X46404Y64682D01*
X43496Y61774D01*
X39995Y60324D01*
X36205Y60324D01*
X32704Y61774D01*
X30024Y64454D01*
X28574Y67955D01*
X28574Y71745D01*
X30024Y75246D01*
X32704Y77926D01*
X36205Y79376D01*
X39995Y79376D01*
X43496Y77926D01*
X46404Y75018D01*
X46424Y75001D01*
X46442Y74980D01*
X46580Y74873D01*
X46715Y74763D01*
X46739Y74750D01*
X46760Y74734D01*
X46917Y74656D01*
X47071Y74574D01*
X47096Y74566D01*
X47121Y74554D01*
X47290Y74509D01*
X47457Y74459D01*
X47483Y74457D01*
X47509Y74450D01*
X47840Y74423D01*
X118517Y74423D01*
X118544Y74425D01*
X118570Y74423D01*
X118744Y74445D01*
X118918Y74463D01*
X118943Y74470D01*
X118970Y74474D01*
X119136Y74529D01*
X119303Y74581D01*
X119326Y74594D01*
X119352Y74602D01*
X119503Y74689D01*
X119657Y74773D01*
X119677Y74790D01*
X119700Y74803D01*
X119953Y75018D01*
X121832Y76897D01*
X121849Y76917D01*
X121870Y76935D01*
X121977Y77073D01*
X122087Y77208D01*
X122100Y77232D01*
X122116Y77253D01*
X122194Y77410D01*
X122276Y77564D01*
X122284Y77589D01*
X122296Y77613D01*
X122341Y77783D01*
X122391Y77950D01*
X122393Y77976D01*
X122400Y78002D01*
X122427Y78333D01*
X122427Y178710D01*
X123123Y180390D01*
X159932Y217199D01*
X159949Y217220D01*
X159970Y217237D01*
X160077Y217375D01*
X160187Y217511D01*
X160200Y217534D01*
X160216Y217555D01*
X160294Y217712D01*
X160376Y217866D01*
X160384Y217892D01*
X160396Y217916D01*
X160441Y218085D01*
X160491Y218252D01*
X160493Y218279D01*
X160500Y218305D01*
X160527Y218635D01*
X160527Y223012D01*
X160525Y223030D01*
X160527Y223048D01*
X160506Y223230D01*
X160487Y223413D01*
X160482Y223430D01*
X160480Y223447D01*
X160423Y223622D01*
X160369Y223798D01*
X160361Y223813D01*
X160355Y223830D01*
X160265Y223990D01*
X160177Y224152D01*
X160166Y224165D01*
X160157Y224181D01*
X160037Y224320D01*
X159920Y224461D01*
X159906Y224472D01*
X159894Y224486D01*
X159749Y224598D01*
X159606Y224713D01*
X159590Y224721D01*
X159576Y224732D01*
X159411Y224814D01*
X159249Y224899D01*
X159232Y224904D01*
X159216Y224912D01*
X159037Y224959D01*
X158862Y225010D01*
X158844Y225012D01*
X158827Y225016D01*
X158496Y225043D01*
X154986Y225043D01*
X154964Y225041D01*
X154942Y225043D01*
X154765Y225021D01*
X154586Y225003D01*
X154565Y224997D01*
X154542Y224994D01*
X154373Y224938D01*
X154201Y224885D01*
X154181Y224875D01*
X154160Y224868D01*
X154005Y224779D01*
X153847Y224693D01*
X153830Y224679D01*
X153810Y224668D01*
X153675Y224550D01*
X153538Y224436D01*
X153524Y224418D01*
X153507Y224404D01*
X153398Y224262D01*
X153285Y224122D01*
X153275Y224102D01*
X153261Y224084D01*
X153237Y224038D01*
X150909Y221709D01*
X147921Y220471D01*
X131479Y220471D01*
X128491Y221709D01*
X126151Y224049D01*
X126100Y224144D01*
X126086Y224161D01*
X126075Y224181D01*
X125958Y224316D01*
X125844Y224455D01*
X125826Y224469D01*
X125812Y224486D01*
X125670Y224595D01*
X125531Y224708D01*
X125511Y224719D01*
X125494Y224732D01*
X125333Y224812D01*
X125174Y224895D01*
X125153Y224902D01*
X125133Y224912D01*
X124959Y224958D01*
X124788Y225008D01*
X124766Y225010D01*
X124744Y225016D01*
X124414Y225043D01*
X110380Y225043D01*
X110354Y225041D01*
X110327Y225043D01*
X110153Y225021D01*
X109980Y225003D01*
X109954Y224996D01*
X109928Y224992D01*
X109762Y224937D01*
X109595Y224885D01*
X109571Y224872D01*
X109546Y224864D01*
X109394Y224777D01*
X109241Y224693D01*
X109220Y224676D01*
X109197Y224663D01*
X108944Y224448D01*
X104967Y220471D01*
X98233Y220471D01*
X93471Y225233D01*
X93471Y231967D01*
X98233Y236729D01*
X104967Y236729D01*
X108944Y232752D01*
X108965Y232735D01*
X108982Y232714D01*
X109120Y232607D01*
X109256Y232497D01*
X109279Y232484D01*
X109300Y232468D01*
X109457Y232390D01*
X109611Y232308D01*
X109637Y232300D01*
X109661Y232288D01*
X109830Y232243D01*
X109997Y232193D01*
X110024Y232191D01*
X110050Y232184D01*
X110380Y232157D01*
X124414Y232157D01*
X124436Y232159D01*
X124458Y232157D01*
X124635Y232179D01*
X124814Y232197D01*
X124835Y232203D01*
X124858Y232206D01*
X125027Y232262D01*
X125199Y232315D01*
X125219Y232325D01*
X125240Y232332D01*
X125395Y232421D01*
X125553Y232507D01*
X125570Y232521D01*
X125590Y232532D01*
X125725Y232650D01*
X125862Y232764D01*
X125876Y232782D01*
X125893Y232796D01*
X126002Y232938D01*
X126115Y233078D01*
X126125Y233098D01*
X126139Y233116D01*
X126163Y233162D01*
X128491Y235491D01*
X131479Y236729D01*
X147921Y236729D01*
X150909Y235491D01*
X153249Y233151D01*
X153300Y233056D01*
X153314Y233039D01*
X153325Y233019D01*
X153442Y232884D01*
X153556Y232745D01*
X153574Y232731D01*
X153588Y232714D01*
X153730Y232605D01*
X153869Y232492D01*
X153889Y232481D01*
X153906Y232468D01*
X154067Y232388D01*
X154226Y232305D01*
X154247Y232298D01*
X154267Y232288D01*
X154441Y232242D01*
X154612Y232192D01*
X154634Y232190D01*
X154656Y232184D01*
X154986Y232157D01*
X158496Y232157D01*
X158514Y232159D01*
X158532Y232157D01*
X158714Y232178D01*
X158897Y232197D01*
X158914Y232202D01*
X158931Y232204D01*
X159106Y232261D01*
X159282Y232315D01*
X159297Y232323D01*
X159314Y232329D01*
X159474Y232419D01*
X159636Y232507D01*
X159649Y232518D01*
X159665Y232527D01*
X159804Y232647D01*
X159945Y232764D01*
X159956Y232778D01*
X159970Y232790D01*
X160082Y232935D01*
X160197Y233078D01*
X160205Y233094D01*
X160216Y233108D01*
X160298Y233273D01*
X160383Y233435D01*
X160388Y233452D01*
X160396Y233468D01*
X160443Y233647D01*
X160494Y233822D01*
X160496Y233840D01*
X160500Y233857D01*
X160527Y234188D01*
X160527Y492068D01*
X160524Y492099D01*
X160526Y492131D01*
X160504Y492300D01*
X160487Y492469D01*
X160478Y492499D01*
X160474Y492530D01*
X160373Y492846D01*
X159793Y494244D01*
X159793Y496356D01*
X160373Y497754D01*
X160382Y497784D01*
X160396Y497812D01*
X160440Y497977D01*
X160489Y498140D01*
X160492Y498171D01*
X160500Y498201D01*
X160527Y498532D01*
X160527Y580968D01*
X160527Y580974D01*
X160527Y580978D01*
X160524Y581000D01*
X160526Y581031D01*
X160504Y581200D01*
X160487Y581369D01*
X160478Y581399D01*
X160474Y581430D01*
X160373Y581746D01*
X159793Y583144D01*
X159793Y585256D01*
X160373Y586654D01*
X160382Y586684D01*
X160396Y586712D01*
X160440Y586877D01*
X160489Y587040D01*
X160492Y587071D01*
X160500Y587101D01*
X160527Y587432D01*
X160527Y619068D01*
X160524Y619099D01*
X160526Y619131D01*
X160504Y619300D01*
X160487Y619469D01*
X160478Y619499D01*
X160474Y619530D01*
X160373Y619846D01*
X159793Y621244D01*
X159793Y623356D01*
X160373Y624754D01*
X160382Y624784D01*
X160396Y624812D01*
X160440Y624977D01*
X160489Y625140D01*
X160492Y625171D01*
X160500Y625201D01*
X160527Y625532D01*
X160527Y672846D01*
X160525Y672864D01*
X160527Y672882D01*
X160506Y673064D01*
X160487Y673247D01*
X160482Y673264D01*
X160480Y673281D01*
X160423Y673456D01*
X160369Y673632D01*
X160361Y673647D01*
X160355Y673664D01*
X160265Y673824D01*
X160177Y673986D01*
X160166Y673999D01*
X160157Y674015D01*
X160037Y674154D01*
X159920Y674295D01*
X159906Y674306D01*
X159894Y674320D01*
X159749Y674432D01*
X159606Y674547D01*
X159590Y674555D01*
X159576Y674566D01*
X159411Y674648D01*
X159249Y674733D01*
X159232Y674738D01*
X159216Y674746D01*
X159037Y674793D01*
X158862Y674844D01*
X158844Y674846D01*
X158827Y674850D01*
X158496Y674877D01*
X152707Y674877D01*
X152680Y674875D01*
X152653Y674877D01*
X152479Y674855D01*
X152306Y674837D01*
X152281Y674830D01*
X152254Y674826D01*
X152088Y674770D01*
X151921Y674719D01*
X151898Y674706D01*
X151872Y674698D01*
X151721Y674611D01*
X151567Y674527D01*
X151547Y674510D01*
X151523Y674497D01*
X151270Y674282D01*
X150025Y673037D01*
X147245Y671885D01*
X132155Y671885D01*
X129375Y673037D01*
X127247Y675165D01*
X126095Y677945D01*
X126095Y680955D01*
X127247Y683735D01*
X129375Y685863D01*
X131456Y686725D01*
X132155Y687015D01*
X147245Y687015D01*
X150025Y685863D01*
X151270Y684618D01*
X151291Y684601D01*
X151309Y684580D01*
X151447Y684473D01*
X151582Y684363D01*
X151606Y684350D01*
X151627Y684334D01*
X151783Y684256D01*
X151938Y684174D01*
X151963Y684166D01*
X151987Y684154D01*
X152156Y684109D01*
X152324Y684059D01*
X152350Y684057D01*
X152376Y684050D01*
X152707Y684023D01*
X158496Y684023D01*
X158514Y684025D01*
X158532Y684023D01*
X158714Y684044D01*
X158897Y684063D01*
X158914Y684068D01*
X158931Y684070D01*
X159106Y684127D01*
X159282Y684181D01*
X159297Y684189D01*
X159314Y684195D01*
X159474Y684285D01*
X159636Y684373D01*
X159649Y684384D01*
X159665Y684393D01*
X159804Y684513D01*
X159945Y684630D01*
X159956Y684644D01*
X159970Y684656D01*
X160082Y684801D01*
X160197Y684944D01*
X160205Y684960D01*
X160216Y684974D01*
X160298Y685139D01*
X160383Y685301D01*
X160388Y685318D01*
X160396Y685334D01*
X160443Y685513D01*
X160494Y685688D01*
X160496Y685706D01*
X160500Y685723D01*
X160527Y686054D01*
X160527Y743860D01*
X161223Y745540D01*
X217082Y801399D01*
X217099Y801420D01*
X217120Y801437D01*
X217227Y801575D01*
X217337Y801711D01*
X217350Y801734D01*
X217366Y801755D01*
X217444Y801912D01*
X217526Y802066D01*
X217534Y802092D01*
X217546Y802116D01*
X217591Y802285D01*
X217641Y802452D01*
X217643Y802479D01*
X217650Y802505D01*
X217677Y802835D01*
X217677Y860865D01*
X217675Y860891D01*
X217677Y860918D01*
X217655Y861092D01*
X217637Y861265D01*
X217630Y861291D01*
X217626Y861317D01*
X217571Y861483D01*
X217519Y861650D01*
X217506Y861674D01*
X217498Y861699D01*
X217411Y861851D01*
X217327Y862004D01*
X217310Y862025D01*
X217297Y862048D01*
X217082Y862301D01*
X208251Y871132D01*
X208230Y871149D01*
X208213Y871170D01*
X208075Y871277D01*
X207939Y871387D01*
X207916Y871400D01*
X207895Y871416D01*
X207738Y871494D01*
X207584Y871576D01*
X207558Y871584D01*
X207534Y871596D01*
X207365Y871641D01*
X207198Y871691D01*
X207171Y871693D01*
X207145Y871700D01*
X206815Y871727D01*
X199701Y871727D01*
X199675Y871725D01*
X199648Y871727D01*
X199474Y871705D01*
X199301Y871687D01*
X199275Y871680D01*
X199248Y871676D01*
X199083Y871620D01*
X198916Y871569D01*
X198892Y871556D01*
X198867Y871548D01*
X198715Y871461D01*
X198562Y871377D01*
X198541Y871360D01*
X198518Y871347D01*
X198265Y871132D01*
X194288Y867155D01*
X186712Y867155D01*
X181355Y872512D01*
X181355Y880088D01*
X186712Y885445D01*
X194288Y885445D01*
X198265Y881468D01*
X198286Y881451D01*
X198303Y881430D01*
X198441Y881323D01*
X198576Y881213D01*
X198600Y881200D01*
X198621Y881184D01*
X198778Y881106D01*
X198932Y881024D01*
X198958Y881016D01*
X198982Y881004D01*
X199151Y880959D01*
X199318Y880909D01*
X199345Y880907D01*
X199370Y880900D01*
X199701Y880873D01*
X210460Y880873D01*
X212140Y880177D01*
X213712Y878605D01*
X224555Y867762D01*
X226127Y866190D01*
X226823Y864510D01*
X226823Y799190D01*
X226127Y797510D01*
X170268Y741651D01*
X170251Y741630D01*
X170230Y741613D01*
X170123Y741475D01*
X170013Y741339D01*
X170000Y741316D01*
X169984Y741295D01*
X169906Y741138D01*
X169824Y740984D01*
X169816Y740958D01*
X169804Y740934D01*
X169759Y740765D01*
X169709Y740598D01*
X169707Y740571D01*
X169700Y740545D01*
X169673Y740215D01*
X169673Y625532D01*
X169676Y625501D01*
X169674Y625469D01*
X169696Y625300D01*
X169713Y625131D01*
X169722Y625101D01*
X169726Y625070D01*
X169827Y624754D01*
X170407Y623356D01*
X170407Y621244D01*
X169827Y619846D01*
X169818Y619816D01*
X169804Y619788D01*
X169760Y619623D01*
X169711Y619460D01*
X169708Y619429D01*
X169700Y619399D01*
X169673Y619068D01*
X169673Y587432D01*
X169676Y587401D01*
X169674Y587369D01*
X169696Y587200D01*
X169713Y587031D01*
X169722Y587001D01*
X169726Y586970D01*
X169827Y586654D01*
X170407Y585256D01*
X170407Y583144D01*
X169827Y581746D01*
X169818Y581716D01*
X169804Y581688D01*
X169760Y581523D01*
X169711Y581360D01*
X169708Y581329D01*
X169700Y581299D01*
X169673Y580968D01*
X169673Y498532D01*
X169676Y498501D01*
X169674Y498469D01*
X169696Y498300D01*
X169713Y498131D01*
X169722Y498101D01*
X169726Y498070D01*
X169827Y497754D01*
X170407Y496356D01*
X170407Y494244D01*
X169827Y492846D01*
X169818Y492816D01*
X169804Y492788D01*
X169760Y492623D01*
X169711Y492460D01*
X169708Y492429D01*
X169700Y492399D01*
X169673Y492068D01*
X169673Y214990D01*
X168977Y213310D01*
X132168Y176501D01*
X132151Y176480D01*
X132130Y176463D01*
X132023Y176325D01*
X131913Y176189D01*
X131900Y176166D01*
X131884Y176145D01*
X131806Y175988D01*
X131724Y175834D01*
X131716Y175808D01*
X131704Y175784D01*
X131659Y175615D01*
X131609Y175448D01*
X131607Y175421D01*
X131600Y175395D01*
X131573Y175065D01*
X131573Y78333D01*
X131575Y78306D01*
X131573Y78280D01*
X131595Y78106D01*
X131613Y77932D01*
X131620Y77907D01*
X131624Y77880D01*
X131679Y77714D01*
X131731Y77547D01*
X131744Y77524D01*
X131752Y77498D01*
X131839Y77347D01*
X131923Y77193D01*
X131940Y77173D01*
X131953Y77150D01*
X132168Y76897D01*
X135637Y73427D01*
X135637Y66273D01*
X132168Y62803D01*
X132151Y62783D01*
X132130Y62765D01*
X132023Y62627D01*
X131913Y62492D01*
X131900Y62468D01*
X131884Y62447D01*
X131806Y62290D01*
X131724Y62136D01*
X131716Y62111D01*
X131704Y62087D01*
X131659Y61917D01*
X131609Y61750D01*
X131607Y61724D01*
X131600Y61698D01*
X131573Y61367D01*
X131573Y52933D01*
X131575Y52906D01*
X131573Y52879D01*
X131595Y52706D01*
X131613Y52532D01*
X131620Y52507D01*
X131624Y52480D01*
X131680Y52314D01*
X131731Y52147D01*
X131744Y52124D01*
X131752Y52098D01*
X131839Y51947D01*
X131923Y51793D01*
X131940Y51773D01*
X131953Y51749D01*
X132168Y51496D01*
X135637Y48027D01*
X135637Y40873D01*
X130577Y35813D01*
X123423Y35813D01*
G37*
%LPD*%
%LPC*%
G36*
X22033Y347471D02*
X22033Y347471D01*
X17271Y352233D01*
X17271Y358967D01*
X22033Y363729D01*
X28767Y363729D01*
X32744Y359752D01*
X32765Y359735D01*
X32782Y359714D01*
X32920Y359607D01*
X33056Y359497D01*
X33079Y359484D01*
X33100Y359468D01*
X33257Y359390D01*
X33411Y359308D01*
X33437Y359300D01*
X33461Y359288D01*
X33630Y359243D01*
X33797Y359193D01*
X33824Y359191D01*
X33850Y359184D01*
X34180Y359157D01*
X42135Y359157D01*
X42162Y359159D01*
X42189Y359157D01*
X42363Y359179D01*
X42536Y359197D01*
X42561Y359204D01*
X42588Y359208D01*
X42754Y359263D01*
X42921Y359315D01*
X42944Y359328D01*
X42970Y359336D01*
X43121Y359423D01*
X43275Y359507D01*
X43295Y359524D01*
X43319Y359537D01*
X43572Y359752D01*
X59348Y375528D01*
X59365Y375549D01*
X59386Y375567D01*
X59493Y375704D01*
X59603Y375840D01*
X59616Y375863D01*
X59632Y375885D01*
X59710Y376042D01*
X59792Y376196D01*
X59800Y376221D01*
X59812Y376245D01*
X59857Y376415D01*
X59907Y376581D01*
X59909Y376608D01*
X59916Y376634D01*
X59943Y376965D01*
X59943Y702845D01*
X59943Y702849D01*
X59943Y702854D01*
X59923Y703048D01*
X59903Y703246D01*
X59902Y703250D01*
X59902Y703254D01*
X59843Y703442D01*
X59785Y703630D01*
X59783Y703634D01*
X59782Y703639D01*
X59686Y703813D01*
X59593Y703984D01*
X59591Y703988D01*
X59588Y703992D01*
X59460Y704145D01*
X59336Y704294D01*
X59332Y704296D01*
X59329Y704300D01*
X59174Y704423D01*
X59022Y704546D01*
X59018Y704548D01*
X59014Y704551D01*
X58836Y704643D01*
X58665Y704732D01*
X58660Y704733D01*
X58656Y704735D01*
X58463Y704790D01*
X58278Y704843D01*
X58273Y704843D01*
X58269Y704845D01*
X58073Y704860D01*
X57876Y704876D01*
X57872Y704875D01*
X57868Y704876D01*
X57674Y704852D01*
X57477Y704829D01*
X57472Y704828D01*
X57468Y704827D01*
X57283Y704766D01*
X57094Y704704D01*
X57090Y704702D01*
X57086Y704700D01*
X56916Y704604D01*
X56743Y704506D01*
X56740Y704503D01*
X56736Y704501D01*
X56589Y704373D01*
X56439Y704243D01*
X56436Y704239D01*
X56432Y704237D01*
X56312Y704080D01*
X56192Y703925D01*
X56190Y703921D01*
X56187Y703917D01*
X56035Y703622D01*
X55299Y701844D01*
X53806Y700351D01*
X51856Y699543D01*
X49744Y699543D01*
X47794Y700351D01*
X46301Y701844D01*
X45493Y703794D01*
X45493Y705906D01*
X46301Y707856D01*
X46648Y708203D01*
X46665Y708224D01*
X46686Y708241D01*
X46793Y708379D01*
X46903Y708515D01*
X46916Y708538D01*
X46932Y708559D01*
X47010Y708716D01*
X47092Y708870D01*
X47100Y708896D01*
X47112Y708920D01*
X47157Y709089D01*
X47207Y709256D01*
X47209Y709283D01*
X47216Y709309D01*
X47243Y709640D01*
X47243Y778620D01*
X47241Y778646D01*
X47243Y778673D01*
X47221Y778847D01*
X47203Y779020D01*
X47196Y779046D01*
X47192Y779072D01*
X47136Y779238D01*
X47085Y779405D01*
X47073Y779429D01*
X47064Y779454D01*
X46977Y779606D01*
X46893Y779759D01*
X46876Y779780D01*
X46863Y779803D01*
X46648Y780056D01*
X45124Y781580D01*
X45117Y781586D01*
X45112Y781592D01*
X44961Y781714D01*
X44813Y781835D01*
X44805Y781839D01*
X44798Y781845D01*
X44628Y781933D01*
X44457Y782024D01*
X44448Y782026D01*
X44441Y782030D01*
X44256Y782083D01*
X44071Y782138D01*
X44062Y782139D01*
X44054Y782142D01*
X43863Y782157D01*
X43670Y782175D01*
X43661Y782174D01*
X43652Y782175D01*
X43463Y782152D01*
X43270Y782131D01*
X43261Y782129D01*
X43253Y782128D01*
X43071Y782068D01*
X42886Y782010D01*
X42878Y782006D01*
X42870Y782003D01*
X42703Y781909D01*
X42534Y781815D01*
X42527Y781809D01*
X42519Y781805D01*
X42374Y781680D01*
X42227Y781555D01*
X42221Y781548D01*
X42214Y781542D01*
X42098Y781391D01*
X41977Y781239D01*
X41973Y781231D01*
X41968Y781224D01*
X41883Y781053D01*
X41795Y780880D01*
X41792Y780871D01*
X41788Y780863D01*
X41739Y780678D01*
X41687Y780492D01*
X41686Y780483D01*
X41684Y780474D01*
X41657Y780144D01*
X41657Y741477D01*
X38978Y738798D01*
X34124Y733944D01*
X34107Y733923D01*
X34086Y733906D01*
X33979Y733768D01*
X33869Y733632D01*
X33856Y733609D01*
X33840Y733587D01*
X33762Y733431D01*
X33680Y733277D01*
X33672Y733251D01*
X33660Y733227D01*
X33615Y733058D01*
X33565Y732891D01*
X33563Y732864D01*
X33556Y732838D01*
X33529Y732507D01*
X33529Y726883D01*
X29552Y722906D01*
X29535Y722885D01*
X29514Y722868D01*
X29407Y722730D01*
X29297Y722594D01*
X29284Y722571D01*
X29268Y722550D01*
X29190Y722393D01*
X29108Y722239D01*
X29100Y722213D01*
X29088Y722189D01*
X29043Y722020D01*
X28993Y721853D01*
X28991Y721826D01*
X28984Y721800D01*
X28957Y721470D01*
X28957Y713630D01*
X28959Y713604D01*
X28957Y713577D01*
X28979Y713403D01*
X28997Y713230D01*
X29004Y713204D01*
X29008Y713178D01*
X29063Y713012D01*
X29115Y712845D01*
X29128Y712821D01*
X29136Y712796D01*
X29223Y712644D01*
X29307Y712491D01*
X29324Y712470D01*
X29337Y712447D01*
X29552Y712194D01*
X33529Y708217D01*
X33529Y701483D01*
X28767Y696721D01*
X22033Y696721D01*
X17271Y701483D01*
X17271Y708217D01*
X21248Y712194D01*
X21265Y712215D01*
X21286Y712232D01*
X21393Y712370D01*
X21503Y712506D01*
X21516Y712529D01*
X21532Y712550D01*
X21610Y712707D01*
X21692Y712861D01*
X21700Y712887D01*
X21712Y712911D01*
X21757Y713080D01*
X21807Y713247D01*
X21809Y713274D01*
X21816Y713300D01*
X21843Y713630D01*
X21843Y721470D01*
X21841Y721496D01*
X21843Y721523D01*
X21821Y721697D01*
X21803Y721870D01*
X21796Y721896D01*
X21792Y721922D01*
X21737Y722088D01*
X21685Y722255D01*
X21672Y722279D01*
X21664Y722304D01*
X21577Y722456D01*
X21493Y722609D01*
X21476Y722630D01*
X21463Y722653D01*
X21248Y722906D01*
X17271Y726883D01*
X17271Y733617D01*
X22033Y738379D01*
X27657Y738379D01*
X27684Y738381D01*
X27711Y738379D01*
X27885Y738401D01*
X28058Y738419D01*
X28084Y738426D01*
X28110Y738430D01*
X28276Y738486D01*
X28443Y738537D01*
X28467Y738550D01*
X28492Y738558D01*
X28643Y738645D01*
X28797Y738729D01*
X28817Y738746D01*
X28841Y738759D01*
X29094Y738974D01*
X33948Y743828D01*
X33965Y743849D01*
X33986Y743867D01*
X34092Y744004D01*
X34203Y744140D01*
X34216Y744164D01*
X34232Y744185D01*
X34310Y744341D01*
X34392Y744496D01*
X34400Y744521D01*
X34412Y744545D01*
X34457Y744714D01*
X34507Y744881D01*
X34509Y744908D01*
X34516Y744934D01*
X34543Y745265D01*
X34543Y746957D01*
X34542Y746966D01*
X34543Y746975D01*
X34523Y747164D01*
X34503Y747357D01*
X34501Y747366D01*
X34500Y747375D01*
X34442Y747557D01*
X34385Y747742D01*
X34381Y747750D01*
X34378Y747759D01*
X34285Y747927D01*
X34193Y748096D01*
X34188Y748103D01*
X34183Y748111D01*
X34060Y748257D01*
X33936Y748406D01*
X33929Y748411D01*
X33923Y748418D01*
X33772Y748537D01*
X33622Y748658D01*
X33614Y748662D01*
X33607Y748668D01*
X33434Y748755D01*
X33265Y748843D01*
X33256Y748846D01*
X33248Y748850D01*
X33062Y748902D01*
X32878Y748955D01*
X32869Y748956D01*
X32860Y748958D01*
X32667Y748972D01*
X32476Y748988D01*
X32468Y748987D01*
X32459Y748987D01*
X32266Y748963D01*
X32077Y748941D01*
X32068Y748938D01*
X32059Y748937D01*
X31876Y748876D01*
X31694Y748816D01*
X31686Y748812D01*
X31678Y748809D01*
X31512Y748713D01*
X31343Y748618D01*
X31336Y748612D01*
X31329Y748608D01*
X31076Y748393D01*
X29188Y746505D01*
X27431Y746505D01*
X27431Y755650D01*
X27431Y764795D01*
X29188Y764795D01*
X31076Y762907D01*
X31083Y762901D01*
X31088Y762894D01*
X31238Y762774D01*
X31387Y762652D01*
X31395Y762648D01*
X31402Y762642D01*
X31572Y762554D01*
X31743Y762463D01*
X31752Y762461D01*
X31759Y762457D01*
X31944Y762403D01*
X32129Y762348D01*
X32138Y762348D01*
X32146Y762345D01*
X32337Y762329D01*
X32530Y762312D01*
X32539Y762313D01*
X32548Y762312D01*
X32737Y762334D01*
X32930Y762355D01*
X32939Y762358D01*
X32947Y762359D01*
X33129Y762419D01*
X33314Y762477D01*
X33322Y762481D01*
X33330Y762484D01*
X33499Y762579D01*
X33666Y762672D01*
X33673Y762677D01*
X33681Y762682D01*
X33827Y762808D01*
X33973Y762932D01*
X33979Y762939D01*
X33986Y762945D01*
X34103Y763096D01*
X34223Y763248D01*
X34227Y763256D01*
X34232Y763263D01*
X34318Y763435D01*
X34405Y763607D01*
X34408Y763616D01*
X34412Y763624D01*
X34462Y763810D01*
X34513Y763995D01*
X34514Y764004D01*
X34516Y764012D01*
X34543Y764343D01*
X34543Y820710D01*
X34541Y820737D01*
X34543Y820764D01*
X34521Y820938D01*
X34503Y821111D01*
X34496Y821137D01*
X34492Y821163D01*
X34437Y821329D01*
X34385Y821496D01*
X34372Y821520D01*
X34364Y821545D01*
X34277Y821697D01*
X34193Y821850D01*
X34176Y821871D01*
X34163Y821894D01*
X33948Y822147D01*
X33601Y822494D01*
X32793Y824444D01*
X32793Y826556D01*
X33601Y828506D01*
X35094Y829999D01*
X37044Y830807D01*
X39156Y830807D01*
X41106Y829999D01*
X42599Y828506D01*
X43407Y826556D01*
X43407Y824444D01*
X42599Y822494D01*
X42252Y822147D01*
X42235Y822126D01*
X42214Y822109D01*
X42107Y821971D01*
X41997Y821835D01*
X41984Y821812D01*
X41968Y821791D01*
X41890Y821634D01*
X41808Y821480D01*
X41800Y821454D01*
X41788Y821430D01*
X41743Y821261D01*
X41693Y821094D01*
X41691Y821067D01*
X41684Y821041D01*
X41657Y820710D01*
X41657Y794656D01*
X41658Y794648D01*
X41657Y794639D01*
X41678Y794447D01*
X41697Y794256D01*
X41699Y794247D01*
X41700Y794238D01*
X41758Y794056D01*
X41815Y793871D01*
X41819Y793863D01*
X41822Y793854D01*
X41915Y793686D01*
X42007Y793517D01*
X42012Y793510D01*
X42017Y793502D01*
X42141Y793355D01*
X42264Y793208D01*
X42271Y793202D01*
X42277Y793195D01*
X42428Y793076D01*
X42578Y792955D01*
X42586Y792951D01*
X42593Y792946D01*
X42766Y792858D01*
X42935Y792770D01*
X42944Y792767D01*
X42952Y792763D01*
X43138Y792711D01*
X43322Y792658D01*
X43331Y792658D01*
X43340Y792655D01*
X43533Y792641D01*
X43724Y792625D01*
X43732Y792626D01*
X43741Y792626D01*
X43934Y792650D01*
X44123Y792672D01*
X44132Y792675D01*
X44141Y792676D01*
X44324Y792738D01*
X44506Y792797D01*
X44514Y792802D01*
X44522Y792804D01*
X44688Y792900D01*
X44857Y792995D01*
X44864Y793001D01*
X44871Y793005D01*
X45124Y793220D01*
X47433Y795529D01*
X54167Y795529D01*
X56476Y793220D01*
X56483Y793214D01*
X56488Y793208D01*
X56638Y793087D01*
X56787Y792965D01*
X56795Y792961D01*
X56802Y792955D01*
X56972Y792867D01*
X57143Y792776D01*
X57152Y792774D01*
X57159Y792770D01*
X57344Y792717D01*
X57529Y792662D01*
X57538Y792661D01*
X57546Y792658D01*
X57737Y792643D01*
X57930Y792625D01*
X57939Y792626D01*
X57948Y792625D01*
X58137Y792648D01*
X58330Y792669D01*
X58339Y792671D01*
X58347Y792672D01*
X58529Y792732D01*
X58714Y792790D01*
X58722Y792794D01*
X58730Y792797D01*
X58899Y792892D01*
X59066Y792985D01*
X59073Y792991D01*
X59081Y792995D01*
X59227Y793121D01*
X59373Y793245D01*
X59379Y793252D01*
X59386Y793258D01*
X59503Y793410D01*
X59623Y793561D01*
X59627Y793569D01*
X59632Y793576D01*
X59718Y793748D01*
X59805Y793920D01*
X59808Y793929D01*
X59812Y793937D01*
X59862Y794123D01*
X59913Y794308D01*
X59914Y794317D01*
X59916Y794326D01*
X59943Y794656D01*
X59943Y846110D01*
X59941Y846137D01*
X59943Y846164D01*
X59921Y846338D01*
X59903Y846511D01*
X59896Y846537D01*
X59892Y846563D01*
X59837Y846729D01*
X59785Y846896D01*
X59772Y846920D01*
X59764Y846945D01*
X59677Y847097D01*
X59593Y847250D01*
X59576Y847271D01*
X59563Y847294D01*
X59348Y847547D01*
X59001Y847894D01*
X58193Y849844D01*
X58193Y851956D01*
X59001Y853906D01*
X60494Y855399D01*
X62444Y856207D01*
X64556Y856207D01*
X66506Y855399D01*
X67999Y853906D01*
X68735Y852128D01*
X68738Y852124D01*
X68739Y852120D01*
X68832Y851948D01*
X68926Y851773D01*
X68928Y851769D01*
X68931Y851766D01*
X69056Y851615D01*
X69182Y851463D01*
X69185Y851460D01*
X69188Y851456D01*
X69341Y851333D01*
X69495Y851209D01*
X69499Y851207D01*
X69502Y851204D01*
X69675Y851114D01*
X69851Y851022D01*
X69855Y851020D01*
X69859Y851018D01*
X70047Y850964D01*
X70238Y850909D01*
X70242Y850908D01*
X70246Y850907D01*
X70346Y850899D01*
X70177Y850879D01*
X70172Y850878D01*
X70168Y850877D01*
X69983Y850816D01*
X69794Y850754D01*
X69790Y850752D01*
X69786Y850750D01*
X69616Y850654D01*
X69443Y850556D01*
X69440Y850553D01*
X69436Y850551D01*
X69289Y850423D01*
X69139Y850293D01*
X69136Y850289D01*
X69132Y850287D01*
X69012Y850130D01*
X68892Y849975D01*
X68890Y849971D01*
X68887Y849967D01*
X68735Y849672D01*
X67999Y847894D01*
X67652Y847547D01*
X67635Y847526D01*
X67614Y847509D01*
X67507Y847371D01*
X67397Y847235D01*
X67384Y847212D01*
X67368Y847191D01*
X67290Y847034D01*
X67208Y846880D01*
X67200Y846854D01*
X67188Y846830D01*
X67143Y846661D01*
X67093Y846494D01*
X67091Y846467D01*
X67084Y846441D01*
X67057Y846110D01*
X67057Y373177D01*
X45923Y352043D01*
X34180Y352043D01*
X34154Y352041D01*
X34127Y352043D01*
X33953Y352021D01*
X33780Y352003D01*
X33754Y351996D01*
X33728Y351992D01*
X33562Y351937D01*
X33395Y351885D01*
X33371Y351872D01*
X33346Y351864D01*
X33194Y351777D01*
X33041Y351693D01*
X33020Y351676D01*
X32997Y351663D01*
X32744Y351448D01*
X28767Y347471D01*
X22033Y347471D01*
G37*
%LPD*%
%LPC*%
G36*
X174356Y138937D02*
X174356Y138937D01*
X167702Y140720D01*
X161736Y144165D01*
X156865Y149036D01*
X153420Y155002D01*
X151637Y161656D01*
X151637Y168544D01*
X153420Y175198D01*
X156865Y181164D01*
X161736Y186035D01*
X167702Y189480D01*
X174356Y191263D01*
X181244Y191263D01*
X187898Y189480D01*
X193864Y186035D01*
X198735Y181164D01*
X202180Y175198D01*
X203963Y168544D01*
X203963Y161656D01*
X202180Y155002D01*
X198735Y149036D01*
X193864Y144165D01*
X187898Y140720D01*
X181244Y138937D01*
X174356Y138937D01*
G37*
%LPD*%
%LPC*%
G36*
X174356Y913637D02*
X174356Y913637D01*
X167702Y915420D01*
X161736Y918865D01*
X156865Y923736D01*
X153420Y929702D01*
X151637Y936356D01*
X151637Y943244D01*
X153420Y949898D01*
X156865Y955864D01*
X161736Y960735D01*
X167702Y964180D01*
X174356Y965963D01*
X181244Y965963D01*
X187898Y964180D01*
X193864Y960735D01*
X198735Y955864D01*
X202180Y949898D01*
X203963Y943244D01*
X203963Y936356D01*
X202180Y929702D01*
X198735Y923736D01*
X193864Y918865D01*
X187898Y915420D01*
X181244Y913637D01*
X174356Y913637D01*
G37*
%LPD*%
%LPC*%
G36*
X34733Y461771D02*
X34733Y461771D01*
X29971Y466533D01*
X29971Y473267D01*
X34733Y478029D01*
X40357Y478029D01*
X40384Y478031D01*
X40411Y478029D01*
X40585Y478051D01*
X40758Y478069D01*
X40783Y478076D01*
X40810Y478080D01*
X40976Y478135D01*
X41143Y478187D01*
X41166Y478200D01*
X41192Y478208D01*
X41343Y478295D01*
X41497Y478379D01*
X41517Y478396D01*
X41541Y478409D01*
X41794Y478624D01*
X46648Y483478D01*
X46665Y483499D01*
X46686Y483517D01*
X46793Y483654D01*
X46903Y483790D01*
X46916Y483813D01*
X46932Y483835D01*
X47010Y483992D01*
X47092Y484146D01*
X47100Y484171D01*
X47112Y484195D01*
X47157Y484365D01*
X47207Y484531D01*
X47209Y484558D01*
X47216Y484584D01*
X47243Y484915D01*
X47243Y512007D01*
X47242Y512016D01*
X47243Y512025D01*
X47222Y512216D01*
X47203Y512407D01*
X47201Y512416D01*
X47200Y512425D01*
X47142Y512607D01*
X47085Y512792D01*
X47081Y512800D01*
X47078Y512809D01*
X46985Y512977D01*
X46893Y513146D01*
X46888Y513153D01*
X46883Y513161D01*
X46759Y513308D01*
X46636Y513456D01*
X46629Y513461D01*
X46623Y513468D01*
X46472Y513587D01*
X46322Y513708D01*
X46314Y513712D01*
X46307Y513718D01*
X46134Y513805D01*
X45965Y513893D01*
X45956Y513896D01*
X45948Y513900D01*
X45762Y513952D01*
X45578Y514005D01*
X45569Y514006D01*
X45560Y514008D01*
X45367Y514022D01*
X45176Y514038D01*
X45168Y514037D01*
X45159Y514037D01*
X44966Y514013D01*
X44777Y513991D01*
X44768Y513988D01*
X44759Y513987D01*
X44576Y513926D01*
X44394Y513866D01*
X44386Y513862D01*
X44378Y513859D01*
X44212Y513763D01*
X44043Y513668D01*
X44036Y513662D01*
X44029Y513658D01*
X43776Y513443D01*
X41888Y511555D01*
X40131Y511555D01*
X40131Y520700D01*
X40131Y529845D01*
X41888Y529845D01*
X43776Y527957D01*
X43783Y527951D01*
X43788Y527944D01*
X43938Y527824D01*
X44087Y527702D01*
X44095Y527698D01*
X44102Y527692D01*
X44272Y527604D01*
X44443Y527513D01*
X44452Y527511D01*
X44459Y527507D01*
X44644Y527453D01*
X44829Y527398D01*
X44838Y527398D01*
X44846Y527395D01*
X45037Y527379D01*
X45230Y527362D01*
X45239Y527363D01*
X45248Y527362D01*
X45437Y527384D01*
X45630Y527405D01*
X45639Y527408D01*
X45647Y527409D01*
X45829Y527469D01*
X46014Y527527D01*
X46022Y527531D01*
X46030Y527534D01*
X46199Y527629D01*
X46366Y527722D01*
X46373Y527727D01*
X46381Y527732D01*
X46527Y527858D01*
X46673Y527982D01*
X46679Y527989D01*
X46686Y527995D01*
X46803Y528146D01*
X46923Y528298D01*
X46927Y528306D01*
X46932Y528313D01*
X47018Y528485D01*
X47105Y528657D01*
X47108Y528666D01*
X47112Y528674D01*
X47162Y528860D01*
X47213Y529045D01*
X47214Y529054D01*
X47216Y529062D01*
X47243Y529393D01*
X47243Y538844D01*
X47242Y538852D01*
X47243Y538861D01*
X47222Y539053D01*
X47203Y539244D01*
X47201Y539253D01*
X47200Y539262D01*
X47142Y539444D01*
X47085Y539629D01*
X47081Y539637D01*
X47078Y539646D01*
X46985Y539814D01*
X46893Y539983D01*
X46888Y539990D01*
X46883Y539998D01*
X46759Y540145D01*
X46636Y540292D01*
X46629Y540298D01*
X46623Y540305D01*
X46472Y540424D01*
X46322Y540545D01*
X46314Y540549D01*
X46307Y540554D01*
X46134Y540642D01*
X45965Y540730D01*
X45956Y540733D01*
X45948Y540737D01*
X45762Y540789D01*
X45578Y540842D01*
X45569Y540842D01*
X45560Y540845D01*
X45367Y540859D01*
X45176Y540875D01*
X45168Y540874D01*
X45159Y540874D01*
X44966Y540850D01*
X44777Y540828D01*
X44768Y540825D01*
X44759Y540824D01*
X44576Y540762D01*
X44394Y540703D01*
X44386Y540698D01*
X44378Y540696D01*
X44212Y540600D01*
X44043Y540505D01*
X44036Y540499D01*
X44029Y540495D01*
X43776Y540280D01*
X41467Y537971D01*
X34733Y537971D01*
X29971Y542733D01*
X29971Y549467D01*
X34733Y554229D01*
X41467Y554229D01*
X43776Y551920D01*
X43783Y551914D01*
X43788Y551908D01*
X43938Y551787D01*
X44087Y551665D01*
X44095Y551661D01*
X44102Y551655D01*
X44272Y551567D01*
X44443Y551476D01*
X44452Y551474D01*
X44459Y551470D01*
X44644Y551417D01*
X44829Y551362D01*
X44838Y551361D01*
X44846Y551358D01*
X45037Y551343D01*
X45230Y551325D01*
X45239Y551326D01*
X45248Y551325D01*
X45437Y551348D01*
X45630Y551369D01*
X45639Y551371D01*
X45647Y551372D01*
X45829Y551432D01*
X46014Y551490D01*
X46022Y551494D01*
X46030Y551497D01*
X46199Y551592D01*
X46366Y551685D01*
X46373Y551691D01*
X46381Y551695D01*
X46527Y551821D01*
X46673Y551945D01*
X46679Y551952D01*
X46686Y551958D01*
X46803Y552110D01*
X46923Y552261D01*
X46927Y552269D01*
X46932Y552276D01*
X47018Y552448D01*
X47105Y552620D01*
X47108Y552629D01*
X47112Y552637D01*
X47162Y552823D01*
X47213Y553008D01*
X47214Y553017D01*
X47216Y553026D01*
X47243Y553356D01*
X47243Y569185D01*
X47241Y569212D01*
X47243Y569239D01*
X47221Y569413D01*
X47203Y569586D01*
X47196Y569611D01*
X47192Y569638D01*
X47137Y569804D01*
X47085Y569971D01*
X47072Y569994D01*
X47064Y570020D01*
X46977Y570171D01*
X46893Y570325D01*
X46876Y570345D01*
X46863Y570369D01*
X46648Y570622D01*
X29094Y588176D01*
X29073Y588193D01*
X29056Y588214D01*
X28918Y588321D01*
X28782Y588431D01*
X28759Y588444D01*
X28737Y588460D01*
X28581Y588538D01*
X28427Y588620D01*
X28401Y588628D01*
X28377Y588640D01*
X28208Y588685D01*
X28041Y588735D01*
X28014Y588737D01*
X27988Y588744D01*
X27657Y588771D01*
X22033Y588771D01*
X17271Y593533D01*
X17271Y600267D01*
X21248Y604244D01*
X21265Y604265D01*
X21286Y604282D01*
X21393Y604420D01*
X21503Y604556D01*
X21516Y604579D01*
X21532Y604600D01*
X21610Y604757D01*
X21692Y604911D01*
X21700Y604937D01*
X21712Y604961D01*
X21757Y605130D01*
X21807Y605297D01*
X21809Y605324D01*
X21816Y605350D01*
X21843Y605680D01*
X21843Y613520D01*
X21841Y613546D01*
X21843Y613573D01*
X21821Y613747D01*
X21803Y613920D01*
X21796Y613946D01*
X21792Y613972D01*
X21737Y614138D01*
X21685Y614305D01*
X21672Y614329D01*
X21664Y614354D01*
X21577Y614506D01*
X21493Y614659D01*
X21476Y614680D01*
X21463Y614703D01*
X21248Y614956D01*
X17271Y618933D01*
X17271Y625667D01*
X22033Y630429D01*
X28767Y630429D01*
X33529Y625667D01*
X33529Y618933D01*
X29552Y614956D01*
X29535Y614935D01*
X29514Y614918D01*
X29407Y614780D01*
X29297Y614644D01*
X29284Y614621D01*
X29268Y614600D01*
X29190Y614443D01*
X29108Y614289D01*
X29100Y614263D01*
X29088Y614239D01*
X29043Y614070D01*
X28993Y613903D01*
X28991Y613876D01*
X28984Y613850D01*
X28957Y613520D01*
X28957Y605680D01*
X28959Y605654D01*
X28957Y605627D01*
X28979Y605453D01*
X28997Y605280D01*
X29004Y605254D01*
X29008Y605228D01*
X29063Y605062D01*
X29115Y604895D01*
X29128Y604871D01*
X29136Y604846D01*
X29223Y604694D01*
X29307Y604541D01*
X29324Y604520D01*
X29337Y604497D01*
X29552Y604244D01*
X33529Y600267D01*
X33529Y594643D01*
X33531Y594616D01*
X33529Y594589D01*
X33551Y594415D01*
X33569Y594242D01*
X33576Y594216D01*
X33580Y594190D01*
X33636Y594024D01*
X33687Y593857D01*
X33700Y593833D01*
X33708Y593808D01*
X33795Y593657D01*
X33879Y593503D01*
X33896Y593483D01*
X33909Y593459D01*
X34124Y593206D01*
X51678Y575652D01*
X54357Y572973D01*
X54357Y481127D01*
X46824Y473594D01*
X46807Y473573D01*
X46786Y473555D01*
X46679Y473417D01*
X46569Y473282D01*
X46556Y473259D01*
X46540Y473237D01*
X46462Y473080D01*
X46380Y472926D01*
X46372Y472901D01*
X46360Y472877D01*
X46315Y472707D01*
X46265Y472541D01*
X46263Y472514D01*
X46256Y472488D01*
X46229Y472157D01*
X46229Y466533D01*
X41467Y461771D01*
X34733Y461771D01*
G37*
%LPD*%
%LPC*%
G36*
X131479Y271271D02*
X131479Y271271D01*
X128491Y272509D01*
X126205Y274795D01*
X124967Y277783D01*
X124967Y281017D01*
X126205Y284005D01*
X128491Y286291D01*
X129161Y286569D01*
X129162Y286569D01*
X131479Y287529D01*
X134112Y287529D01*
X134130Y287531D01*
X134148Y287529D01*
X134330Y287550D01*
X134513Y287569D01*
X134530Y287574D01*
X134547Y287576D01*
X134722Y287633D01*
X134898Y287687D01*
X134913Y287695D01*
X134930Y287701D01*
X135090Y287791D01*
X135252Y287879D01*
X135265Y287890D01*
X135281Y287899D01*
X135420Y288019D01*
X135561Y288136D01*
X135572Y288150D01*
X135586Y288162D01*
X135698Y288307D01*
X135813Y288450D01*
X135821Y288466D01*
X135832Y288480D01*
X135914Y288645D01*
X135999Y288807D01*
X136004Y288824D01*
X136012Y288840D01*
X136059Y289019D01*
X136110Y289194D01*
X136112Y289212D01*
X136116Y289229D01*
X136143Y289560D01*
X136143Y294640D01*
X136141Y294658D01*
X136143Y294676D01*
X136122Y294858D01*
X136103Y295041D01*
X136098Y295058D01*
X136096Y295075D01*
X136039Y295250D01*
X135985Y295426D01*
X135977Y295441D01*
X135971Y295458D01*
X135881Y295618D01*
X135793Y295780D01*
X135782Y295793D01*
X135773Y295809D01*
X135653Y295948D01*
X135536Y296089D01*
X135522Y296100D01*
X135510Y296114D01*
X135365Y296226D01*
X135222Y296341D01*
X135206Y296349D01*
X135192Y296360D01*
X135027Y296442D01*
X134865Y296527D01*
X134848Y296532D01*
X134832Y296540D01*
X134653Y296587D01*
X134478Y296638D01*
X134460Y296640D01*
X134443Y296644D01*
X134112Y296671D01*
X131479Y296671D01*
X128491Y297909D01*
X126205Y300195D01*
X124967Y303183D01*
X124967Y306417D01*
X126205Y309405D01*
X128491Y311691D01*
X131479Y312929D01*
X147921Y312929D01*
X150909Y311691D01*
X153195Y309405D01*
X154433Y306417D01*
X154433Y303183D01*
X153195Y300195D01*
X150909Y297909D01*
X147921Y296671D01*
X145288Y296671D01*
X145270Y296669D01*
X145252Y296671D01*
X145070Y296650D01*
X144887Y296631D01*
X144870Y296626D01*
X144853Y296624D01*
X144678Y296567D01*
X144502Y296513D01*
X144487Y296505D01*
X144470Y296499D01*
X144310Y296409D01*
X144148Y296321D01*
X144135Y296310D01*
X144119Y296301D01*
X143980Y296181D01*
X143839Y296064D01*
X143828Y296050D01*
X143814Y296038D01*
X143702Y295893D01*
X143587Y295750D01*
X143579Y295734D01*
X143568Y295720D01*
X143486Y295555D01*
X143401Y295393D01*
X143396Y295376D01*
X143388Y295360D01*
X143341Y295181D01*
X143290Y295006D01*
X143288Y294988D01*
X143284Y294971D01*
X143257Y294640D01*
X143257Y289560D01*
X143259Y289542D01*
X143257Y289524D01*
X143278Y289342D01*
X143297Y289159D01*
X143302Y289142D01*
X143304Y289125D01*
X143361Y288950D01*
X143415Y288774D01*
X143423Y288759D01*
X143429Y288742D01*
X143519Y288582D01*
X143607Y288420D01*
X143618Y288407D01*
X143627Y288391D01*
X143747Y288252D01*
X143864Y288111D01*
X143878Y288100D01*
X143890Y288086D01*
X144035Y287974D01*
X144178Y287859D01*
X144194Y287851D01*
X144208Y287840D01*
X144373Y287758D01*
X144535Y287673D01*
X144552Y287668D01*
X144568Y287660D01*
X144747Y287613D01*
X144922Y287562D01*
X144940Y287560D01*
X144957Y287556D01*
X145288Y287529D01*
X147921Y287529D01*
X150909Y286291D01*
X153195Y284005D01*
X154433Y281017D01*
X154433Y277783D01*
X153195Y274795D01*
X150909Y272509D01*
X147921Y271271D01*
X131479Y271271D01*
G37*
%LPD*%
%LPC*%
G36*
X207679Y271271D02*
X207679Y271271D01*
X204691Y272509D01*
X202405Y274795D01*
X201167Y277783D01*
X201167Y281017D01*
X202405Y284005D01*
X204691Y286291D01*
X205361Y286569D01*
X205362Y286569D01*
X207679Y287529D01*
X210312Y287529D01*
X210330Y287531D01*
X210348Y287529D01*
X210530Y287550D01*
X210713Y287569D01*
X210730Y287574D01*
X210747Y287576D01*
X210922Y287633D01*
X211098Y287687D01*
X211113Y287695D01*
X211130Y287701D01*
X211290Y287791D01*
X211452Y287879D01*
X211465Y287890D01*
X211481Y287899D01*
X211620Y288019D01*
X211761Y288136D01*
X211772Y288150D01*
X211786Y288162D01*
X211898Y288307D01*
X212013Y288450D01*
X212021Y288466D01*
X212032Y288480D01*
X212114Y288645D01*
X212199Y288807D01*
X212204Y288824D01*
X212212Y288840D01*
X212259Y289019D01*
X212310Y289194D01*
X212312Y289212D01*
X212316Y289229D01*
X212343Y289560D01*
X212343Y294640D01*
X212341Y294658D01*
X212343Y294676D01*
X212322Y294858D01*
X212303Y295041D01*
X212298Y295058D01*
X212296Y295075D01*
X212239Y295250D01*
X212185Y295426D01*
X212177Y295441D01*
X212171Y295458D01*
X212081Y295618D01*
X211993Y295780D01*
X211982Y295793D01*
X211973Y295809D01*
X211853Y295948D01*
X211736Y296089D01*
X211722Y296100D01*
X211710Y296114D01*
X211565Y296226D01*
X211422Y296341D01*
X211406Y296349D01*
X211392Y296360D01*
X211227Y296442D01*
X211065Y296527D01*
X211048Y296532D01*
X211032Y296540D01*
X210853Y296587D01*
X210678Y296638D01*
X210660Y296640D01*
X210643Y296644D01*
X210312Y296671D01*
X207679Y296671D01*
X204691Y297909D01*
X202405Y300195D01*
X201167Y303183D01*
X201167Y306417D01*
X202405Y309405D01*
X204691Y311691D01*
X207679Y312929D01*
X224121Y312929D01*
X227109Y311691D01*
X229395Y309405D01*
X230633Y306417D01*
X230633Y303183D01*
X229395Y300195D01*
X227109Y297909D01*
X224121Y296671D01*
X221488Y296671D01*
X221470Y296669D01*
X221452Y296671D01*
X221270Y296650D01*
X221087Y296631D01*
X221070Y296626D01*
X221053Y296624D01*
X220878Y296567D01*
X220702Y296513D01*
X220687Y296505D01*
X220670Y296499D01*
X220510Y296409D01*
X220348Y296321D01*
X220335Y296310D01*
X220319Y296301D01*
X220180Y296181D01*
X220039Y296064D01*
X220028Y296050D01*
X220014Y296038D01*
X219902Y295893D01*
X219787Y295750D01*
X219779Y295734D01*
X219768Y295720D01*
X219686Y295555D01*
X219601Y295393D01*
X219596Y295376D01*
X219588Y295360D01*
X219541Y295181D01*
X219490Y295006D01*
X219488Y294988D01*
X219484Y294971D01*
X219457Y294640D01*
X219457Y289560D01*
X219459Y289542D01*
X219457Y289524D01*
X219478Y289342D01*
X219497Y289159D01*
X219502Y289142D01*
X219504Y289125D01*
X219561Y288950D01*
X219615Y288774D01*
X219623Y288759D01*
X219629Y288742D01*
X219719Y288582D01*
X219807Y288420D01*
X219818Y288407D01*
X219827Y288391D01*
X219947Y288252D01*
X220064Y288111D01*
X220078Y288100D01*
X220090Y288086D01*
X220235Y287974D01*
X220378Y287859D01*
X220394Y287851D01*
X220408Y287840D01*
X220573Y287758D01*
X220735Y287673D01*
X220752Y287668D01*
X220768Y287660D01*
X220947Y287613D01*
X221122Y287562D01*
X221140Y287560D01*
X221157Y287556D01*
X221488Y287529D01*
X224121Y287529D01*
X227109Y286291D01*
X229395Y284005D01*
X230633Y281017D01*
X230633Y277783D01*
X229395Y274795D01*
X227109Y272509D01*
X224121Y271271D01*
X207679Y271271D01*
G37*
%LPD*%
%LPC*%
G36*
X207679Y347471D02*
X207679Y347471D01*
X204691Y348709D01*
X202405Y350995D01*
X201167Y353983D01*
X201167Y357217D01*
X202405Y360205D01*
X204691Y362491D01*
X207679Y363729D01*
X224121Y363729D01*
X227109Y362491D01*
X229449Y360151D01*
X229500Y360056D01*
X229514Y360039D01*
X229525Y360019D01*
X229642Y359884D01*
X229756Y359745D01*
X229774Y359731D01*
X229788Y359714D01*
X229930Y359605D01*
X230069Y359492D01*
X230089Y359481D01*
X230106Y359468D01*
X230267Y359388D01*
X230426Y359305D01*
X230447Y359298D01*
X230467Y359288D01*
X230641Y359242D01*
X230812Y359192D01*
X230834Y359190D01*
X230856Y359184D01*
X231186Y359157D01*
X245220Y359157D01*
X245246Y359159D01*
X245273Y359157D01*
X245447Y359179D01*
X245620Y359197D01*
X245646Y359204D01*
X245672Y359208D01*
X245838Y359263D01*
X246005Y359315D01*
X246029Y359328D01*
X246054Y359336D01*
X246206Y359423D01*
X246359Y359507D01*
X246380Y359524D01*
X246403Y359537D01*
X246656Y359752D01*
X250633Y363729D01*
X257367Y363729D01*
X262129Y358967D01*
X262129Y352233D01*
X257367Y347471D01*
X250633Y347471D01*
X246656Y351448D01*
X246635Y351465D01*
X246618Y351486D01*
X246480Y351593D01*
X246344Y351703D01*
X246321Y351716D01*
X246300Y351732D01*
X246143Y351810D01*
X245989Y351892D01*
X245963Y351900D01*
X245939Y351912D01*
X245770Y351957D01*
X245603Y352007D01*
X245576Y352009D01*
X245550Y352016D01*
X245220Y352043D01*
X231186Y352043D01*
X231164Y352041D01*
X231142Y352043D01*
X230965Y352021D01*
X230786Y352003D01*
X230765Y351997D01*
X230742Y351994D01*
X230573Y351938D01*
X230401Y351885D01*
X230381Y351875D01*
X230360Y351868D01*
X230205Y351779D01*
X230047Y351693D01*
X230030Y351679D01*
X230010Y351668D01*
X229875Y351550D01*
X229738Y351436D01*
X229724Y351418D01*
X229707Y351404D01*
X229598Y351262D01*
X229485Y351122D01*
X229475Y351102D01*
X229461Y351084D01*
X229437Y351038D01*
X227109Y348709D01*
X224121Y347471D01*
X207679Y347471D01*
G37*
%LPD*%
%LPC*%
G36*
X326833Y671321D02*
X326833Y671321D01*
X322071Y676083D01*
X322071Y682817D01*
X326048Y686794D01*
X326065Y686815D01*
X326086Y686832D01*
X326193Y686970D01*
X326303Y687106D01*
X326316Y687129D01*
X326332Y687150D01*
X326410Y687307D01*
X326492Y687461D01*
X326500Y687487D01*
X326512Y687511D01*
X326557Y687680D01*
X326607Y687847D01*
X326609Y687874D01*
X326616Y687900D01*
X326643Y688230D01*
X326643Y696070D01*
X326641Y696096D01*
X326643Y696123D01*
X326621Y696297D01*
X326603Y696470D01*
X326596Y696496D01*
X326592Y696522D01*
X326537Y696688D01*
X326485Y696855D01*
X326472Y696879D01*
X326464Y696904D01*
X326377Y697056D01*
X326293Y697209D01*
X326276Y697230D01*
X326263Y697253D01*
X326048Y697506D01*
X322071Y701483D01*
X322071Y708217D01*
X326833Y712979D01*
X333567Y712979D01*
X338329Y708217D01*
X338329Y701483D01*
X334352Y697506D01*
X334335Y697485D01*
X334314Y697468D01*
X334207Y697330D01*
X334097Y697194D01*
X334084Y697171D01*
X334068Y697150D01*
X333990Y696993D01*
X333908Y696839D01*
X333900Y696813D01*
X333888Y696789D01*
X333843Y696620D01*
X333793Y696453D01*
X333791Y696426D01*
X333784Y696400D01*
X333757Y696070D01*
X333757Y688230D01*
X333759Y688204D01*
X333757Y688177D01*
X333779Y688003D01*
X333797Y687830D01*
X333804Y687804D01*
X333808Y687778D01*
X333864Y687612D01*
X333915Y687445D01*
X333928Y687421D01*
X333936Y687396D01*
X334023Y687244D01*
X334107Y687091D01*
X334124Y687070D01*
X334137Y687047D01*
X334352Y686794D01*
X338329Y682817D01*
X338329Y676083D01*
X333567Y671321D01*
X326833Y671321D01*
G37*
%LPD*%
%LPC*%
G36*
X207679Y563371D02*
X207679Y563371D01*
X204691Y564609D01*
X202405Y566895D01*
X201167Y569883D01*
X201167Y573117D01*
X202405Y576105D01*
X204691Y578391D01*
X207679Y579629D01*
X224121Y579629D01*
X227109Y578391D01*
X229395Y576105D01*
X230633Y573117D01*
X230633Y569883D01*
X229395Y566895D01*
X227109Y564609D01*
X226928Y564534D01*
X224121Y563371D01*
X207679Y563371D01*
G37*
%LPD*%
%LPC*%
G36*
X131479Y563371D02*
X131479Y563371D01*
X128491Y564609D01*
X126205Y566895D01*
X124967Y569883D01*
X124967Y573117D01*
X126205Y576105D01*
X128491Y578391D01*
X131479Y579629D01*
X147921Y579629D01*
X150909Y578391D01*
X153195Y576105D01*
X154433Y573117D01*
X154433Y569883D01*
X153195Y566895D01*
X150909Y564609D01*
X150728Y564534D01*
X147921Y563371D01*
X131479Y563371D01*
G37*
%LPD*%
%LPC*%
G36*
X207679Y322071D02*
X207679Y322071D01*
X204691Y323309D01*
X202405Y325595D01*
X201167Y328583D01*
X201167Y331817D01*
X202405Y334805D01*
X204691Y337091D01*
X207679Y338329D01*
X224121Y338329D01*
X227109Y337091D01*
X229395Y334805D01*
X230633Y331817D01*
X230633Y328583D01*
X229395Y325595D01*
X227109Y323309D01*
X224121Y322071D01*
X207679Y322071D01*
G37*
%LPD*%
%LPC*%
G36*
X131479Y347471D02*
X131479Y347471D01*
X128491Y348709D01*
X126205Y350995D01*
X124967Y353983D01*
X124967Y357217D01*
X126205Y360205D01*
X128491Y362491D01*
X131479Y363729D01*
X147921Y363729D01*
X150909Y362491D01*
X153195Y360205D01*
X154433Y357217D01*
X154433Y353983D01*
X153195Y350995D01*
X150909Y348709D01*
X147921Y347471D01*
X131479Y347471D01*
G37*
%LPD*%
%LPC*%
G36*
X131479Y436371D02*
X131479Y436371D01*
X128491Y437609D01*
X126205Y439895D01*
X124967Y442883D01*
X124967Y446117D01*
X126205Y449105D01*
X128491Y451391D01*
X131479Y452629D01*
X147921Y452629D01*
X150909Y451391D01*
X153195Y449105D01*
X154433Y446117D01*
X154433Y442883D01*
X153195Y439895D01*
X150909Y437609D01*
X147921Y436371D01*
X131479Y436371D01*
G37*
%LPD*%
%LPC*%
G36*
X131479Y322071D02*
X131479Y322071D01*
X128491Y323309D01*
X126205Y325595D01*
X124967Y328583D01*
X124967Y331817D01*
X126205Y334805D01*
X128491Y337091D01*
X131479Y338329D01*
X147921Y338329D01*
X150909Y337091D01*
X153195Y334805D01*
X154433Y331817D01*
X154433Y328583D01*
X153195Y325595D01*
X150909Y323309D01*
X147921Y322071D01*
X131479Y322071D01*
G37*
%LPD*%
%LPC*%
G36*
X207679Y436371D02*
X207679Y436371D01*
X204691Y437609D01*
X202405Y439895D01*
X201167Y442883D01*
X201167Y446117D01*
X202405Y449105D01*
X204691Y451391D01*
X207679Y452629D01*
X224121Y452629D01*
X227109Y451391D01*
X229395Y449105D01*
X230633Y446117D01*
X230633Y442883D01*
X229395Y439895D01*
X227109Y437609D01*
X224121Y436371D01*
X207679Y436371D01*
G37*
%LPD*%
%LPC*%
G36*
X207679Y461771D02*
X207679Y461771D01*
X204691Y463009D01*
X202405Y465295D01*
X201167Y468283D01*
X201167Y471517D01*
X202405Y474505D01*
X204691Y476791D01*
X207679Y478029D01*
X224121Y478029D01*
X227109Y476791D01*
X229395Y474505D01*
X230633Y471517D01*
X230633Y468283D01*
X229395Y465295D01*
X227109Y463009D01*
X227019Y462971D01*
X227018Y462971D01*
X224121Y461771D01*
X207679Y461771D01*
G37*
%LPD*%
%LPC*%
G36*
X131479Y461771D02*
X131479Y461771D01*
X128491Y463009D01*
X126205Y465295D01*
X124967Y468283D01*
X124967Y471517D01*
X126205Y474505D01*
X128491Y476791D01*
X131479Y478029D01*
X147921Y478029D01*
X150909Y476791D01*
X153195Y474505D01*
X154433Y471517D01*
X154433Y468283D01*
X153195Y465295D01*
X150909Y463009D01*
X150819Y462971D01*
X150818Y462971D01*
X147921Y461771D01*
X131479Y461771D01*
G37*
%LPD*%
%LPC*%
G36*
X131479Y372871D02*
X131479Y372871D01*
X128491Y374109D01*
X126205Y376395D01*
X124967Y379383D01*
X124967Y382617D01*
X126205Y385605D01*
X128491Y387891D01*
X129071Y388131D01*
X131479Y389129D01*
X147921Y389129D01*
X150909Y387891D01*
X153195Y385605D01*
X154433Y382617D01*
X154433Y379383D01*
X153195Y376395D01*
X150909Y374109D01*
X147921Y372871D01*
X131479Y372871D01*
G37*
%LPD*%
%LPC*%
G36*
X207679Y588771D02*
X207679Y588771D01*
X204691Y590009D01*
X202405Y592295D01*
X201167Y595283D01*
X201167Y598517D01*
X202405Y601505D01*
X204691Y603791D01*
X207679Y605029D01*
X224121Y605029D01*
X227109Y603791D01*
X229395Y601505D01*
X230633Y598517D01*
X230633Y595283D01*
X229395Y592295D01*
X227109Y590009D01*
X224453Y588909D01*
X224121Y588771D01*
X207679Y588771D01*
G37*
%LPD*%
%LPC*%
G36*
X131479Y588771D02*
X131479Y588771D01*
X128491Y590009D01*
X126205Y592295D01*
X124967Y595283D01*
X124967Y598517D01*
X126205Y601505D01*
X128491Y603791D01*
X131479Y605029D01*
X147921Y605029D01*
X150909Y603791D01*
X153195Y601505D01*
X154433Y598517D01*
X154433Y595283D01*
X153195Y592295D01*
X150909Y590009D01*
X148253Y588909D01*
X147921Y588771D01*
X131479Y588771D01*
G37*
%LPD*%
%LPC*%
G36*
X131479Y512571D02*
X131479Y512571D01*
X128491Y513809D01*
X126205Y516095D01*
X124967Y519083D01*
X124967Y522317D01*
X126205Y525305D01*
X128491Y527591D01*
X130172Y528287D01*
X130173Y528288D01*
X131479Y528829D01*
X147921Y528829D01*
X150909Y527591D01*
X153195Y525305D01*
X154433Y522317D01*
X154433Y519083D01*
X153195Y516095D01*
X150909Y513809D01*
X147921Y512571D01*
X131479Y512571D01*
G37*
%LPD*%
%LPC*%
G36*
X207679Y512571D02*
X207679Y512571D01*
X204691Y513809D01*
X202405Y516095D01*
X201167Y519083D01*
X201167Y522317D01*
X202405Y525305D01*
X204691Y527591D01*
X206372Y528287D01*
X206373Y528288D01*
X207679Y528829D01*
X224121Y528829D01*
X227109Y527591D01*
X229395Y525305D01*
X230633Y522317D01*
X230633Y519083D01*
X229395Y516095D01*
X227109Y513809D01*
X224121Y512571D01*
X207679Y512571D01*
G37*
%LPD*%
%LPC*%
G36*
X132155Y722685D02*
X132155Y722685D01*
X129375Y723837D01*
X127247Y725965D01*
X126095Y728745D01*
X126095Y731755D01*
X127247Y734535D01*
X129375Y736663D01*
X132155Y737815D01*
X147245Y737815D01*
X150025Y736663D01*
X152153Y734535D01*
X153305Y731755D01*
X153305Y728745D01*
X152153Y725965D01*
X150025Y723837D01*
X147245Y722685D01*
X132155Y722685D01*
G37*
%LPD*%
%LPC*%
G36*
X132155Y697285D02*
X132155Y697285D01*
X129375Y698437D01*
X127247Y700565D01*
X126095Y703345D01*
X126095Y706355D01*
X127247Y709135D01*
X129375Y711263D01*
X132155Y712415D01*
X147245Y712415D01*
X150025Y711263D01*
X152153Y709135D01*
X153305Y706355D01*
X153305Y703345D01*
X152153Y700565D01*
X150025Y698437D01*
X147245Y697285D01*
X132155Y697285D01*
G37*
%LPD*%
%LPC*%
G36*
X208355Y697285D02*
X208355Y697285D01*
X205575Y698437D01*
X203447Y700565D01*
X202295Y703345D01*
X202295Y706355D01*
X203447Y709135D01*
X205575Y711263D01*
X208355Y712415D01*
X223445Y712415D01*
X226225Y711263D01*
X228353Y709135D01*
X229505Y706355D01*
X229505Y703345D01*
X228353Y700565D01*
X226225Y698437D01*
X223445Y697285D01*
X208355Y697285D01*
G37*
%LPD*%
%LPC*%
G36*
X208355Y671885D02*
X208355Y671885D01*
X205575Y673037D01*
X203447Y675165D01*
X202295Y677945D01*
X202295Y680955D01*
X203447Y683735D01*
X205575Y685863D01*
X207656Y686725D01*
X208355Y687015D01*
X223445Y687015D01*
X226225Y685863D01*
X228353Y683735D01*
X229505Y680955D01*
X229505Y677945D01*
X228353Y675165D01*
X226225Y673037D01*
X223445Y671885D01*
X208355Y671885D01*
G37*
%LPD*%
%LPC*%
G36*
X226629Y402843D02*
X226629Y402843D01*
X222988Y404351D01*
X220201Y407138D01*
X218693Y410779D01*
X218693Y414721D01*
X220201Y418362D01*
X222988Y421149D01*
X226629Y422657D01*
X230571Y422657D01*
X234212Y421149D01*
X236999Y418362D01*
X238507Y414721D01*
X238507Y410779D01*
X236999Y407138D01*
X234212Y404351D01*
X230571Y402843D01*
X226629Y402843D01*
G37*
%LPD*%
%LPC*%
G36*
X186712Y816355D02*
X186712Y816355D01*
X181355Y821712D01*
X181355Y829288D01*
X186712Y834645D01*
X194288Y834645D01*
X199645Y829288D01*
X199645Y821712D01*
X194288Y816355D01*
X186712Y816355D01*
G37*
%LPD*%
%LPC*%
G36*
X161312Y816355D02*
X161312Y816355D01*
X155955Y821712D01*
X155955Y829288D01*
X161312Y834645D01*
X168888Y834645D01*
X174245Y829288D01*
X174245Y821712D01*
X168888Y816355D01*
X161312Y816355D01*
G37*
%LPD*%
%LPC*%
G36*
X161312Y841755D02*
X161312Y841755D01*
X155955Y847112D01*
X155955Y854688D01*
X161312Y860045D01*
X168888Y860045D01*
X174245Y854688D01*
X174245Y847112D01*
X168888Y841755D01*
X161312Y841755D01*
G37*
%LPD*%
%LPC*%
G36*
X186712Y841755D02*
X186712Y841755D01*
X181355Y847112D01*
X181355Y854688D01*
X186712Y860045D01*
X194288Y860045D01*
X199645Y854688D01*
X199645Y847112D01*
X194288Y841755D01*
X186712Y841755D01*
G37*
%LPD*%
%LPC*%
G36*
X186712Y790955D02*
X186712Y790955D01*
X181355Y796312D01*
X181355Y803888D01*
X186712Y809245D01*
X194288Y809245D01*
X199645Y803888D01*
X199645Y796312D01*
X194288Y790955D01*
X186712Y790955D01*
G37*
%LPD*%
%LPC*%
G36*
X326833Y588771D02*
X326833Y588771D01*
X322071Y593533D01*
X322071Y600267D01*
X326833Y605029D01*
X333567Y605029D01*
X338329Y600267D01*
X338329Y593533D01*
X333567Y588771D01*
X326833Y588771D01*
G37*
%LPD*%
%LPC*%
G36*
X22033Y563371D02*
X22033Y563371D01*
X17271Y568133D01*
X17271Y574867D01*
X22033Y579629D01*
X28767Y579629D01*
X33529Y574867D01*
X33529Y568133D01*
X28767Y563371D01*
X22033Y563371D01*
G37*
%LPD*%
%LPC*%
G36*
X314133Y645921D02*
X314133Y645921D01*
X309371Y650683D01*
X309371Y657417D01*
X314133Y662179D01*
X320867Y662179D01*
X325629Y657417D01*
X325629Y650683D01*
X320867Y645921D01*
X314133Y645921D01*
G37*
%LPD*%
%LPC*%
G36*
X326833Y347471D02*
X326833Y347471D01*
X322071Y352233D01*
X322071Y358967D01*
X326833Y363729D01*
X333567Y363729D01*
X338329Y358967D01*
X338329Y352233D01*
X333567Y347471D01*
X326833Y347471D01*
G37*
%LPD*%
%LPC*%
G36*
X22033Y436371D02*
X22033Y436371D01*
X17271Y441133D01*
X17271Y447867D01*
X22033Y452629D01*
X28767Y452629D01*
X33529Y447867D01*
X33529Y441133D01*
X28767Y436371D01*
X22033Y436371D01*
G37*
%LPD*%
%LPC*%
G36*
X85533Y512571D02*
X85533Y512571D01*
X80771Y517333D01*
X80771Y524067D01*
X85533Y528829D01*
X92267Y528829D01*
X97029Y524067D01*
X97029Y517333D01*
X92267Y512571D01*
X85533Y512571D01*
G37*
%LPD*%
%LPC*%
G36*
X250633Y322071D02*
X250633Y322071D01*
X245871Y326833D01*
X245871Y333567D01*
X250633Y338329D01*
X257367Y338329D01*
X262129Y333567D01*
X262129Y326833D01*
X257367Y322071D01*
X250633Y322071D01*
G37*
%LPD*%
%LPC*%
G36*
X217931Y548131D02*
X217931Y548131D01*
X217931Y555245D01*
X223224Y555245D01*
X224645Y555020D01*
X226014Y554575D01*
X227297Y553921D01*
X228461Y553075D01*
X229479Y552057D01*
X230325Y550893D01*
X230979Y549610D01*
X231424Y548241D01*
X231441Y548131D01*
X217931Y548131D01*
G37*
%LPD*%
%LPC*%
G36*
X141731Y497331D02*
X141731Y497331D01*
X141731Y504445D01*
X147024Y504445D01*
X148445Y504220D01*
X149814Y503775D01*
X151097Y503121D01*
X152261Y502275D01*
X153279Y501257D01*
X154125Y500093D01*
X154779Y498810D01*
X155224Y497441D01*
X155241Y497331D01*
X141731Y497331D01*
G37*
%LPD*%
%LPC*%
G36*
X217931Y497331D02*
X217931Y497331D01*
X217931Y504445D01*
X223224Y504445D01*
X224645Y504220D01*
X226014Y503775D01*
X227297Y503121D01*
X228461Y502275D01*
X229479Y501257D01*
X230325Y500093D01*
X230979Y498810D01*
X231424Y497441D01*
X231441Y497331D01*
X217931Y497331D01*
G37*
%LPD*%
%LPC*%
G36*
X141731Y548131D02*
X141731Y548131D01*
X141731Y555245D01*
X147024Y555245D01*
X148445Y555020D01*
X149814Y554575D01*
X151097Y553921D01*
X152261Y553075D01*
X153279Y552057D01*
X154125Y550893D01*
X154779Y549610D01*
X155224Y548241D01*
X155241Y548131D01*
X141731Y548131D01*
G37*
%LPD*%
%LPC*%
G36*
X217931Y230631D02*
X217931Y230631D01*
X217931Y237745D01*
X223224Y237745D01*
X224645Y237520D01*
X226014Y237075D01*
X227297Y236421D01*
X228461Y235575D01*
X229479Y234557D01*
X230325Y233393D01*
X230979Y232110D01*
X231424Y230741D01*
X231441Y230631D01*
X217931Y230631D01*
G37*
%LPD*%
%LPC*%
G36*
X200359Y497331D02*
X200359Y497331D01*
X200376Y497441D01*
X200821Y498810D01*
X201475Y500093D01*
X202321Y501257D01*
X203339Y502275D01*
X204503Y503121D01*
X205786Y503775D01*
X207155Y504220D01*
X208576Y504445D01*
X213869Y504445D01*
X213869Y497331D01*
X200359Y497331D01*
G37*
%LPD*%
%LPC*%
G36*
X124159Y548131D02*
X124159Y548131D01*
X124176Y548241D01*
X124621Y549610D01*
X125275Y550893D01*
X126121Y552057D01*
X127139Y553075D01*
X128303Y553921D01*
X129586Y554575D01*
X130955Y555020D01*
X132376Y555245D01*
X137669Y555245D01*
X137669Y548131D01*
X124159Y548131D01*
G37*
%LPD*%
%LPC*%
G36*
X200359Y548131D02*
X200359Y548131D01*
X200376Y548241D01*
X200821Y549610D01*
X201475Y550893D01*
X202321Y552057D01*
X203339Y553075D01*
X204503Y553921D01*
X205786Y554575D01*
X207155Y555020D01*
X208576Y555245D01*
X213869Y555245D01*
X213869Y548131D01*
X200359Y548131D01*
G37*
%LPD*%
%LPC*%
G36*
X200359Y230631D02*
X200359Y230631D01*
X200376Y230741D01*
X200821Y232110D01*
X201475Y233393D01*
X202321Y234557D01*
X203339Y235575D01*
X204503Y236421D01*
X205786Y237075D01*
X207155Y237520D01*
X208576Y237745D01*
X213869Y237745D01*
X213869Y230631D01*
X200359Y230631D01*
G37*
%LPD*%
%LPC*%
G36*
X124159Y497331D02*
X124159Y497331D01*
X124176Y497441D01*
X124621Y498810D01*
X125275Y500093D01*
X126121Y501257D01*
X127139Y502275D01*
X128303Y503121D01*
X129586Y503775D01*
X130955Y504220D01*
X132376Y504445D01*
X137669Y504445D01*
X137669Y497331D01*
X124159Y497331D01*
G37*
%LPD*%
%LPC*%
G36*
X217931Y486155D02*
X217931Y486155D01*
X217931Y493269D01*
X231441Y493269D01*
X231424Y493159D01*
X230979Y491790D01*
X230325Y490507D01*
X229479Y489343D01*
X228461Y488325D01*
X227297Y487479D01*
X226014Y486825D01*
X224645Y486380D01*
X223224Y486155D01*
X217931Y486155D01*
G37*
%LPD*%
%LPC*%
G36*
X141731Y536955D02*
X141731Y536955D01*
X141731Y544069D01*
X155241Y544069D01*
X155224Y543959D01*
X154779Y542590D01*
X154125Y541307D01*
X153279Y540143D01*
X152261Y539125D01*
X151097Y538279D01*
X149814Y537625D01*
X148445Y537180D01*
X147024Y536955D01*
X141731Y536955D01*
G37*
%LPD*%
%LPC*%
G36*
X217931Y536955D02*
X217931Y536955D01*
X217931Y544069D01*
X231441Y544069D01*
X231424Y543959D01*
X230979Y542590D01*
X230325Y541307D01*
X229479Y540143D01*
X228461Y539125D01*
X227297Y538279D01*
X226014Y537625D01*
X224645Y537180D01*
X223224Y536955D01*
X217931Y536955D01*
G37*
%LPD*%
%LPC*%
G36*
X217931Y219455D02*
X217931Y219455D01*
X217931Y226569D01*
X231441Y226569D01*
X231424Y226459D01*
X230979Y225090D01*
X230325Y223807D01*
X229479Y222643D01*
X228461Y221625D01*
X227297Y220779D01*
X226014Y220125D01*
X224645Y219680D01*
X223224Y219455D01*
X217931Y219455D01*
G37*
%LPD*%
%LPC*%
G36*
X141731Y486155D02*
X141731Y486155D01*
X141731Y493269D01*
X155241Y493269D01*
X155224Y493159D01*
X154779Y491790D01*
X154125Y490507D01*
X153279Y489343D01*
X152261Y488325D01*
X151097Y487479D01*
X149814Y486825D01*
X148445Y486380D01*
X147024Y486155D01*
X141731Y486155D01*
G37*
%LPD*%
%LPC*%
G36*
X132376Y486155D02*
X132376Y486155D01*
X130955Y486380D01*
X129586Y486825D01*
X128303Y487479D01*
X127139Y488325D01*
X126121Y489343D01*
X125275Y490507D01*
X124621Y491790D01*
X124176Y493159D01*
X124159Y493269D01*
X137669Y493269D01*
X137669Y486155D01*
X132376Y486155D01*
G37*
%LPD*%
%LPC*%
G36*
X208576Y486155D02*
X208576Y486155D01*
X207155Y486380D01*
X205786Y486825D01*
X204503Y487479D01*
X203339Y488325D01*
X202321Y489343D01*
X201475Y490507D01*
X200821Y491790D01*
X200376Y493159D01*
X200359Y493269D01*
X213869Y493269D01*
X213869Y486155D01*
X208576Y486155D01*
G37*
%LPD*%
%LPC*%
G36*
X132376Y536955D02*
X132376Y536955D01*
X130955Y537180D01*
X129586Y537625D01*
X128303Y538279D01*
X127139Y539125D01*
X126121Y540143D01*
X125275Y541307D01*
X124621Y542590D01*
X124176Y543959D01*
X124159Y544069D01*
X137669Y544069D01*
X137669Y536955D01*
X132376Y536955D01*
G37*
%LPD*%
%LPC*%
G36*
X208576Y219455D02*
X208576Y219455D01*
X207155Y219680D01*
X205786Y220125D01*
X204503Y220779D01*
X203339Y221625D01*
X202321Y222643D01*
X201475Y223807D01*
X200821Y225090D01*
X200376Y226459D01*
X200359Y226569D01*
X213869Y226569D01*
X213869Y219455D01*
X208576Y219455D01*
G37*
%LPD*%
%LPC*%
G36*
X208576Y536955D02*
X208576Y536955D01*
X207155Y537180D01*
X205786Y537625D01*
X204503Y538279D01*
X203339Y539125D01*
X202321Y540143D01*
X201475Y541307D01*
X200821Y542590D01*
X200376Y543959D01*
X200359Y544069D01*
X213869Y544069D01*
X213869Y536955D01*
X208576Y536955D01*
G37*
%LPD*%
%LPC*%
G36*
X40131Y46481D02*
X40131Y46481D01*
X40131Y54992D01*
X42467Y54992D01*
X48642Y48817D01*
X48642Y46481D01*
X40131Y46481D01*
G37*
%LPD*%
%LPC*%
G36*
X27558Y46481D02*
X27558Y46481D01*
X27558Y48817D01*
X33733Y54992D01*
X36069Y54992D01*
X36069Y46481D01*
X27558Y46481D01*
G37*
%LPD*%
%LPC*%
G36*
X40131Y33908D02*
X40131Y33908D01*
X40131Y42419D01*
X48642Y42419D01*
X48642Y40083D01*
X42467Y33908D01*
X40131Y33908D01*
G37*
%LPD*%
%LPC*%
G36*
X33733Y33908D02*
X33733Y33908D01*
X27558Y40083D01*
X27558Y42419D01*
X36069Y42419D01*
X36069Y33908D01*
X33733Y33908D01*
G37*
%LPD*%
%LPC*%
G36*
X319531Y46481D02*
X319531Y46481D01*
X319531Y54801D01*
X319969Y54732D01*
X321547Y54219D01*
X323025Y53466D01*
X324367Y52491D01*
X325541Y51317D01*
X326516Y49975D01*
X327269Y48497D01*
X327782Y46919D01*
X327851Y46481D01*
X319531Y46481D01*
G37*
%LPD*%
%LPC*%
G36*
X319531Y42419D02*
X319531Y42419D01*
X327851Y42419D01*
X327782Y41981D01*
X327269Y40403D01*
X326516Y38925D01*
X325541Y37583D01*
X324367Y36409D01*
X323025Y35434D01*
X321547Y34681D01*
X319969Y34168D01*
X319531Y34099D01*
X319531Y42419D01*
G37*
%LPD*%
%LPC*%
G36*
X307149Y46481D02*
X307149Y46481D01*
X307218Y46919D01*
X307731Y48497D01*
X308484Y49975D01*
X309459Y51317D01*
X310633Y52491D01*
X311975Y53466D01*
X313453Y54219D01*
X315031Y54732D01*
X315469Y54801D01*
X315469Y46481D01*
X307149Y46481D01*
G37*
%LPD*%
%LPC*%
G36*
X315031Y34168D02*
X315031Y34168D01*
X313453Y34681D01*
X311975Y35434D01*
X310633Y36409D01*
X309459Y37583D01*
X308484Y38925D01*
X307731Y40403D01*
X307218Y41981D01*
X307149Y42419D01*
X315469Y42419D01*
X315469Y34099D01*
X315031Y34168D01*
G37*
%LPD*%
%LPC*%
G36*
X28193Y415543D02*
X28193Y415543D01*
X28193Y423327D01*
X29593Y422872D01*
X31125Y422092D01*
X32516Y421081D01*
X33731Y419866D01*
X34742Y418475D01*
X35522Y416943D01*
X35977Y415543D01*
X28193Y415543D01*
G37*
%LPD*%
%LPC*%
G36*
X332993Y415543D02*
X332993Y415543D01*
X332993Y423327D01*
X334393Y422872D01*
X335925Y422092D01*
X337316Y421081D01*
X338531Y419866D01*
X339542Y418475D01*
X340322Y416943D01*
X340777Y415543D01*
X332993Y415543D01*
G37*
%LPD*%
%LPC*%
G36*
X14823Y415543D02*
X14823Y415543D01*
X15278Y416943D01*
X16058Y418475D01*
X17069Y419866D01*
X18284Y421081D01*
X19675Y422092D01*
X21207Y422872D01*
X22607Y423327D01*
X22607Y415543D01*
X14823Y415543D01*
G37*
%LPD*%
%LPC*%
G36*
X28193Y409957D02*
X28193Y409957D01*
X35977Y409957D01*
X35522Y408557D01*
X34742Y407025D01*
X33731Y405634D01*
X32516Y404419D01*
X31125Y403408D01*
X29593Y402628D01*
X28193Y402173D01*
X28193Y409957D01*
G37*
%LPD*%
%LPC*%
G36*
X319623Y415543D02*
X319623Y415543D01*
X320078Y416943D01*
X320858Y418475D01*
X321869Y419866D01*
X323084Y421081D01*
X324475Y422092D01*
X326007Y422872D01*
X327407Y423327D01*
X327407Y415543D01*
X319623Y415543D01*
G37*
%LPD*%
%LPC*%
G36*
X332993Y409957D02*
X332993Y409957D01*
X340777Y409957D01*
X340322Y408557D01*
X339542Y407025D01*
X338531Y405634D01*
X337316Y404419D01*
X335925Y403408D01*
X334393Y402628D01*
X332993Y402173D01*
X332993Y409957D01*
G37*
%LPD*%
%LPC*%
G36*
X326007Y402628D02*
X326007Y402628D01*
X324475Y403408D01*
X323084Y404419D01*
X321869Y405634D01*
X320858Y407025D01*
X320078Y408557D01*
X319623Y409957D01*
X327407Y409957D01*
X327407Y402173D01*
X326007Y402628D01*
G37*
%LPD*%
%LPC*%
G36*
X21207Y402628D02*
X21207Y402628D01*
X19675Y403408D01*
X18284Y404419D01*
X17069Y405634D01*
X16058Y407025D01*
X15278Y408557D01*
X14823Y409957D01*
X22607Y409957D01*
X22607Y402173D01*
X21207Y402628D01*
G37*
%LPD*%
%LPC*%
G36*
X167639Y802639D02*
X167639Y802639D01*
X167639Y810261D01*
X169309Y810261D01*
X175261Y804309D01*
X175261Y802639D01*
X167639Y802639D01*
G37*
%LPD*%
%LPC*%
G36*
X154939Y802639D02*
X154939Y802639D01*
X154939Y804309D01*
X160891Y810261D01*
X162561Y810261D01*
X162561Y802639D01*
X154939Y802639D01*
G37*
%LPD*%
%LPC*%
G36*
X167639Y789939D02*
X167639Y789939D01*
X167639Y797561D01*
X175261Y797561D01*
X175261Y795891D01*
X169309Y789939D01*
X167639Y789939D01*
G37*
%LPD*%
%LPC*%
G36*
X160891Y789939D02*
X160891Y789939D01*
X154939Y795891D01*
X154939Y797561D01*
X162561Y797561D01*
X162561Y789939D01*
X160891Y789939D01*
G37*
%LPD*%
%LPC*%
G36*
X180085Y46735D02*
X180085Y46735D01*
X180085Y54103D01*
X181798Y54103D01*
X187453Y48448D01*
X187453Y46735D01*
X180085Y46735D01*
G37*
%LPD*%
%LPC*%
G36*
X205485Y72135D02*
X205485Y72135D01*
X205485Y79503D01*
X207198Y79503D01*
X212853Y73848D01*
X212853Y72135D01*
X205485Y72135D01*
G37*
%LPD*%
%LPC*%
G36*
X180085Y72135D02*
X180085Y72135D01*
X180085Y79503D01*
X181798Y79503D01*
X187453Y73848D01*
X187453Y72135D01*
X180085Y72135D01*
G37*
%LPD*%
%LPC*%
G36*
X154685Y46735D02*
X154685Y46735D01*
X154685Y54103D01*
X156398Y54103D01*
X162053Y48448D01*
X162053Y46735D01*
X154685Y46735D01*
G37*
%LPD*%
%LPC*%
G36*
X154685Y72135D02*
X154685Y72135D01*
X154685Y79503D01*
X156398Y79503D01*
X162053Y73848D01*
X162053Y72135D01*
X154685Y72135D01*
G37*
%LPD*%
%LPC*%
G36*
X205485Y46735D02*
X205485Y46735D01*
X205485Y54103D01*
X207198Y54103D01*
X212853Y48448D01*
X212853Y46735D01*
X205485Y46735D01*
G37*
%LPD*%
%LPC*%
G36*
X142747Y46735D02*
X142747Y46735D01*
X142747Y48448D01*
X148402Y54103D01*
X150115Y54103D01*
X150115Y46735D01*
X142747Y46735D01*
G37*
%LPD*%
%LPC*%
G36*
X142747Y72135D02*
X142747Y72135D01*
X142747Y73848D01*
X148402Y79503D01*
X150115Y79503D01*
X150115Y72135D01*
X142747Y72135D01*
G37*
%LPD*%
%LPC*%
G36*
X180085Y60197D02*
X180085Y60197D01*
X180085Y67565D01*
X187453Y67565D01*
X187453Y65852D01*
X181798Y60197D01*
X180085Y60197D01*
G37*
%LPD*%
%LPC*%
G36*
X205485Y60197D02*
X205485Y60197D01*
X205485Y67565D01*
X212853Y67565D01*
X212853Y65852D01*
X207198Y60197D01*
X205485Y60197D01*
G37*
%LPD*%
%LPC*%
G36*
X154685Y34797D02*
X154685Y34797D01*
X154685Y42165D01*
X162053Y42165D01*
X162053Y40452D01*
X156398Y34797D01*
X154685Y34797D01*
G37*
%LPD*%
%LPC*%
G36*
X168147Y72135D02*
X168147Y72135D01*
X168147Y73848D01*
X173802Y79503D01*
X175515Y79503D01*
X175515Y72135D01*
X168147Y72135D01*
G37*
%LPD*%
%LPC*%
G36*
X168147Y46735D02*
X168147Y46735D01*
X168147Y48448D01*
X173802Y54103D01*
X175515Y54103D01*
X175515Y46735D01*
X168147Y46735D01*
G37*
%LPD*%
%LPC*%
G36*
X205485Y34797D02*
X205485Y34797D01*
X205485Y42165D01*
X212853Y42165D01*
X212853Y40452D01*
X207198Y34797D01*
X205485Y34797D01*
G37*
%LPD*%
%LPC*%
G36*
X180085Y34797D02*
X180085Y34797D01*
X180085Y42165D01*
X187453Y42165D01*
X187453Y40452D01*
X181798Y34797D01*
X180085Y34797D01*
G37*
%LPD*%
%LPC*%
G36*
X193547Y46735D02*
X193547Y46735D01*
X193547Y48448D01*
X199202Y54103D01*
X200915Y54103D01*
X200915Y46735D01*
X193547Y46735D01*
G37*
%LPD*%
%LPC*%
G36*
X154685Y60197D02*
X154685Y60197D01*
X154685Y67565D01*
X162053Y67565D01*
X162053Y65852D01*
X156398Y60197D01*
X154685Y60197D01*
G37*
%LPD*%
%LPC*%
G36*
X193547Y72135D02*
X193547Y72135D01*
X193547Y73848D01*
X199202Y79503D01*
X200915Y79503D01*
X200915Y72135D01*
X193547Y72135D01*
G37*
%LPD*%
%LPC*%
G36*
X173802Y34797D02*
X173802Y34797D01*
X168147Y40452D01*
X168147Y42165D01*
X175515Y42165D01*
X175515Y34797D01*
X173802Y34797D01*
G37*
%LPD*%
%LPC*%
G36*
X148402Y34797D02*
X148402Y34797D01*
X142747Y40452D01*
X142747Y42165D01*
X150115Y42165D01*
X150115Y34797D01*
X148402Y34797D01*
G37*
%LPD*%
%LPC*%
G36*
X199202Y60197D02*
X199202Y60197D01*
X193547Y65852D01*
X193547Y67565D01*
X200915Y67565D01*
X200915Y60197D01*
X199202Y60197D01*
G37*
%LPD*%
%LPC*%
G36*
X199202Y34797D02*
X199202Y34797D01*
X193547Y40452D01*
X193547Y42165D01*
X200915Y42165D01*
X200915Y34797D01*
X199202Y34797D01*
G37*
%LPD*%
%LPC*%
G36*
X173802Y60197D02*
X173802Y60197D01*
X168147Y65852D01*
X168147Y67565D01*
X175515Y67565D01*
X175515Y60197D01*
X173802Y60197D01*
G37*
%LPD*%
%LPC*%
G36*
X148402Y60197D02*
X148402Y60197D01*
X142747Y65852D01*
X142747Y67565D01*
X150115Y67565D01*
X150115Y60197D01*
X148402Y60197D01*
G37*
%LPD*%
%LPC*%
G36*
X40131Y383031D02*
X40131Y383031D01*
X40131Y390145D01*
X41888Y390145D01*
X47245Y384788D01*
X47245Y383031D01*
X40131Y383031D01*
G37*
%LPD*%
%LPC*%
G36*
X319531Y757681D02*
X319531Y757681D01*
X319531Y764795D01*
X321288Y764795D01*
X326645Y759438D01*
X326645Y757681D01*
X319531Y757681D01*
G37*
%LPD*%
%LPC*%
G36*
X52831Y230631D02*
X52831Y230631D01*
X52831Y237745D01*
X54588Y237745D01*
X59945Y232388D01*
X59945Y230631D01*
X52831Y230631D01*
G37*
%LPD*%
%LPC*%
G36*
X40131Y681481D02*
X40131Y681481D01*
X40131Y688595D01*
X41888Y688595D01*
X47245Y683238D01*
X47245Y681481D01*
X40131Y681481D01*
G37*
%LPD*%
%LPC*%
G36*
X332231Y732281D02*
X332231Y732281D01*
X332231Y739395D01*
X333988Y739395D01*
X339345Y734038D01*
X339345Y732281D01*
X332231Y732281D01*
G37*
%LPD*%
%LPC*%
G36*
X319531Y383031D02*
X319531Y383031D01*
X319531Y390145D01*
X321288Y390145D01*
X326645Y384788D01*
X326645Y383031D01*
X319531Y383031D01*
G37*
%LPD*%
%LPC*%
G36*
X16255Y757681D02*
X16255Y757681D01*
X16255Y759438D01*
X21612Y764795D01*
X23369Y764795D01*
X23369Y757681D01*
X16255Y757681D01*
G37*
%LPD*%
%LPC*%
G36*
X41655Y230631D02*
X41655Y230631D01*
X41655Y232388D01*
X47012Y237745D01*
X48769Y237745D01*
X48769Y230631D01*
X41655Y230631D01*
G37*
%LPD*%
%LPC*%
G36*
X28955Y383031D02*
X28955Y383031D01*
X28955Y384788D01*
X34312Y390145D01*
X36069Y390145D01*
X36069Y383031D01*
X28955Y383031D01*
G37*
%LPD*%
%LPC*%
G36*
X28955Y522731D02*
X28955Y522731D01*
X28955Y524488D01*
X34312Y529845D01*
X36069Y529845D01*
X36069Y522731D01*
X28955Y522731D01*
G37*
%LPD*%
%LPC*%
G36*
X28955Y681481D02*
X28955Y681481D01*
X28955Y683238D01*
X34312Y688595D01*
X36069Y688595D01*
X36069Y681481D01*
X28955Y681481D01*
G37*
%LPD*%
%LPC*%
G36*
X321055Y732281D02*
X321055Y732281D01*
X321055Y734038D01*
X326412Y739395D01*
X328169Y739395D01*
X328169Y732281D01*
X321055Y732281D01*
G37*
%LPD*%
%LPC*%
G36*
X40131Y371855D02*
X40131Y371855D01*
X40131Y378969D01*
X47245Y378969D01*
X47245Y377212D01*
X41888Y371855D01*
X40131Y371855D01*
G37*
%LPD*%
%LPC*%
G36*
X40131Y670305D02*
X40131Y670305D01*
X40131Y677419D01*
X47245Y677419D01*
X47245Y675662D01*
X41888Y670305D01*
X40131Y670305D01*
G37*
%LPD*%
%LPC*%
G36*
X332231Y721105D02*
X332231Y721105D01*
X332231Y728219D01*
X339345Y728219D01*
X339345Y726462D01*
X333988Y721105D01*
X332231Y721105D01*
G37*
%LPD*%
%LPC*%
G36*
X52831Y219455D02*
X52831Y219455D01*
X52831Y226569D01*
X59945Y226569D01*
X59945Y224812D01*
X54588Y219455D01*
X52831Y219455D01*
G37*
%LPD*%
%LPC*%
G36*
X319531Y746505D02*
X319531Y746505D01*
X319531Y753619D01*
X326645Y753619D01*
X326645Y751862D01*
X321288Y746505D01*
X319531Y746505D01*
G37*
%LPD*%
%LPC*%
G36*
X319531Y371855D02*
X319531Y371855D01*
X319531Y378969D01*
X326645Y378969D01*
X326645Y377212D01*
X321288Y371855D01*
X319531Y371855D01*
G37*
%LPD*%
%LPC*%
G36*
X34312Y670305D02*
X34312Y670305D01*
X28955Y675662D01*
X28955Y677419D01*
X36069Y677419D01*
X36069Y670305D01*
X34312Y670305D01*
G37*
%LPD*%
%LPC*%
G36*
X47012Y219455D02*
X47012Y219455D01*
X41655Y224812D01*
X41655Y226569D01*
X48769Y226569D01*
X48769Y219455D01*
X47012Y219455D01*
G37*
%LPD*%
%LPC*%
G36*
X34312Y371855D02*
X34312Y371855D01*
X28955Y377212D01*
X28955Y378969D01*
X36069Y378969D01*
X36069Y371855D01*
X34312Y371855D01*
G37*
%LPD*%
%LPC*%
G36*
X34312Y511555D02*
X34312Y511555D01*
X28955Y516912D01*
X28955Y518669D01*
X36069Y518669D01*
X36069Y511555D01*
X34312Y511555D01*
G37*
%LPD*%
%LPC*%
G36*
X326412Y721105D02*
X326412Y721105D01*
X321055Y726462D01*
X321055Y728219D01*
X328169Y728219D01*
X328169Y721105D01*
X326412Y721105D01*
G37*
%LPD*%
%LPC*%
G36*
X21612Y746505D02*
X21612Y746505D01*
X16255Y751862D01*
X16255Y753619D01*
X23369Y753619D01*
X23369Y746505D01*
X21612Y746505D01*
G37*
%LPD*%
D10*
X221940Y679450D02*
X209860Y679450D01*
X209860Y704850D02*
X221940Y704850D01*
X221940Y730250D02*
X209860Y730250D01*
X209860Y755650D02*
X221940Y755650D01*
X145740Y755650D02*
X133660Y755650D01*
X133660Y730250D02*
X145740Y730250D01*
X145740Y704850D02*
X133660Y704850D01*
X133660Y679450D02*
X145740Y679450D01*
D11*
X101600Y228600D03*
X50800Y228600D03*
D12*
X266700Y381000D03*
X317500Y381000D03*
D11*
X88900Y381000D03*
X38100Y381000D03*
D12*
X254000Y355600D03*
X330200Y355600D03*
X25400Y355600D03*
X101600Y355600D03*
X254000Y730250D03*
X330200Y730250D03*
X254000Y704850D03*
X330200Y704850D03*
X266700Y654050D03*
X317500Y654050D03*
D11*
X330200Y679450D03*
X254000Y679450D03*
D12*
X25400Y704850D03*
X101600Y704850D03*
X50800Y787400D03*
X101600Y787400D03*
D11*
X101600Y730250D03*
X25400Y730250D03*
X101600Y755650D03*
X25400Y755650D03*
D13*
X209296Y444500D02*
X222504Y444500D01*
X222504Y469900D02*
X209296Y469900D01*
X209296Y596900D02*
X222504Y596900D01*
X146304Y596900D02*
X133096Y596900D01*
X209296Y495300D02*
X222504Y495300D01*
X222504Y520700D02*
X209296Y520700D01*
X209296Y571500D02*
X222504Y571500D01*
X222504Y546100D02*
X209296Y546100D01*
X146304Y571500D02*
X133096Y571500D01*
X133096Y546100D02*
X146304Y546100D01*
X146304Y520700D02*
X133096Y520700D01*
X133096Y495300D02*
X146304Y495300D01*
X146304Y469900D02*
X133096Y469900D01*
X133096Y444500D02*
X146304Y444500D01*
D12*
X254000Y469900D03*
X330200Y469900D03*
X266700Y444500D03*
X317500Y444500D03*
D11*
X330200Y546100D03*
X254000Y546100D03*
D12*
X254000Y571500D03*
X330200Y571500D03*
X266700Y622300D03*
X317500Y622300D03*
X254000Y596900D03*
X330200Y596900D03*
D11*
X330200Y330200D03*
X254000Y330200D03*
D14*
X330200Y412750D03*
X228600Y412750D03*
D11*
X101600Y571500D03*
X25400Y571500D03*
X88900Y546100D03*
X38100Y546100D03*
D12*
X38100Y469900D03*
X88900Y469900D03*
X25400Y444500D03*
X101600Y444500D03*
D11*
X101600Y596900D03*
X25400Y596900D03*
D12*
X25400Y622300D03*
X101600Y622300D03*
X25400Y330200D03*
X101600Y330200D03*
D14*
X25400Y412750D03*
X127000Y412750D03*
D12*
X266700Y755650D03*
X317500Y755650D03*
D11*
X88900Y520700D03*
X38100Y520700D03*
X88900Y679450D03*
X38100Y679450D03*
D12*
X266700Y520700D03*
X317500Y520700D03*
D15*
X165100Y876300D03*
X190500Y876300D03*
X165100Y850900D03*
X190500Y850900D03*
X165100Y825500D03*
X190500Y825500D03*
X165100Y800100D03*
X190500Y800100D03*
D13*
X209296Y228600D02*
X222504Y228600D01*
X222504Y254000D02*
X209296Y254000D01*
X209296Y279400D02*
X222504Y279400D01*
X222504Y304800D02*
X209296Y304800D01*
X209296Y330200D02*
X222504Y330200D01*
X222504Y355600D02*
X209296Y355600D01*
X209296Y381000D02*
X222504Y381000D01*
X146304Y381000D02*
X133096Y381000D01*
X133096Y355600D02*
X146304Y355600D01*
X146304Y330200D02*
X133096Y330200D01*
X133096Y304800D02*
X146304Y304800D01*
X146304Y279400D02*
X133096Y279400D01*
X133096Y254000D02*
X146304Y254000D01*
X146304Y228600D02*
X133096Y228600D01*
D16*
X228600Y69850D03*
X228600Y44450D03*
X203200Y69850D03*
X203200Y44450D03*
X177800Y69850D03*
X177800Y44450D03*
X152400Y69850D03*
X152400Y44450D03*
X127000Y69850D03*
X127000Y44450D03*
D17*
X317500Y69850D03*
D18*
X317500Y44450D03*
D19*
X38100Y44450D03*
D18*
X38100Y69850D03*
D20*
X203200Y755650D02*
X215900Y755650D01*
X203200Y755650D02*
X190500Y742950D01*
X190500Y546100D01*
X190500Y381000D01*
X190500Y215900D01*
X228600Y177800D01*
X215900Y755650D02*
X266700Y755650D01*
D21*
X190500Y546100D03*
D22*
X215900Y381000D02*
X266700Y381000D01*
D20*
X215900Y381000D02*
X190500Y381000D01*
X228600Y69850D02*
X228600Y44450D01*
X228600Y69850D02*
X228600Y177800D01*
X228600Y69850D02*
X317500Y69850D01*
X165100Y215900D02*
X127000Y177800D01*
X139700Y679450D02*
X165100Y679450D01*
X165100Y228600D02*
X165100Y215900D01*
X165100Y228600D02*
X165100Y495300D01*
X165100Y584200D01*
X165100Y622300D01*
X165100Y679450D01*
X165100Y742950D02*
X222250Y800100D01*
X165100Y742950D02*
X165100Y679450D01*
X190500Y876300D02*
X209550Y876300D01*
X222250Y863600D01*
X222250Y800100D01*
D21*
X165100Y622300D03*
X165100Y584200D03*
X165100Y495300D03*
D22*
X139700Y228600D02*
X101600Y228600D01*
X139700Y228600D02*
X165100Y228600D01*
D20*
X127000Y177800D02*
X127000Y69850D01*
X127000Y44450D01*
X127000Y69850D02*
X38100Y69850D01*
D22*
X292100Y654050D02*
X304800Y666750D01*
X292100Y654050D02*
X292100Y355600D01*
X304800Y666750D02*
X304800Y825500D01*
D21*
X304800Y825500D03*
X292100Y355600D03*
D22*
X63500Y374650D02*
X44450Y355600D01*
X25400Y355600D01*
X63500Y374650D02*
X63500Y850900D01*
D21*
X63500Y850900D03*
D22*
X215900Y730250D02*
X254000Y730250D01*
X279400Y273050D02*
X260350Y254000D01*
X254000Y730250D02*
X241300Y730250D01*
X279400Y406400D02*
X279400Y273050D01*
X279400Y406400D02*
X241300Y444500D01*
X241300Y730250D01*
X260350Y254000D02*
X215900Y254000D01*
X101600Y330200D02*
X88900Y342900D01*
X88900Y361950D01*
X101600Y374650D01*
X101600Y412750D01*
D21*
X101600Y412750D03*
D22*
X330200Y679450D02*
X330200Y704850D01*
X292100Y704850D02*
X292100Y800100D01*
D21*
X292100Y800100D03*
X292100Y704850D03*
D22*
X114300Y266700D02*
X127000Y254000D01*
X114300Y266700D02*
X114300Y755650D01*
X101600Y755650D01*
X114300Y755650D02*
X139700Y755650D01*
X139700Y254000D02*
X127000Y254000D01*
X88900Y774700D02*
X101600Y787400D01*
X88900Y774700D02*
X88900Y742950D01*
X101600Y730250D01*
X25400Y730250D02*
X25400Y704850D01*
X25400Y730250D02*
X38100Y742950D01*
X38100Y825500D01*
D21*
X38100Y825500D03*
D22*
X50800Y787400D02*
X50800Y704850D01*
D21*
X50800Y704850D03*
D22*
X304800Y609600D02*
X304800Y571500D01*
X304800Y609600D02*
X317500Y622300D01*
X317500Y330200D02*
X330200Y330200D01*
X317500Y330200D02*
X304800Y342900D01*
X304800Y571500D02*
X330200Y571500D01*
X304800Y571500D02*
X304800Y342900D01*
D21*
X304800Y609600D03*
D22*
X266700Y469900D02*
X266700Y444500D01*
X266700Y469900D02*
X254000Y469900D01*
X266700Y469900D02*
X279400Y482600D01*
X279400Y850900D01*
D21*
X279400Y850900D03*
D22*
X330200Y469900D02*
X330200Y457200D01*
X317500Y444500D01*
X330200Y469900D02*
X330200Y546100D01*
X254000Y571500D02*
X254000Y596900D01*
X254000Y571500D02*
X254000Y546100D01*
X254000Y596900D02*
X266700Y609600D01*
X266700Y622300D01*
X88900Y558800D02*
X88900Y546100D01*
X88900Y558800D02*
X101600Y571500D01*
X76200Y596900D01*
X88900Y876300D02*
X165100Y876300D01*
X88900Y876300D02*
X76200Y863600D01*
X76200Y596900D01*
X25400Y596900D02*
X25400Y622300D01*
X25400Y596900D02*
X50800Y571500D01*
X50800Y482600D01*
X38100Y469900D01*
X88900Y469900D02*
X88900Y457200D01*
X101600Y444500D01*
X76200Y368300D02*
X38100Y330200D01*
X25400Y330200D01*
X76200Y419100D02*
X101600Y444500D01*
X76200Y419100D02*
X76200Y368300D01*
X215900Y304800D02*
X215900Y279400D01*
X139700Y279400D02*
X139700Y304800D01*
X215900Y355600D02*
X254000Y355600D01*
M02*
