G04 EAGLE Gerber RS-274X export*
G75*
%MOMM*%
%FSLAX34Y34*%
%LPD*%
%INBoard Outline*%
%IPPOS*%
%AMOC8*
5,1,8,0,0,1.08239X$1,22.5*%
G01*
%ADD10C,0.000000*%
%ADD11C,0.254000*%


D10*
X0Y0D02*
X355600Y0D01*
X355600Y990600D01*
X0Y990500D01*
X0Y0D01*
X161798Y165100D02*
X161803Y165493D01*
X161817Y165885D01*
X161841Y166277D01*
X161875Y166668D01*
X161918Y167059D01*
X161971Y167448D01*
X162034Y167836D01*
X162105Y168222D01*
X162187Y168606D01*
X162278Y168988D01*
X162378Y169368D01*
X162487Y169745D01*
X162606Y170120D01*
X162733Y170491D01*
X162870Y170859D01*
X163016Y171224D01*
X163171Y171585D01*
X163334Y171942D01*
X163507Y172295D01*
X163687Y172643D01*
X163877Y172987D01*
X164075Y173327D01*
X164281Y173661D01*
X164495Y173990D01*
X164717Y174314D01*
X164947Y174632D01*
X165185Y174945D01*
X165430Y175252D01*
X165683Y175552D01*
X165943Y175846D01*
X166211Y176134D01*
X166485Y176415D01*
X166766Y176689D01*
X167054Y176957D01*
X167348Y177217D01*
X167648Y177470D01*
X167955Y177715D01*
X168268Y177953D01*
X168586Y178183D01*
X168910Y178405D01*
X169239Y178619D01*
X169573Y178825D01*
X169913Y179023D01*
X170257Y179213D01*
X170605Y179393D01*
X170958Y179566D01*
X171315Y179729D01*
X171676Y179884D01*
X172041Y180030D01*
X172409Y180167D01*
X172780Y180294D01*
X173155Y180413D01*
X173532Y180522D01*
X173912Y180622D01*
X174294Y180713D01*
X174678Y180795D01*
X175064Y180866D01*
X175452Y180929D01*
X175841Y180982D01*
X176232Y181025D01*
X176623Y181059D01*
X177015Y181083D01*
X177407Y181097D01*
X177800Y181102D01*
X178193Y181097D01*
X178585Y181083D01*
X178977Y181059D01*
X179368Y181025D01*
X179759Y180982D01*
X180148Y180929D01*
X180536Y180866D01*
X180922Y180795D01*
X181306Y180713D01*
X181688Y180622D01*
X182068Y180522D01*
X182445Y180413D01*
X182820Y180294D01*
X183191Y180167D01*
X183559Y180030D01*
X183924Y179884D01*
X184285Y179729D01*
X184642Y179566D01*
X184995Y179393D01*
X185343Y179213D01*
X185687Y179023D01*
X186027Y178825D01*
X186361Y178619D01*
X186690Y178405D01*
X187014Y178183D01*
X187332Y177953D01*
X187645Y177715D01*
X187952Y177470D01*
X188252Y177217D01*
X188546Y176957D01*
X188834Y176689D01*
X189115Y176415D01*
X189389Y176134D01*
X189657Y175846D01*
X189917Y175552D01*
X190170Y175252D01*
X190415Y174945D01*
X190653Y174632D01*
X190883Y174314D01*
X191105Y173990D01*
X191319Y173661D01*
X191525Y173327D01*
X191723Y172987D01*
X191913Y172643D01*
X192093Y172295D01*
X192266Y171942D01*
X192429Y171585D01*
X192584Y171224D01*
X192730Y170859D01*
X192867Y170491D01*
X192994Y170120D01*
X193113Y169745D01*
X193222Y169368D01*
X193322Y168988D01*
X193413Y168606D01*
X193495Y168222D01*
X193566Y167836D01*
X193629Y167448D01*
X193682Y167059D01*
X193725Y166668D01*
X193759Y166277D01*
X193783Y165885D01*
X193797Y165493D01*
X193802Y165100D01*
X193797Y164707D01*
X193783Y164315D01*
X193759Y163923D01*
X193725Y163532D01*
X193682Y163141D01*
X193629Y162752D01*
X193566Y162364D01*
X193495Y161978D01*
X193413Y161594D01*
X193322Y161212D01*
X193222Y160832D01*
X193113Y160455D01*
X192994Y160080D01*
X192867Y159709D01*
X192730Y159341D01*
X192584Y158976D01*
X192429Y158615D01*
X192266Y158258D01*
X192093Y157905D01*
X191913Y157557D01*
X191723Y157213D01*
X191525Y156873D01*
X191319Y156539D01*
X191105Y156210D01*
X190883Y155886D01*
X190653Y155568D01*
X190415Y155255D01*
X190170Y154948D01*
X189917Y154648D01*
X189657Y154354D01*
X189389Y154066D01*
X189115Y153785D01*
X188834Y153511D01*
X188546Y153243D01*
X188252Y152983D01*
X187952Y152730D01*
X187645Y152485D01*
X187332Y152247D01*
X187014Y152017D01*
X186690Y151795D01*
X186361Y151581D01*
X186027Y151375D01*
X185687Y151177D01*
X185343Y150987D01*
X184995Y150807D01*
X184642Y150634D01*
X184285Y150471D01*
X183924Y150316D01*
X183559Y150170D01*
X183191Y150033D01*
X182820Y149906D01*
X182445Y149787D01*
X182068Y149678D01*
X181688Y149578D01*
X181306Y149487D01*
X180922Y149405D01*
X180536Y149334D01*
X180148Y149271D01*
X179759Y149218D01*
X179368Y149175D01*
X178977Y149141D01*
X178585Y149117D01*
X178193Y149103D01*
X177800Y149098D01*
X177407Y149103D01*
X177015Y149117D01*
X176623Y149141D01*
X176232Y149175D01*
X175841Y149218D01*
X175452Y149271D01*
X175064Y149334D01*
X174678Y149405D01*
X174294Y149487D01*
X173912Y149578D01*
X173532Y149678D01*
X173155Y149787D01*
X172780Y149906D01*
X172409Y150033D01*
X172041Y150170D01*
X171676Y150316D01*
X171315Y150471D01*
X170958Y150634D01*
X170605Y150807D01*
X170257Y150987D01*
X169913Y151177D01*
X169573Y151375D01*
X169239Y151581D01*
X168910Y151795D01*
X168586Y152017D01*
X168268Y152247D01*
X167955Y152485D01*
X167648Y152730D01*
X167348Y152983D01*
X167054Y153243D01*
X166766Y153511D01*
X166485Y153785D01*
X166211Y154066D01*
X165943Y154354D01*
X165683Y154648D01*
X165430Y154948D01*
X165185Y155255D01*
X164947Y155568D01*
X164717Y155886D01*
X164495Y156210D01*
X164281Y156539D01*
X164075Y156873D01*
X163877Y157213D01*
X163687Y157557D01*
X163507Y157905D01*
X163334Y158258D01*
X163171Y158615D01*
X163016Y158976D01*
X162870Y159341D01*
X162733Y159709D01*
X162606Y160080D01*
X162487Y160455D01*
X162378Y160832D01*
X162278Y161212D01*
X162187Y161594D01*
X162105Y161978D01*
X162034Y162364D01*
X161971Y162752D01*
X161918Y163141D01*
X161875Y163532D01*
X161841Y163923D01*
X161817Y164315D01*
X161803Y164707D01*
X161798Y165100D01*
X161798Y939800D02*
X161803Y940193D01*
X161817Y940585D01*
X161841Y940977D01*
X161875Y941368D01*
X161918Y941759D01*
X161971Y942148D01*
X162034Y942536D01*
X162105Y942922D01*
X162187Y943306D01*
X162278Y943688D01*
X162378Y944068D01*
X162487Y944445D01*
X162606Y944820D01*
X162733Y945191D01*
X162870Y945559D01*
X163016Y945924D01*
X163171Y946285D01*
X163334Y946642D01*
X163507Y946995D01*
X163687Y947343D01*
X163877Y947687D01*
X164075Y948027D01*
X164281Y948361D01*
X164495Y948690D01*
X164717Y949014D01*
X164947Y949332D01*
X165185Y949645D01*
X165430Y949952D01*
X165683Y950252D01*
X165943Y950546D01*
X166211Y950834D01*
X166485Y951115D01*
X166766Y951389D01*
X167054Y951657D01*
X167348Y951917D01*
X167648Y952170D01*
X167955Y952415D01*
X168268Y952653D01*
X168586Y952883D01*
X168910Y953105D01*
X169239Y953319D01*
X169573Y953525D01*
X169913Y953723D01*
X170257Y953913D01*
X170605Y954093D01*
X170958Y954266D01*
X171315Y954429D01*
X171676Y954584D01*
X172041Y954730D01*
X172409Y954867D01*
X172780Y954994D01*
X173155Y955113D01*
X173532Y955222D01*
X173912Y955322D01*
X174294Y955413D01*
X174678Y955495D01*
X175064Y955566D01*
X175452Y955629D01*
X175841Y955682D01*
X176232Y955725D01*
X176623Y955759D01*
X177015Y955783D01*
X177407Y955797D01*
X177800Y955802D01*
X178193Y955797D01*
X178585Y955783D01*
X178977Y955759D01*
X179368Y955725D01*
X179759Y955682D01*
X180148Y955629D01*
X180536Y955566D01*
X180922Y955495D01*
X181306Y955413D01*
X181688Y955322D01*
X182068Y955222D01*
X182445Y955113D01*
X182820Y954994D01*
X183191Y954867D01*
X183559Y954730D01*
X183924Y954584D01*
X184285Y954429D01*
X184642Y954266D01*
X184995Y954093D01*
X185343Y953913D01*
X185687Y953723D01*
X186027Y953525D01*
X186361Y953319D01*
X186690Y953105D01*
X187014Y952883D01*
X187332Y952653D01*
X187645Y952415D01*
X187952Y952170D01*
X188252Y951917D01*
X188546Y951657D01*
X188834Y951389D01*
X189115Y951115D01*
X189389Y950834D01*
X189657Y950546D01*
X189917Y950252D01*
X190170Y949952D01*
X190415Y949645D01*
X190653Y949332D01*
X190883Y949014D01*
X191105Y948690D01*
X191319Y948361D01*
X191525Y948027D01*
X191723Y947687D01*
X191913Y947343D01*
X192093Y946995D01*
X192266Y946642D01*
X192429Y946285D01*
X192584Y945924D01*
X192730Y945559D01*
X192867Y945191D01*
X192994Y944820D01*
X193113Y944445D01*
X193222Y944068D01*
X193322Y943688D01*
X193413Y943306D01*
X193495Y942922D01*
X193566Y942536D01*
X193629Y942148D01*
X193682Y941759D01*
X193725Y941368D01*
X193759Y940977D01*
X193783Y940585D01*
X193797Y940193D01*
X193802Y939800D01*
X193797Y939407D01*
X193783Y939015D01*
X193759Y938623D01*
X193725Y938232D01*
X193682Y937841D01*
X193629Y937452D01*
X193566Y937064D01*
X193495Y936678D01*
X193413Y936294D01*
X193322Y935912D01*
X193222Y935532D01*
X193113Y935155D01*
X192994Y934780D01*
X192867Y934409D01*
X192730Y934041D01*
X192584Y933676D01*
X192429Y933315D01*
X192266Y932958D01*
X192093Y932605D01*
X191913Y932257D01*
X191723Y931913D01*
X191525Y931573D01*
X191319Y931239D01*
X191105Y930910D01*
X190883Y930586D01*
X190653Y930268D01*
X190415Y929955D01*
X190170Y929648D01*
X189917Y929348D01*
X189657Y929054D01*
X189389Y928766D01*
X189115Y928485D01*
X188834Y928211D01*
X188546Y927943D01*
X188252Y927683D01*
X187952Y927430D01*
X187645Y927185D01*
X187332Y926947D01*
X187014Y926717D01*
X186690Y926495D01*
X186361Y926281D01*
X186027Y926075D01*
X185687Y925877D01*
X185343Y925687D01*
X184995Y925507D01*
X184642Y925334D01*
X184285Y925171D01*
X183924Y925016D01*
X183559Y924870D01*
X183191Y924733D01*
X182820Y924606D01*
X182445Y924487D01*
X182068Y924378D01*
X181688Y924278D01*
X181306Y924187D01*
X180922Y924105D01*
X180536Y924034D01*
X180148Y923971D01*
X179759Y923918D01*
X179368Y923875D01*
X178977Y923841D01*
X178585Y923817D01*
X178193Y923803D01*
X177800Y923798D01*
X177407Y923803D01*
X177015Y923817D01*
X176623Y923841D01*
X176232Y923875D01*
X175841Y923918D01*
X175452Y923971D01*
X175064Y924034D01*
X174678Y924105D01*
X174294Y924187D01*
X173912Y924278D01*
X173532Y924378D01*
X173155Y924487D01*
X172780Y924606D01*
X172409Y924733D01*
X172041Y924870D01*
X171676Y925016D01*
X171315Y925171D01*
X170958Y925334D01*
X170605Y925507D01*
X170257Y925687D01*
X169913Y925877D01*
X169573Y926075D01*
X169239Y926281D01*
X168910Y926495D01*
X168586Y926717D01*
X168268Y926947D01*
X167955Y927185D01*
X167648Y927430D01*
X167348Y927683D01*
X167054Y927943D01*
X166766Y928211D01*
X166485Y928485D01*
X166211Y928766D01*
X165943Y929054D01*
X165683Y929348D01*
X165430Y929648D01*
X165185Y929955D01*
X164947Y930268D01*
X164717Y930586D01*
X164495Y930910D01*
X164281Y931239D01*
X164075Y931573D01*
X163877Y931913D01*
X163687Y932257D01*
X163507Y932605D01*
X163334Y932958D01*
X163171Y933315D01*
X163016Y933676D01*
X162870Y934041D01*
X162733Y934409D01*
X162606Y934780D01*
X162487Y935155D01*
X162378Y935532D01*
X162278Y935912D01*
X162187Y936294D01*
X162105Y936678D01*
X162034Y937064D01*
X161971Y937452D01*
X161918Y937841D01*
X161875Y938232D01*
X161841Y938623D01*
X161817Y939015D01*
X161803Y939407D01*
X161798Y939800D01*
D11*
X0Y0D02*
X355600Y0D01*
X355600Y990600D01*
X0Y990500D01*
X0Y0D01*
X193802Y164576D02*
X193733Y163531D01*
X193597Y162492D01*
X193392Y161464D01*
X193121Y160452D01*
X192784Y159460D01*
X192383Y158492D01*
X191920Y157553D01*
X191396Y156645D01*
X190814Y155774D01*
X190176Y154943D01*
X189486Y154155D01*
X188745Y153414D01*
X187957Y152724D01*
X187126Y152086D01*
X186255Y151504D01*
X185347Y150980D01*
X184408Y150517D01*
X183440Y150116D01*
X182448Y149779D01*
X181436Y149508D01*
X180408Y149303D01*
X179369Y149167D01*
X178324Y149098D01*
X177276Y149098D01*
X176231Y149167D01*
X175192Y149303D01*
X174164Y149508D01*
X173152Y149779D01*
X172160Y150116D01*
X171192Y150517D01*
X170253Y150980D01*
X169345Y151504D01*
X168474Y152086D01*
X167643Y152724D01*
X166855Y153414D01*
X166114Y154155D01*
X165424Y154943D01*
X164786Y155774D01*
X164204Y156645D01*
X163680Y157553D01*
X163217Y158492D01*
X162816Y159460D01*
X162479Y160452D01*
X162208Y161464D01*
X162003Y162492D01*
X161867Y163531D01*
X161798Y164576D01*
X161798Y165624D01*
X161867Y166669D01*
X162003Y167708D01*
X162208Y168736D01*
X162479Y169748D01*
X162816Y170740D01*
X163217Y171708D01*
X163680Y172647D01*
X164204Y173555D01*
X164786Y174426D01*
X165424Y175257D01*
X166114Y176045D01*
X166855Y176786D01*
X167643Y177476D01*
X168474Y178114D01*
X169345Y178696D01*
X170253Y179220D01*
X171192Y179683D01*
X172160Y180084D01*
X173152Y180421D01*
X174164Y180692D01*
X175192Y180897D01*
X176231Y181033D01*
X177276Y181102D01*
X178324Y181102D01*
X179369Y181033D01*
X180408Y180897D01*
X181436Y180692D01*
X182448Y180421D01*
X183440Y180084D01*
X184408Y179683D01*
X185347Y179220D01*
X186255Y178696D01*
X187126Y178114D01*
X187957Y177476D01*
X188745Y176786D01*
X189486Y176045D01*
X190176Y175257D01*
X190814Y174426D01*
X191396Y173555D01*
X191920Y172647D01*
X192383Y171708D01*
X192784Y170740D01*
X193121Y169748D01*
X193392Y168736D01*
X193597Y167708D01*
X193733Y166669D01*
X193802Y165624D01*
X193802Y164576D01*
X193802Y939276D02*
X193733Y938231D01*
X193597Y937192D01*
X193392Y936164D01*
X193121Y935152D01*
X192784Y934160D01*
X192383Y933192D01*
X191920Y932253D01*
X191396Y931345D01*
X190814Y930474D01*
X190176Y929643D01*
X189486Y928855D01*
X188745Y928114D01*
X187957Y927424D01*
X187126Y926786D01*
X186255Y926204D01*
X185347Y925680D01*
X184408Y925217D01*
X183440Y924816D01*
X182448Y924479D01*
X181436Y924208D01*
X180408Y924003D01*
X179369Y923867D01*
X178324Y923798D01*
X177276Y923798D01*
X176231Y923867D01*
X175192Y924003D01*
X174164Y924208D01*
X173152Y924479D01*
X172160Y924816D01*
X171192Y925217D01*
X170253Y925680D01*
X169345Y926204D01*
X168474Y926786D01*
X167643Y927424D01*
X166855Y928114D01*
X166114Y928855D01*
X165424Y929643D01*
X164786Y930474D01*
X164204Y931345D01*
X163680Y932253D01*
X163217Y933192D01*
X162816Y934160D01*
X162479Y935152D01*
X162208Y936164D01*
X162003Y937192D01*
X161867Y938231D01*
X161798Y939276D01*
X161798Y940324D01*
X161867Y941369D01*
X162003Y942408D01*
X162208Y943436D01*
X162479Y944448D01*
X162816Y945440D01*
X163217Y946408D01*
X163680Y947347D01*
X164204Y948255D01*
X164786Y949126D01*
X165424Y949957D01*
X166114Y950745D01*
X166855Y951486D01*
X167643Y952176D01*
X168474Y952814D01*
X169345Y953396D01*
X170253Y953920D01*
X171192Y954383D01*
X172160Y954784D01*
X173152Y955121D01*
X174164Y955392D01*
X175192Y955597D01*
X176231Y955733D01*
X177276Y955802D01*
X178324Y955802D01*
X179369Y955733D01*
X180408Y955597D01*
X181436Y955392D01*
X182448Y955121D01*
X183440Y954784D01*
X184408Y954383D01*
X185347Y953920D01*
X186255Y953396D01*
X187126Y952814D01*
X187957Y952176D01*
X188745Y951486D01*
X189486Y950745D01*
X190176Y949957D01*
X190814Y949126D01*
X191396Y948255D01*
X191920Y947347D01*
X192383Y946408D01*
X192784Y945440D01*
X193121Y944448D01*
X193392Y943436D01*
X193597Y942408D01*
X193733Y941369D01*
X193802Y940324D01*
X193802Y939276D01*
M02*
