G04 EAGLE Gerber RS-274X export*
G75*
%MOMM*%
%FSLAX34Y34*%
%LPD*%
%INBottom Copper*%
%IPPOS*%
%AMOC8*
5,1,8,0,0,1.08239X$1,22.5*%
G01*
%ADD10P,1.429621X8X22.500000*%
%ADD11C,1.650000*%
%ADD12R,1.676400X1.676400*%
%ADD13P,1.814519X8X292.500000*%
%ADD14R,3.116000X3.116000*%
%ADD15P,1.429621X8X202.500000*%
%ADD16P,1.649562X8X292.500000*%
%ADD17C,0.406400*%

G36*
X67171Y10162D02*
X67171Y10162D01*
X67180Y10161D01*
X67372Y10182D01*
X67562Y10201D01*
X67571Y10203D01*
X67580Y10204D01*
X67762Y10262D01*
X67947Y10319D01*
X67955Y10323D01*
X67964Y10326D01*
X68132Y10419D01*
X68301Y10511D01*
X68308Y10516D01*
X68316Y10521D01*
X68464Y10646D01*
X68611Y10768D01*
X68616Y10775D01*
X68623Y10781D01*
X68743Y10933D01*
X68863Y11082D01*
X68867Y11090D01*
X68873Y11097D01*
X68960Y11270D01*
X69049Y11439D01*
X69051Y11448D01*
X69055Y11456D01*
X69107Y11641D01*
X69160Y11826D01*
X69161Y11835D01*
X69163Y11844D01*
X69177Y12036D01*
X69193Y12228D01*
X69192Y12236D01*
X69192Y12245D01*
X69169Y12435D01*
X69146Y12627D01*
X69143Y12636D01*
X69142Y12645D01*
X69081Y12826D01*
X69021Y13010D01*
X69017Y13018D01*
X69014Y13026D01*
X68918Y13194D01*
X68823Y13361D01*
X68817Y13368D01*
X68813Y13375D01*
X68598Y13628D01*
X67913Y14313D01*
X66425Y17906D01*
X66425Y21794D01*
X67913Y25387D01*
X70663Y28137D01*
X74256Y29625D01*
X78144Y29625D01*
X81737Y28137D01*
X84487Y25387D01*
X85975Y21794D01*
X85975Y17906D01*
X84487Y14313D01*
X83802Y13628D01*
X83796Y13621D01*
X83789Y13616D01*
X83670Y13467D01*
X83547Y13317D01*
X83543Y13309D01*
X83537Y13302D01*
X83449Y13132D01*
X83358Y12961D01*
X83356Y12952D01*
X83351Y12945D01*
X83298Y12760D01*
X83243Y12575D01*
X83243Y12566D01*
X83240Y12558D01*
X83224Y12367D01*
X83207Y12174D01*
X83208Y12165D01*
X83207Y12156D01*
X83229Y11967D01*
X83250Y11774D01*
X83253Y11765D01*
X83254Y11757D01*
X83314Y11574D01*
X83372Y11390D01*
X83376Y11382D01*
X83379Y11374D01*
X83474Y11206D01*
X83567Y11038D01*
X83572Y11031D01*
X83577Y11023D01*
X83703Y10877D01*
X83827Y10731D01*
X83834Y10725D01*
X83840Y10718D01*
X83993Y10600D01*
X84143Y10481D01*
X84151Y10477D01*
X84158Y10472D01*
X84330Y10386D01*
X84502Y10299D01*
X84511Y10296D01*
X84519Y10292D01*
X84704Y10243D01*
X84890Y10191D01*
X84899Y10190D01*
X84907Y10188D01*
X85238Y10161D01*
X270362Y10161D01*
X270371Y10162D01*
X270380Y10161D01*
X270572Y10182D01*
X270762Y10201D01*
X270771Y10203D01*
X270780Y10204D01*
X270962Y10262D01*
X271147Y10319D01*
X271155Y10323D01*
X271164Y10326D01*
X271332Y10419D01*
X271501Y10511D01*
X271508Y10516D01*
X271516Y10521D01*
X271664Y10646D01*
X271811Y10768D01*
X271816Y10775D01*
X271823Y10781D01*
X271943Y10933D01*
X272063Y11082D01*
X272067Y11090D01*
X272073Y11097D01*
X272160Y11270D01*
X272249Y11439D01*
X272251Y11448D01*
X272255Y11456D01*
X272307Y11641D01*
X272360Y11826D01*
X272361Y11835D01*
X272363Y11844D01*
X272377Y12036D01*
X272393Y12228D01*
X272392Y12236D01*
X272392Y12245D01*
X272369Y12435D01*
X272346Y12627D01*
X272343Y12636D01*
X272342Y12645D01*
X272281Y12826D01*
X272221Y13010D01*
X272217Y13018D01*
X272214Y13026D01*
X272118Y13194D01*
X272023Y13361D01*
X272017Y13368D01*
X272013Y13375D01*
X271798Y13628D01*
X271113Y14313D01*
X269625Y17906D01*
X269625Y21794D01*
X271113Y25387D01*
X273863Y28137D01*
X277456Y29625D01*
X281344Y29625D01*
X284937Y28137D01*
X287687Y25387D01*
X289175Y21794D01*
X289175Y17906D01*
X287687Y14313D01*
X287002Y13628D01*
X286996Y13621D01*
X286989Y13616D01*
X286870Y13467D01*
X286747Y13317D01*
X286743Y13309D01*
X286737Y13302D01*
X286649Y13132D01*
X286558Y12961D01*
X286556Y12952D01*
X286551Y12945D01*
X286498Y12760D01*
X286443Y12575D01*
X286443Y12566D01*
X286440Y12558D01*
X286424Y12367D01*
X286407Y12174D01*
X286408Y12165D01*
X286407Y12156D01*
X286429Y11967D01*
X286450Y11774D01*
X286453Y11765D01*
X286454Y11757D01*
X286514Y11574D01*
X286572Y11390D01*
X286576Y11382D01*
X286579Y11374D01*
X286674Y11206D01*
X286767Y11038D01*
X286772Y11031D01*
X286777Y11023D01*
X286903Y10877D01*
X287027Y10731D01*
X287034Y10725D01*
X287040Y10718D01*
X287193Y10600D01*
X287343Y10481D01*
X287351Y10477D01*
X287358Y10472D01*
X287530Y10386D01*
X287702Y10299D01*
X287711Y10296D01*
X287719Y10292D01*
X287904Y10243D01*
X288090Y10191D01*
X288099Y10190D01*
X288107Y10188D01*
X288438Y10161D01*
X343408Y10161D01*
X343426Y10163D01*
X343444Y10161D01*
X343626Y10182D01*
X343809Y10201D01*
X343826Y10206D01*
X343843Y10208D01*
X344018Y10265D01*
X344194Y10319D01*
X344209Y10327D01*
X344226Y10333D01*
X344386Y10423D01*
X344548Y10511D01*
X344561Y10522D01*
X344577Y10531D01*
X344716Y10651D01*
X344857Y10768D01*
X344868Y10782D01*
X344882Y10794D01*
X344994Y10939D01*
X345109Y11082D01*
X345117Y11098D01*
X345128Y11112D01*
X345210Y11277D01*
X345295Y11439D01*
X345300Y11456D01*
X345308Y11472D01*
X345355Y11651D01*
X345406Y11826D01*
X345408Y11844D01*
X345412Y11861D01*
X345439Y12192D01*
X345439Y478119D01*
X345438Y478128D01*
X345439Y478137D01*
X345418Y478329D01*
X345399Y478520D01*
X345397Y478528D01*
X345396Y478537D01*
X345338Y478719D01*
X345281Y478905D01*
X345277Y478913D01*
X345274Y478921D01*
X345181Y479089D01*
X345089Y479259D01*
X345084Y479265D01*
X345079Y479273D01*
X344954Y479421D01*
X344832Y479568D01*
X344825Y479573D01*
X344819Y479580D01*
X344667Y479700D01*
X344518Y479820D01*
X344510Y479824D01*
X344503Y479830D01*
X344331Y479917D01*
X344161Y480006D01*
X344152Y480008D01*
X344144Y480012D01*
X343958Y480064D01*
X343774Y480117D01*
X343765Y480118D01*
X343756Y480120D01*
X343564Y480134D01*
X343372Y480150D01*
X343364Y480149D01*
X343355Y480150D01*
X343162Y480125D01*
X342973Y480103D01*
X342964Y480100D01*
X342955Y480099D01*
X342772Y480038D01*
X342590Y479978D01*
X342582Y479974D01*
X342574Y479971D01*
X342408Y479876D01*
X342239Y479780D01*
X342232Y479775D01*
X342225Y479770D01*
X341972Y479555D01*
X340612Y478195D01*
X308188Y478195D01*
X307295Y479088D01*
X307295Y511512D01*
X308188Y512405D01*
X340612Y512405D01*
X341972Y511045D01*
X341979Y511039D01*
X341984Y511032D01*
X342134Y510912D01*
X342283Y510790D01*
X342291Y510785D01*
X342298Y510780D01*
X342468Y510691D01*
X342639Y510601D01*
X342648Y510598D01*
X342655Y510594D01*
X342840Y510541D01*
X343025Y510486D01*
X343034Y510485D01*
X343042Y510483D01*
X343233Y510467D01*
X343426Y510450D01*
X343435Y510451D01*
X343444Y510450D01*
X343633Y510472D01*
X343826Y510493D01*
X343835Y510496D01*
X343843Y510497D01*
X344025Y510556D01*
X344210Y510615D01*
X344218Y510619D01*
X344226Y510622D01*
X344393Y510716D01*
X344562Y510809D01*
X344569Y510815D01*
X344577Y510820D01*
X344722Y510945D01*
X344869Y511070D01*
X344875Y511077D01*
X344882Y511083D01*
X344998Y511233D01*
X345119Y511386D01*
X345123Y511394D01*
X345128Y511401D01*
X345214Y511572D01*
X345301Y511745D01*
X345304Y511753D01*
X345308Y511761D01*
X345358Y511947D01*
X345409Y512133D01*
X345410Y512142D01*
X345412Y512150D01*
X345439Y512481D01*
X345439Y713069D01*
X345438Y713078D01*
X345439Y713087D01*
X345418Y713279D01*
X345399Y713470D01*
X345397Y713478D01*
X345396Y713487D01*
X345338Y713669D01*
X345281Y713855D01*
X345277Y713863D01*
X345274Y713871D01*
X345181Y714039D01*
X345089Y714209D01*
X345084Y714215D01*
X345079Y714223D01*
X344954Y714371D01*
X344832Y714518D01*
X344825Y714523D01*
X344819Y714530D01*
X344667Y714650D01*
X344518Y714770D01*
X344510Y714774D01*
X344503Y714780D01*
X344331Y714867D01*
X344161Y714956D01*
X344152Y714958D01*
X344144Y714962D01*
X343958Y715014D01*
X343774Y715067D01*
X343765Y715068D01*
X343756Y715070D01*
X343564Y715084D01*
X343372Y715100D01*
X343364Y715099D01*
X343355Y715100D01*
X343162Y715075D01*
X342973Y715053D01*
X342964Y715050D01*
X342955Y715049D01*
X342772Y714988D01*
X342590Y714928D01*
X342582Y714924D01*
X342574Y714921D01*
X342408Y714826D01*
X342239Y714730D01*
X342232Y714725D01*
X342225Y714720D01*
X341972Y714505D01*
X340612Y713145D01*
X308188Y713145D01*
X307295Y714038D01*
X307295Y746462D01*
X308188Y747355D01*
X340612Y747355D01*
X341972Y745995D01*
X341979Y745989D01*
X341984Y745982D01*
X342134Y745862D01*
X342283Y745740D01*
X342291Y745735D01*
X342298Y745730D01*
X342468Y745641D01*
X342639Y745551D01*
X342648Y745548D01*
X342655Y745544D01*
X342840Y745491D01*
X343025Y745436D01*
X343034Y745435D01*
X343042Y745433D01*
X343233Y745417D01*
X343426Y745400D01*
X343435Y745401D01*
X343444Y745400D01*
X343633Y745422D01*
X343826Y745443D01*
X343835Y745446D01*
X343843Y745447D01*
X344025Y745506D01*
X344210Y745565D01*
X344218Y745569D01*
X344226Y745572D01*
X344393Y745666D01*
X344562Y745759D01*
X344569Y745765D01*
X344577Y745770D01*
X344722Y745895D01*
X344869Y746020D01*
X344875Y746027D01*
X344882Y746033D01*
X344998Y746183D01*
X345119Y746336D01*
X345123Y746344D01*
X345128Y746351D01*
X345214Y746522D01*
X345301Y746695D01*
X345304Y746703D01*
X345308Y746711D01*
X345357Y746897D01*
X345409Y747083D01*
X345410Y747092D01*
X345412Y747100D01*
X345439Y747431D01*
X345439Y978405D01*
X345437Y978423D01*
X345439Y978441D01*
X345417Y978623D01*
X345399Y978805D01*
X345394Y978823D01*
X345392Y978841D01*
X345335Y979014D01*
X345281Y979190D01*
X345273Y979206D01*
X345267Y979223D01*
X345177Y979383D01*
X345089Y979544D01*
X345078Y979558D01*
X345069Y979574D01*
X344949Y979712D01*
X344832Y979853D01*
X344818Y979865D01*
X344806Y979879D01*
X344661Y979991D01*
X344518Y980106D01*
X344502Y980114D01*
X344488Y980125D01*
X344323Y980207D01*
X344161Y980291D01*
X344143Y980296D01*
X344127Y980304D01*
X343950Y980352D01*
X343774Y980403D01*
X343756Y980404D01*
X343738Y980409D01*
X343407Y980436D01*
X288456Y980420D01*
X288448Y980420D01*
X288439Y980420D01*
X288248Y980400D01*
X288056Y980380D01*
X288047Y980378D01*
X288039Y980377D01*
X287858Y980320D01*
X287671Y980262D01*
X287663Y980258D01*
X287655Y980255D01*
X287487Y980162D01*
X287317Y980070D01*
X287310Y980065D01*
X287303Y980061D01*
X287155Y979935D01*
X287008Y979812D01*
X287002Y979806D01*
X286996Y979800D01*
X286875Y979647D01*
X286756Y979499D01*
X286752Y979491D01*
X286746Y979484D01*
X286658Y979311D01*
X286570Y979141D01*
X286568Y979133D01*
X286564Y979125D01*
X286512Y978939D01*
X286459Y978754D01*
X286458Y978746D01*
X286456Y978737D01*
X286442Y978545D01*
X286426Y978353D01*
X286427Y978344D01*
X286426Y978336D01*
X286451Y978145D01*
X286473Y977953D01*
X286476Y977945D01*
X286477Y977936D01*
X286538Y977754D01*
X286598Y977570D01*
X286602Y977563D01*
X286605Y977555D01*
X286702Y977386D01*
X286796Y977220D01*
X286802Y977213D01*
X286806Y977206D01*
X287021Y976953D01*
X287687Y976287D01*
X289175Y972694D01*
X289175Y968806D01*
X287687Y965213D01*
X284937Y962463D01*
X281344Y960975D01*
X277456Y960975D01*
X273863Y962463D01*
X271113Y965213D01*
X269625Y968806D01*
X269625Y972694D01*
X271113Y976287D01*
X271774Y976948D01*
X271780Y976955D01*
X271787Y976961D01*
X271906Y977109D01*
X272029Y977259D01*
X272034Y977267D01*
X272039Y977275D01*
X272127Y977444D01*
X272218Y977615D01*
X272221Y977624D01*
X272225Y977632D01*
X272278Y977816D01*
X272333Y978001D01*
X272334Y978010D01*
X272336Y978019D01*
X272352Y978209D01*
X272369Y978402D01*
X272368Y978411D01*
X272369Y978420D01*
X272346Y978610D01*
X272326Y978802D01*
X272323Y978811D01*
X272322Y978820D01*
X272262Y979002D01*
X272204Y979186D01*
X272200Y979194D01*
X272197Y979203D01*
X272103Y979369D01*
X272009Y979538D01*
X272003Y979545D01*
X271999Y979553D01*
X271874Y979698D01*
X271749Y979845D01*
X271742Y979851D01*
X271736Y979858D01*
X271583Y979976D01*
X271433Y980095D01*
X271425Y980099D01*
X271417Y980105D01*
X271246Y980190D01*
X271074Y980277D01*
X271065Y980280D01*
X271057Y980284D01*
X270872Y980333D01*
X270686Y980385D01*
X270677Y980386D01*
X270668Y980388D01*
X270337Y980415D01*
X85314Y980363D01*
X85305Y980362D01*
X85296Y980363D01*
X85105Y980342D01*
X84913Y980323D01*
X84905Y980321D01*
X84896Y980320D01*
X84714Y980262D01*
X84528Y980205D01*
X84520Y980201D01*
X84512Y980198D01*
X84343Y980105D01*
X84174Y980013D01*
X84168Y980008D01*
X84160Y980003D01*
X84012Y979878D01*
X83865Y979755D01*
X83860Y979749D01*
X83853Y979743D01*
X83732Y979590D01*
X83613Y979441D01*
X83609Y979434D01*
X83603Y979427D01*
X83515Y979254D01*
X83427Y979084D01*
X83425Y979076D01*
X83421Y979068D01*
X83369Y978880D01*
X83316Y978697D01*
X83315Y978689D01*
X83313Y978680D01*
X83299Y978487D01*
X83283Y978296D01*
X83284Y978287D01*
X83284Y978279D01*
X83308Y978088D01*
X83330Y977896D01*
X83333Y977888D01*
X83334Y977879D01*
X83396Y977696D01*
X83455Y977513D01*
X83459Y977506D01*
X83462Y977498D01*
X83559Y977329D01*
X83653Y977163D01*
X83659Y977156D01*
X83663Y977149D01*
X83878Y976896D01*
X84487Y976287D01*
X85975Y972694D01*
X85975Y968806D01*
X84487Y965213D01*
X81737Y962463D01*
X78144Y960975D01*
X74256Y960975D01*
X70663Y962463D01*
X67913Y965213D01*
X66425Y968806D01*
X66425Y972694D01*
X67913Y976287D01*
X68517Y976891D01*
X68523Y976898D01*
X68530Y976904D01*
X68649Y977052D01*
X68772Y977202D01*
X68777Y977210D01*
X68782Y977217D01*
X68870Y977386D01*
X68961Y977558D01*
X68963Y977567D01*
X68968Y977575D01*
X69020Y977758D01*
X69076Y977944D01*
X69076Y977953D01*
X69079Y977962D01*
X69094Y978152D01*
X69112Y978345D01*
X69111Y978354D01*
X69112Y978363D01*
X69089Y978553D01*
X69069Y978745D01*
X69066Y978754D01*
X69065Y978763D01*
X69005Y978945D01*
X68947Y979129D01*
X68943Y979137D01*
X68940Y979146D01*
X68845Y979313D01*
X68752Y979481D01*
X68746Y979488D01*
X68742Y979496D01*
X68616Y979642D01*
X68492Y979788D01*
X68484Y979794D01*
X68478Y979801D01*
X68326Y979919D01*
X68176Y980038D01*
X68168Y980042D01*
X68160Y980048D01*
X67988Y980133D01*
X67817Y980220D01*
X67808Y980223D01*
X67800Y980227D01*
X67614Y980277D01*
X67429Y980328D01*
X67420Y980329D01*
X67411Y980331D01*
X67080Y980358D01*
X12191Y980343D01*
X12174Y980341D01*
X12156Y980342D01*
X11974Y980321D01*
X11791Y980303D01*
X11774Y980298D01*
X11757Y980295D01*
X11582Y980239D01*
X11406Y980184D01*
X11390Y980176D01*
X11374Y980171D01*
X11214Y980080D01*
X11052Y979993D01*
X11038Y979981D01*
X11023Y979973D01*
X10884Y979852D01*
X10743Y979735D01*
X10732Y979721D01*
X10718Y979710D01*
X10606Y979564D01*
X10491Y979421D01*
X10482Y979405D01*
X10472Y979391D01*
X10390Y979226D01*
X10305Y979064D01*
X10300Y979047D01*
X10292Y979031D01*
X10244Y978852D01*
X10194Y978677D01*
X10192Y978659D01*
X10188Y978642D01*
X10161Y978311D01*
X10161Y747431D01*
X10162Y747422D01*
X10161Y747413D01*
X10182Y747221D01*
X10201Y747030D01*
X10203Y747022D01*
X10204Y747013D01*
X10262Y746831D01*
X10319Y746645D01*
X10323Y746637D01*
X10326Y746629D01*
X10419Y746461D01*
X10511Y746291D01*
X10516Y746285D01*
X10521Y746277D01*
X10646Y746129D01*
X10768Y745982D01*
X10775Y745977D01*
X10781Y745970D01*
X10933Y745850D01*
X11082Y745730D01*
X11090Y745726D01*
X11097Y745720D01*
X11269Y745633D01*
X11439Y745544D01*
X11448Y745542D01*
X11456Y745538D01*
X11642Y745486D01*
X11826Y745433D01*
X11835Y745432D01*
X11844Y745430D01*
X12036Y745416D01*
X12228Y745400D01*
X12236Y745401D01*
X12245Y745400D01*
X12438Y745425D01*
X12627Y745447D01*
X12636Y745450D01*
X12645Y745451D01*
X12828Y745512D01*
X13010Y745572D01*
X13018Y745576D01*
X13026Y745579D01*
X13192Y745674D01*
X13361Y745770D01*
X13368Y745775D01*
X13375Y745780D01*
X13628Y745995D01*
X14988Y747355D01*
X47412Y747355D01*
X48305Y746462D01*
X48305Y714038D01*
X47412Y713145D01*
X14988Y713145D01*
X13628Y714505D01*
X13621Y714511D01*
X13616Y714518D01*
X13466Y714638D01*
X13317Y714760D01*
X13309Y714765D01*
X13302Y714770D01*
X13132Y714859D01*
X12961Y714949D01*
X12952Y714952D01*
X12945Y714956D01*
X12760Y715009D01*
X12575Y715064D01*
X12566Y715065D01*
X12558Y715067D01*
X12367Y715083D01*
X12174Y715100D01*
X12165Y715099D01*
X12156Y715100D01*
X11967Y715078D01*
X11774Y715057D01*
X11765Y715054D01*
X11757Y715053D01*
X11575Y714994D01*
X11390Y714935D01*
X11382Y714931D01*
X11374Y714928D01*
X11207Y714834D01*
X11038Y714741D01*
X11031Y714735D01*
X11023Y714730D01*
X10878Y714605D01*
X10731Y714480D01*
X10725Y714473D01*
X10718Y714467D01*
X10602Y714317D01*
X10481Y714164D01*
X10477Y714156D01*
X10472Y714149D01*
X10386Y713978D01*
X10299Y713805D01*
X10296Y713797D01*
X10292Y713789D01*
X10242Y713603D01*
X10191Y713417D01*
X10190Y713408D01*
X10188Y713400D01*
X10161Y713069D01*
X10161Y512481D01*
X10162Y512472D01*
X10161Y512463D01*
X10182Y512271D01*
X10201Y512080D01*
X10203Y512072D01*
X10204Y512063D01*
X10262Y511879D01*
X10319Y511695D01*
X10323Y511687D01*
X10326Y511679D01*
X10419Y511511D01*
X10511Y511341D01*
X10516Y511335D01*
X10521Y511327D01*
X10646Y511179D01*
X10768Y511032D01*
X10775Y511027D01*
X10781Y511020D01*
X10933Y510900D01*
X11082Y510780D01*
X11090Y510776D01*
X11097Y510770D01*
X11269Y510683D01*
X11439Y510594D01*
X11448Y510592D01*
X11456Y510588D01*
X11642Y510536D01*
X11826Y510483D01*
X11835Y510482D01*
X11844Y510480D01*
X12036Y510466D01*
X12228Y510450D01*
X12236Y510451D01*
X12245Y510450D01*
X12438Y510475D01*
X12627Y510497D01*
X12636Y510500D01*
X12645Y510501D01*
X12828Y510562D01*
X13010Y510622D01*
X13018Y510626D01*
X13026Y510629D01*
X13192Y510724D01*
X13361Y510820D01*
X13368Y510825D01*
X13375Y510830D01*
X13628Y511045D01*
X14988Y512405D01*
X47412Y512405D01*
X48305Y511512D01*
X48305Y479088D01*
X47412Y478195D01*
X14988Y478195D01*
X13628Y479555D01*
X13621Y479561D01*
X13616Y479568D01*
X13466Y479688D01*
X13317Y479810D01*
X13309Y479815D01*
X13302Y479820D01*
X13132Y479909D01*
X12961Y479999D01*
X12952Y480002D01*
X12945Y480006D01*
X12760Y480059D01*
X12575Y480114D01*
X12566Y480115D01*
X12558Y480117D01*
X12367Y480133D01*
X12174Y480150D01*
X12165Y480149D01*
X12156Y480150D01*
X11967Y480128D01*
X11774Y480107D01*
X11765Y480104D01*
X11757Y480103D01*
X11575Y480044D01*
X11390Y479985D01*
X11382Y479981D01*
X11374Y479978D01*
X11207Y479884D01*
X11038Y479791D01*
X11031Y479785D01*
X11023Y479780D01*
X10878Y479655D01*
X10731Y479530D01*
X10725Y479523D01*
X10718Y479517D01*
X10602Y479367D01*
X10481Y479214D01*
X10477Y479206D01*
X10472Y479199D01*
X10386Y479028D01*
X10299Y478855D01*
X10296Y478847D01*
X10292Y478839D01*
X10242Y478653D01*
X10191Y478467D01*
X10190Y478458D01*
X10188Y478450D01*
X10161Y478119D01*
X10161Y12192D01*
X10163Y12174D01*
X10161Y12156D01*
X10182Y11974D01*
X10201Y11791D01*
X10206Y11774D01*
X10208Y11757D01*
X10265Y11582D01*
X10319Y11406D01*
X10327Y11391D01*
X10333Y11374D01*
X10423Y11214D01*
X10511Y11052D01*
X10522Y11039D01*
X10531Y11023D01*
X10651Y10884D01*
X10768Y10743D01*
X10782Y10732D01*
X10794Y10718D01*
X10939Y10606D01*
X11082Y10491D01*
X11098Y10483D01*
X11112Y10472D01*
X11277Y10390D01*
X11439Y10305D01*
X11456Y10300D01*
X11472Y10292D01*
X11651Y10245D01*
X11826Y10194D01*
X11844Y10192D01*
X11861Y10188D01*
X12192Y10161D01*
X67162Y10161D01*
X67171Y10162D01*
G37*
%LPC*%
G36*
X277456Y300575D02*
X277456Y300575D01*
X273863Y302063D01*
X271113Y304813D01*
X269625Y308406D01*
X269625Y312294D01*
X271113Y315887D01*
X273863Y318637D01*
X274906Y319069D01*
X277456Y320125D01*
X281344Y320125D01*
X282071Y319824D01*
X282092Y319817D01*
X282112Y319807D01*
X282285Y319759D01*
X282456Y319707D01*
X282478Y319705D01*
X282500Y319699D01*
X282680Y319686D01*
X282857Y319669D01*
X282879Y319672D01*
X282901Y319670D01*
X283079Y319692D01*
X283257Y319711D01*
X283279Y319718D01*
X283301Y319720D01*
X283470Y319777D01*
X283642Y319831D01*
X283661Y319841D01*
X283682Y319849D01*
X283838Y319938D01*
X283995Y320024D01*
X284012Y320038D01*
X284031Y320050D01*
X284284Y320264D01*
X319698Y355678D01*
X319715Y355699D01*
X319736Y355717D01*
X319843Y355854D01*
X319953Y355990D01*
X319966Y356013D01*
X319982Y356035D01*
X320060Y356192D01*
X320142Y356346D01*
X320150Y356371D01*
X320162Y356395D01*
X320207Y356565D01*
X320257Y356731D01*
X320259Y356758D01*
X320266Y356784D01*
X320293Y357115D01*
X320293Y435835D01*
X320291Y435862D01*
X320293Y435889D01*
X320271Y436063D01*
X320253Y436236D01*
X320246Y436261D01*
X320242Y436288D01*
X320187Y436454D01*
X320135Y436621D01*
X320122Y436644D01*
X320114Y436670D01*
X320027Y436821D01*
X319943Y436975D01*
X319926Y436995D01*
X319913Y437019D01*
X319698Y437272D01*
X275843Y481127D01*
X275843Y600935D01*
X275841Y600962D01*
X275843Y600989D01*
X275821Y601163D01*
X275803Y601336D01*
X275796Y601361D01*
X275792Y601388D01*
X275737Y601554D01*
X275685Y601721D01*
X275672Y601744D01*
X275664Y601770D01*
X275577Y601921D01*
X275493Y602075D01*
X275476Y602095D01*
X275463Y602119D01*
X275248Y602372D01*
X231393Y646227D01*
X231393Y680923D01*
X256198Y705728D01*
X256215Y705749D01*
X256236Y705767D01*
X256343Y705904D01*
X256453Y706040D01*
X256466Y706063D01*
X256482Y706085D01*
X256560Y706242D01*
X256642Y706396D01*
X256650Y706421D01*
X256662Y706445D01*
X256707Y706615D01*
X256757Y706781D01*
X256759Y706808D01*
X256766Y706834D01*
X256793Y707165D01*
X256793Y804135D01*
X256791Y804162D01*
X256793Y804189D01*
X256771Y804363D01*
X256753Y804536D01*
X256746Y804561D01*
X256742Y804588D01*
X256687Y804754D01*
X256635Y804921D01*
X256622Y804944D01*
X256614Y804970D01*
X256527Y805121D01*
X256443Y805275D01*
X256426Y805295D01*
X256413Y805319D01*
X256198Y805572D01*
X215022Y846748D01*
X215001Y846765D01*
X214983Y846786D01*
X214846Y846893D01*
X214710Y847003D01*
X214687Y847016D01*
X214665Y847032D01*
X214508Y847110D01*
X214354Y847192D01*
X214329Y847200D01*
X214305Y847212D01*
X214135Y847257D01*
X213969Y847307D01*
X213942Y847309D01*
X213916Y847316D01*
X213585Y847343D01*
X200717Y847343D01*
X200691Y847341D01*
X200664Y847343D01*
X200490Y847321D01*
X200317Y847303D01*
X200291Y847296D01*
X200264Y847292D01*
X200099Y847237D01*
X199932Y847185D01*
X199908Y847172D01*
X199883Y847164D01*
X199731Y847077D01*
X199578Y846993D01*
X199557Y846976D01*
X199534Y846963D01*
X199281Y846748D01*
X194288Y841755D01*
X186712Y841755D01*
X181355Y847112D01*
X181355Y854688D01*
X186712Y860045D01*
X194288Y860045D01*
X199281Y855052D01*
X199302Y855035D01*
X199319Y855014D01*
X199457Y854907D01*
X199592Y854797D01*
X199616Y854784D01*
X199637Y854768D01*
X199794Y854690D01*
X199948Y854608D01*
X199974Y854600D01*
X199998Y854588D01*
X200167Y854543D01*
X200334Y854493D01*
X200361Y854491D01*
X200387Y854484D01*
X200717Y854457D01*
X217373Y854457D01*
X263907Y807923D01*
X263907Y703377D01*
X239102Y678572D01*
X239085Y678551D01*
X239064Y678533D01*
X238957Y678396D01*
X238847Y678260D01*
X238834Y678237D01*
X238818Y678215D01*
X238740Y678058D01*
X238658Y677904D01*
X238650Y677879D01*
X238638Y677855D01*
X238593Y677685D01*
X238543Y677519D01*
X238541Y677492D01*
X238534Y677466D01*
X238507Y677135D01*
X238507Y650015D01*
X238509Y649988D01*
X238507Y649961D01*
X238529Y649787D01*
X238547Y649614D01*
X238554Y649589D01*
X238558Y649562D01*
X238613Y649396D01*
X238665Y649229D01*
X238678Y649206D01*
X238686Y649180D01*
X238773Y649029D01*
X238857Y648875D01*
X238874Y648855D01*
X238887Y648831D01*
X239102Y648578D01*
X282957Y604723D01*
X282957Y484915D01*
X282959Y484888D01*
X282957Y484861D01*
X282979Y484687D01*
X282997Y484514D01*
X283004Y484489D01*
X283008Y484462D01*
X283063Y484296D01*
X283115Y484129D01*
X283128Y484106D01*
X283136Y484080D01*
X283223Y483929D01*
X283307Y483775D01*
X283324Y483755D01*
X283337Y483731D01*
X283552Y483478D01*
X327407Y439623D01*
X327407Y353327D01*
X324728Y350648D01*
X289314Y315234D01*
X289300Y315217D01*
X289283Y315202D01*
X289173Y315061D01*
X289059Y314923D01*
X289049Y314903D01*
X289035Y314885D01*
X288954Y314725D01*
X288871Y314567D01*
X288864Y314546D01*
X288854Y314526D01*
X288807Y314352D01*
X288756Y314181D01*
X288754Y314159D01*
X288748Y314137D01*
X288736Y313959D01*
X288719Y313780D01*
X288722Y313758D01*
X288720Y313736D01*
X288743Y313559D01*
X288763Y313380D01*
X288769Y313359D01*
X288772Y313336D01*
X288874Y313021D01*
X289175Y312294D01*
X289175Y308406D01*
X287687Y304813D01*
X284937Y302063D01*
X281344Y300575D01*
X277456Y300575D01*
G37*
%LPD*%
%LPC*%
G36*
X74256Y300575D02*
X74256Y300575D01*
X70663Y302063D01*
X67913Y304813D01*
X66425Y308406D01*
X66425Y312294D01*
X66960Y313586D01*
X66967Y313608D01*
X66977Y313628D01*
X67025Y313800D01*
X67077Y313972D01*
X67079Y313994D01*
X67085Y314015D01*
X67098Y314195D01*
X67115Y314372D01*
X67113Y314395D01*
X67114Y314417D01*
X67092Y314595D01*
X67073Y314773D01*
X67067Y314794D01*
X67064Y314816D01*
X67007Y314986D01*
X66954Y315157D01*
X66943Y315177D01*
X66936Y315198D01*
X66846Y315353D01*
X66760Y315511D01*
X66746Y315528D01*
X66735Y315547D01*
X66520Y315800D01*
X62622Y319698D01*
X62601Y319715D01*
X62583Y319736D01*
X62446Y319842D01*
X62310Y319953D01*
X62286Y319966D01*
X62265Y319982D01*
X62109Y320060D01*
X61954Y320142D01*
X61929Y320150D01*
X61905Y320162D01*
X61736Y320207D01*
X61569Y320257D01*
X61542Y320259D01*
X61516Y320266D01*
X61185Y320293D01*
X42977Y320293D01*
X28193Y335077D01*
X28193Y439623D01*
X59348Y470778D01*
X59365Y470799D01*
X59386Y470817D01*
X59493Y470954D01*
X59603Y471090D01*
X59616Y471113D01*
X59632Y471135D01*
X59710Y471292D01*
X59792Y471446D01*
X59800Y471471D01*
X59812Y471495D01*
X59857Y471665D01*
X59907Y471831D01*
X59909Y471858D01*
X59916Y471884D01*
X59943Y472215D01*
X59943Y524735D01*
X59941Y524762D01*
X59943Y524789D01*
X59921Y524963D01*
X59903Y525136D01*
X59896Y525161D01*
X59892Y525188D01*
X59837Y525354D01*
X59785Y525521D01*
X59772Y525544D01*
X59764Y525570D01*
X59677Y525721D01*
X59593Y525875D01*
X59576Y525895D01*
X59563Y525919D01*
X59348Y526172D01*
X28193Y557327D01*
X28193Y680923D01*
X30871Y683601D01*
X30872Y683602D01*
X52998Y705728D01*
X53015Y705749D01*
X53036Y705766D01*
X53143Y705904D01*
X53253Y706040D01*
X53266Y706063D01*
X53282Y706085D01*
X53360Y706242D01*
X53442Y706396D01*
X53450Y706421D01*
X53462Y706445D01*
X53507Y706615D01*
X53557Y706781D01*
X53559Y706808D01*
X53566Y706834D01*
X53593Y707165D01*
X53593Y750773D01*
X131877Y829057D01*
X154883Y829057D01*
X154909Y829059D01*
X154936Y829057D01*
X155110Y829079D01*
X155283Y829097D01*
X155309Y829104D01*
X155336Y829108D01*
X155501Y829163D01*
X155668Y829215D01*
X155692Y829228D01*
X155717Y829236D01*
X155869Y829323D01*
X156022Y829407D01*
X156043Y829424D01*
X156066Y829437D01*
X156319Y829652D01*
X161312Y834645D01*
X168888Y834645D01*
X174245Y829288D01*
X174245Y821712D01*
X168888Y816355D01*
X161312Y816355D01*
X156319Y821348D01*
X156298Y821365D01*
X156281Y821386D01*
X156143Y821493D01*
X156008Y821603D01*
X155984Y821616D01*
X155963Y821632D01*
X155806Y821710D01*
X155652Y821792D01*
X155626Y821800D01*
X155602Y821812D01*
X155433Y821857D01*
X155266Y821907D01*
X155239Y821909D01*
X155213Y821916D01*
X154883Y821943D01*
X135665Y821943D01*
X135638Y821941D01*
X135611Y821943D01*
X135437Y821921D01*
X135264Y821903D01*
X135239Y821896D01*
X135212Y821892D01*
X135046Y821837D01*
X134879Y821785D01*
X134856Y821772D01*
X134830Y821764D01*
X134679Y821677D01*
X134525Y821593D01*
X134505Y821576D01*
X134481Y821563D01*
X134228Y821348D01*
X61302Y748422D01*
X61285Y748401D01*
X61264Y748383D01*
X61157Y748246D01*
X61047Y748110D01*
X61034Y748087D01*
X61018Y748065D01*
X60940Y747908D01*
X60858Y747754D01*
X60850Y747729D01*
X60838Y747705D01*
X60793Y747535D01*
X60743Y747369D01*
X60741Y747342D01*
X60734Y747316D01*
X60707Y746985D01*
X60707Y703377D01*
X58029Y700699D01*
X58028Y700698D01*
X35902Y678572D01*
X35885Y678551D01*
X35864Y678534D01*
X35757Y678396D01*
X35647Y678260D01*
X35634Y678237D01*
X35618Y678215D01*
X35540Y678058D01*
X35458Y677904D01*
X35450Y677879D01*
X35438Y677855D01*
X35393Y677685D01*
X35343Y677519D01*
X35341Y677492D01*
X35334Y677466D01*
X35307Y677135D01*
X35307Y561115D01*
X35309Y561088D01*
X35307Y561061D01*
X35329Y560887D01*
X35347Y560714D01*
X35354Y560689D01*
X35358Y560662D01*
X35413Y560496D01*
X35465Y560329D01*
X35478Y560306D01*
X35486Y560280D01*
X35573Y560129D01*
X35657Y559975D01*
X35674Y559955D01*
X35687Y559931D01*
X35902Y559678D01*
X67057Y528523D01*
X67057Y468427D01*
X35902Y437272D01*
X35885Y437251D01*
X35864Y437233D01*
X35757Y437096D01*
X35647Y436960D01*
X35634Y436937D01*
X35618Y436915D01*
X35540Y436758D01*
X35458Y436604D01*
X35450Y436579D01*
X35438Y436555D01*
X35393Y436385D01*
X35343Y436219D01*
X35341Y436192D01*
X35334Y436166D01*
X35307Y435835D01*
X35307Y338865D01*
X35309Y338838D01*
X35307Y338811D01*
X35329Y338637D01*
X35347Y338464D01*
X35354Y338439D01*
X35358Y338412D01*
X35413Y338246D01*
X35465Y338079D01*
X35478Y338056D01*
X35486Y338030D01*
X35573Y337879D01*
X35657Y337725D01*
X35674Y337705D01*
X35687Y337681D01*
X35902Y337428D01*
X45328Y328002D01*
X45349Y327985D01*
X45367Y327964D01*
X45504Y327857D01*
X45640Y327747D01*
X45663Y327734D01*
X45685Y327718D01*
X45842Y327640D01*
X45996Y327558D01*
X46021Y327550D01*
X46045Y327538D01*
X46215Y327493D01*
X46381Y327443D01*
X46408Y327441D01*
X46434Y327434D01*
X46765Y327407D01*
X64973Y327407D01*
X67652Y324728D01*
X70864Y321516D01*
X70875Y321507D01*
X70881Y321500D01*
X70931Y321461D01*
X70994Y321410D01*
X71120Y321299D01*
X71149Y321282D01*
X71175Y321261D01*
X71324Y321182D01*
X71350Y321168D01*
X71848Y320606D01*
X71909Y320551D01*
X71962Y320488D01*
X72056Y320414D01*
X72144Y320333D01*
X72214Y320290D01*
X72279Y320240D01*
X72386Y320186D01*
X72488Y320124D01*
X72565Y320096D01*
X72639Y320059D01*
X72754Y320027D01*
X72866Y319987D01*
X72948Y319974D01*
X73027Y319952D01*
X73146Y319944D01*
X73264Y319927D01*
X73347Y319931D01*
X73429Y319925D01*
X73547Y319940D01*
X73667Y319946D01*
X73747Y319966D01*
X73828Y319977D01*
X73973Y320024D01*
X74057Y320045D01*
X74094Y320062D01*
X74144Y320079D01*
X74256Y320125D01*
X78144Y320125D01*
X81737Y318637D01*
X84487Y315887D01*
X85975Y312294D01*
X85975Y308406D01*
X84487Y304813D01*
X81737Y302063D01*
X78144Y300575D01*
X74256Y300575D01*
G37*
%LPD*%
%LPC*%
G36*
X174356Y913637D02*
X174356Y913637D01*
X167702Y915420D01*
X161736Y918865D01*
X156865Y923736D01*
X153420Y929702D01*
X151637Y936356D01*
X151637Y943244D01*
X153420Y949898D01*
X156865Y955864D01*
X161736Y960735D01*
X167702Y964180D01*
X174356Y965963D01*
X181244Y965963D01*
X187898Y964180D01*
X193864Y960735D01*
X198735Y955864D01*
X202180Y949898D01*
X203963Y943244D01*
X203963Y936356D01*
X202180Y929702D01*
X198735Y923736D01*
X193864Y918865D01*
X187898Y915420D01*
X181244Y913637D01*
X174356Y913637D01*
G37*
%LPD*%
%LPC*%
G36*
X174356Y138937D02*
X174356Y138937D01*
X167702Y140720D01*
X161736Y144165D01*
X156865Y149036D01*
X153420Y155002D01*
X151637Y161656D01*
X151637Y168544D01*
X153420Y175198D01*
X156865Y181164D01*
X161736Y186035D01*
X167702Y189480D01*
X174356Y191263D01*
X181244Y191263D01*
X187898Y189480D01*
X193864Y186035D01*
X198735Y181164D01*
X202180Y175198D01*
X203963Y168544D01*
X203963Y161656D01*
X202180Y155002D01*
X198735Y149036D01*
X193864Y144165D01*
X187898Y140720D01*
X181244Y138937D01*
X174356Y138937D01*
G37*
%LPD*%
%LPC*%
G36*
X104988Y478195D02*
X104988Y478195D01*
X104095Y479088D01*
X104095Y511512D01*
X104988Y512405D01*
X137412Y512405D01*
X138305Y511512D01*
X138305Y479088D01*
X137412Y478195D01*
X104988Y478195D01*
G37*
%LPD*%
%LPC*%
G36*
X218188Y713145D02*
X218188Y713145D01*
X217295Y714038D01*
X217295Y746462D01*
X218188Y747355D01*
X250612Y747355D01*
X251505Y746462D01*
X251505Y714038D01*
X250612Y713145D01*
X218188Y713145D01*
G37*
%LPD*%
%LPC*%
G36*
X104988Y713145D02*
X104988Y713145D01*
X104095Y714038D01*
X104095Y746462D01*
X104988Y747355D01*
X137412Y747355D01*
X138305Y746462D01*
X138305Y714038D01*
X137412Y713145D01*
X104988Y713145D01*
G37*
%LPD*%
%LPC*%
G36*
X218188Y478195D02*
X218188Y478195D01*
X217295Y479088D01*
X217295Y511512D01*
X218188Y512405D01*
X250612Y512405D01*
X251505Y511512D01*
X251505Y479088D01*
X250612Y478195D01*
X218188Y478195D01*
G37*
%LPD*%
%LPC*%
G36*
X245386Y415393D02*
X245386Y415393D01*
X244493Y416286D01*
X244493Y434314D01*
X245386Y435207D01*
X263414Y435207D01*
X264307Y434314D01*
X264307Y416286D01*
X263414Y415393D01*
X245386Y415393D01*
G37*
%LPD*%
%LPC*%
G36*
X42186Y415393D02*
X42186Y415393D01*
X41293Y416286D01*
X41293Y434314D01*
X42186Y435207D01*
X60214Y435207D01*
X61107Y434314D01*
X61107Y416286D01*
X60214Y415393D01*
X42186Y415393D01*
G37*
%LPD*%
%LPC*%
G36*
X275297Y415393D02*
X275297Y415393D01*
X269493Y421197D01*
X269493Y429403D01*
X275297Y435207D01*
X283503Y435207D01*
X289307Y429403D01*
X289307Y421197D01*
X283503Y415393D01*
X275297Y415393D01*
G37*
%LPD*%
%LPC*%
G36*
X97097Y650343D02*
X97097Y650343D01*
X91293Y656147D01*
X91293Y664353D01*
X97097Y670157D01*
X105303Y670157D01*
X111107Y664353D01*
X111107Y656147D01*
X105303Y650343D01*
X97097Y650343D01*
G37*
%LPD*%
%LPC*%
G36*
X275297Y650343D02*
X275297Y650343D01*
X269493Y656147D01*
X269493Y664353D01*
X275297Y670157D01*
X283503Y670157D01*
X289307Y664353D01*
X289307Y656147D01*
X283503Y650343D01*
X275297Y650343D01*
G37*
%LPD*%
%LPC*%
G36*
X300297Y650343D02*
X300297Y650343D01*
X294493Y656147D01*
X294493Y664353D01*
X300297Y670157D01*
X308503Y670157D01*
X314307Y664353D01*
X314307Y656147D01*
X308503Y650343D01*
X300297Y650343D01*
G37*
%LPD*%
%LPC*%
G36*
X72097Y415393D02*
X72097Y415393D01*
X66293Y421197D01*
X66293Y429403D01*
X72097Y435207D01*
X80303Y435207D01*
X86107Y429403D01*
X86107Y421197D01*
X80303Y415393D01*
X72097Y415393D01*
G37*
%LPD*%
%LPC*%
G36*
X72097Y650343D02*
X72097Y650343D01*
X66293Y656147D01*
X66293Y664353D01*
X72097Y670157D01*
X80303Y670157D01*
X86107Y664353D01*
X86107Y656147D01*
X80303Y650343D01*
X72097Y650343D01*
G37*
%LPD*%
%LPC*%
G36*
X74256Y95075D02*
X74256Y95075D01*
X70663Y96563D01*
X67913Y99313D01*
X66425Y102906D01*
X66425Y106794D01*
X67913Y110387D01*
X70663Y113137D01*
X74256Y114625D01*
X78144Y114625D01*
X81737Y113137D01*
X84487Y110387D01*
X85975Y106794D01*
X85975Y102906D01*
X84487Y99313D01*
X81737Y96563D01*
X78144Y95075D01*
X74256Y95075D01*
G37*
%LPD*%
%LPC*%
G36*
X277456Y95075D02*
X277456Y95075D01*
X273863Y96563D01*
X271113Y99313D01*
X269625Y102906D01*
X269625Y106794D01*
X271113Y110387D01*
X273863Y113137D01*
X277456Y114625D01*
X281344Y114625D01*
X284937Y113137D01*
X287687Y110387D01*
X289175Y106794D01*
X289175Y102906D01*
X287687Y99313D01*
X284937Y96563D01*
X281344Y95075D01*
X277456Y95075D01*
G37*
%LPD*%
%LPC*%
G36*
X74256Y215575D02*
X74256Y215575D01*
X70663Y217063D01*
X67913Y219813D01*
X66425Y223406D01*
X66425Y227294D01*
X67913Y230887D01*
X70663Y233637D01*
X70952Y233756D01*
X74256Y235125D01*
X78144Y235125D01*
X81737Y233637D01*
X84487Y230887D01*
X85975Y227294D01*
X85975Y223406D01*
X84487Y219813D01*
X81737Y217063D01*
X78144Y215575D01*
X74256Y215575D01*
G37*
%LPD*%
%LPC*%
G36*
X277456Y215575D02*
X277456Y215575D01*
X273863Y217063D01*
X271113Y219813D01*
X269625Y223406D01*
X269625Y227294D01*
X271113Y230887D01*
X273863Y233637D01*
X274152Y233756D01*
X277456Y235125D01*
X281344Y235125D01*
X284937Y233637D01*
X287687Y230887D01*
X289175Y227294D01*
X289175Y223406D01*
X287687Y219813D01*
X284937Y217063D01*
X281344Y215575D01*
X277456Y215575D01*
G37*
%LPD*%
%LPC*%
G36*
X74256Y875975D02*
X74256Y875975D01*
X70663Y877463D01*
X67913Y880213D01*
X66425Y883806D01*
X66425Y887694D01*
X67913Y891287D01*
X70663Y894037D01*
X74256Y895525D01*
X78144Y895525D01*
X81737Y894037D01*
X84487Y891287D01*
X85975Y887694D01*
X85975Y883806D01*
X84487Y880213D01*
X81737Y877463D01*
X81455Y877346D01*
X78144Y875975D01*
X74256Y875975D01*
G37*
%LPD*%
%LPC*%
G36*
X277456Y875975D02*
X277456Y875975D01*
X273863Y877463D01*
X271113Y880213D01*
X269625Y883806D01*
X269625Y887694D01*
X271113Y891287D01*
X273863Y894037D01*
X277456Y895525D01*
X281344Y895525D01*
X284937Y894037D01*
X287687Y891287D01*
X289175Y887694D01*
X289175Y883806D01*
X287687Y880213D01*
X284937Y877463D01*
X284655Y877346D01*
X281344Y875975D01*
X277456Y875975D01*
G37*
%LPD*%
%LPC*%
G36*
X186712Y867155D02*
X186712Y867155D01*
X181355Y872512D01*
X181355Y880088D01*
X186712Y885445D01*
X194288Y885445D01*
X199645Y880088D01*
X199645Y872512D01*
X194288Y867155D01*
X186712Y867155D01*
G37*
%LPD*%
%LPC*%
G36*
X161312Y841755D02*
X161312Y841755D01*
X155955Y847112D01*
X155955Y854688D01*
X161312Y860045D01*
X168888Y860045D01*
X174245Y854688D01*
X174245Y847112D01*
X168888Y841755D01*
X161312Y841755D01*
G37*
%LPD*%
%LPC*%
G36*
X161312Y790955D02*
X161312Y790955D01*
X155955Y796312D01*
X155955Y803888D01*
X161312Y809245D01*
X168888Y809245D01*
X174245Y803888D01*
X174245Y796312D01*
X168888Y790955D01*
X161312Y790955D01*
G37*
%LPD*%
%LPC*%
G36*
X161312Y867155D02*
X161312Y867155D01*
X155955Y872512D01*
X155955Y880088D01*
X161312Y885445D01*
X168888Y885445D01*
X174245Y880088D01*
X174245Y872512D01*
X168888Y867155D01*
X161312Y867155D01*
G37*
%LPD*%
%LPC*%
G36*
X186712Y816355D02*
X186712Y816355D01*
X181355Y821712D01*
X181355Y829288D01*
X186712Y834645D01*
X194288Y834645D01*
X199645Y829288D01*
X199645Y821712D01*
X194288Y816355D01*
X186712Y816355D01*
G37*
%LPD*%
%LPC*%
G36*
X149033Y347471D02*
X149033Y347471D01*
X144271Y352233D01*
X144271Y358967D01*
X149033Y363729D01*
X155767Y363729D01*
X160529Y358967D01*
X160529Y352233D01*
X155767Y347471D01*
X149033Y347471D01*
G37*
%LPD*%
%LPC*%
G36*
X123633Y347471D02*
X123633Y347471D01*
X118871Y352233D01*
X118871Y358967D01*
X123633Y363729D01*
X130367Y363729D01*
X135129Y358967D01*
X135129Y352233D01*
X130367Y347471D01*
X123633Y347471D01*
G37*
%LPD*%
%LPC*%
G36*
X47433Y347471D02*
X47433Y347471D01*
X42671Y352233D01*
X42671Y358967D01*
X47433Y363729D01*
X54167Y363729D01*
X58929Y358967D01*
X58929Y352233D01*
X54167Y347471D01*
X47433Y347471D01*
G37*
%LPD*%
%LPC*%
G36*
X212533Y372871D02*
X212533Y372871D01*
X207771Y377633D01*
X207771Y384367D01*
X212533Y389129D01*
X219267Y389129D01*
X224029Y384367D01*
X224029Y377633D01*
X219267Y372871D01*
X212533Y372871D01*
G37*
%LPD*%
%LPC*%
G36*
X149033Y372871D02*
X149033Y372871D01*
X144271Y377633D01*
X144271Y384367D01*
X149033Y389129D01*
X155767Y389129D01*
X160529Y384367D01*
X160529Y377633D01*
X155767Y372871D01*
X149033Y372871D01*
G37*
%LPD*%
%LPC*%
G36*
X288733Y372871D02*
X288733Y372871D01*
X283971Y377633D01*
X283971Y384367D01*
X288733Y389129D01*
X295467Y389129D01*
X300229Y384367D01*
X300229Y377633D01*
X295467Y372871D01*
X288733Y372871D01*
G37*
%LPD*%
%LPC*%
G36*
X72833Y372871D02*
X72833Y372871D01*
X68071Y377633D01*
X68071Y384367D01*
X72833Y389129D01*
X79567Y389129D01*
X84329Y384367D01*
X84329Y377633D01*
X79567Y372871D01*
X72833Y372871D01*
G37*
%LPD*%
%LPC*%
G36*
X225233Y347471D02*
X225233Y347471D01*
X220471Y352233D01*
X220471Y358967D01*
X225233Y363729D01*
X231967Y363729D01*
X236729Y358967D01*
X236729Y352233D01*
X231967Y347471D01*
X225233Y347471D01*
G37*
%LPD*%
%LPC*%
G36*
X91883Y601471D02*
X91883Y601471D01*
X87121Y606233D01*
X87121Y612967D01*
X91883Y617729D01*
X98617Y617729D01*
X103379Y612967D01*
X103379Y606233D01*
X98617Y601471D01*
X91883Y601471D01*
G37*
%LPD*%
%LPC*%
G36*
X301433Y601471D02*
X301433Y601471D01*
X296671Y606233D01*
X296671Y612967D01*
X301433Y617729D01*
X308167Y617729D01*
X312929Y612967D01*
X312929Y606233D01*
X308167Y601471D01*
X301433Y601471D01*
G37*
%LPD*%
%LPC*%
G36*
X225233Y601471D02*
X225233Y601471D01*
X220471Y606233D01*
X220471Y612967D01*
X225233Y617729D01*
X231967Y617729D01*
X236729Y612967D01*
X236729Y606233D01*
X231967Y601471D01*
X225233Y601471D01*
G37*
%LPD*%
%LPC*%
G36*
X168083Y601471D02*
X168083Y601471D01*
X163321Y606233D01*
X163321Y612967D01*
X168083Y617729D01*
X174817Y617729D01*
X179579Y612967D01*
X179579Y606233D01*
X174817Y601471D01*
X168083Y601471D01*
G37*
%LPD*%
%LPC*%
G36*
X53949Y662999D02*
X53949Y662999D01*
X53949Y671173D01*
X59917Y671173D01*
X60563Y671000D01*
X61142Y670665D01*
X61615Y670192D01*
X61950Y669613D01*
X62123Y668967D01*
X62123Y662999D01*
X53949Y662999D01*
G37*
%LPD*%
%LPC*%
G36*
X257149Y662999D02*
X257149Y662999D01*
X257149Y671173D01*
X263117Y671173D01*
X263763Y671000D01*
X264342Y670665D01*
X264815Y670192D01*
X265150Y669613D01*
X265323Y668967D01*
X265323Y662999D01*
X257149Y662999D01*
G37*
%LPD*%
%LPC*%
G36*
X40277Y662999D02*
X40277Y662999D01*
X40277Y668967D01*
X40450Y669613D01*
X40785Y670192D01*
X41258Y670665D01*
X41837Y671000D01*
X42483Y671173D01*
X48451Y671173D01*
X48451Y662999D01*
X40277Y662999D01*
G37*
%LPD*%
%LPC*%
G36*
X243477Y662999D02*
X243477Y662999D01*
X243477Y668967D01*
X243650Y669613D01*
X243985Y670192D01*
X244458Y670665D01*
X245037Y671000D01*
X245683Y671173D01*
X251651Y671173D01*
X251651Y662999D01*
X243477Y662999D01*
G37*
%LPD*%
%LPC*%
G36*
X53949Y649327D02*
X53949Y649327D01*
X53949Y657501D01*
X62123Y657501D01*
X62123Y651533D01*
X61950Y650887D01*
X61615Y650308D01*
X61142Y649835D01*
X60563Y649500D01*
X59917Y649327D01*
X53949Y649327D01*
G37*
%LPD*%
%LPC*%
G36*
X257149Y649327D02*
X257149Y649327D01*
X257149Y657501D01*
X265323Y657501D01*
X265323Y651533D01*
X265150Y650887D01*
X264815Y650308D01*
X264342Y649835D01*
X263763Y649500D01*
X263117Y649327D01*
X257149Y649327D01*
G37*
%LPD*%
%LPC*%
G36*
X42483Y649327D02*
X42483Y649327D01*
X41837Y649500D01*
X41258Y649835D01*
X40785Y650308D01*
X40450Y650887D01*
X40277Y651533D01*
X40277Y657501D01*
X48451Y657501D01*
X48451Y649327D01*
X42483Y649327D01*
G37*
%LPD*%
%LPC*%
G36*
X245683Y649327D02*
X245683Y649327D01*
X245037Y649500D01*
X244458Y649835D01*
X243985Y650308D01*
X243650Y650887D01*
X243477Y651533D01*
X243477Y657501D01*
X251651Y657501D01*
X251651Y649327D01*
X245683Y649327D01*
G37*
%LPD*%
%LPC*%
G36*
X103949Y428049D02*
X103949Y428049D01*
X103949Y436223D01*
X105724Y436223D01*
X112123Y429824D01*
X112123Y428049D01*
X103949Y428049D01*
G37*
%LPD*%
%LPC*%
G36*
X307149Y428049D02*
X307149Y428049D01*
X307149Y436223D01*
X308924Y436223D01*
X315323Y429824D01*
X315323Y428049D01*
X307149Y428049D01*
G37*
%LPD*%
%LPC*%
G36*
X293477Y428049D02*
X293477Y428049D01*
X293477Y429824D01*
X299876Y436223D01*
X301651Y436223D01*
X301651Y428049D01*
X293477Y428049D01*
G37*
%LPD*%
%LPC*%
G36*
X103949Y414377D02*
X103949Y414377D01*
X103949Y422551D01*
X112123Y422551D01*
X112123Y420776D01*
X105724Y414377D01*
X103949Y414377D01*
G37*
%LPD*%
%LPC*%
G36*
X90277Y428049D02*
X90277Y428049D01*
X90277Y429824D01*
X96676Y436223D01*
X98451Y436223D01*
X98451Y428049D01*
X90277Y428049D01*
G37*
%LPD*%
%LPC*%
G36*
X307149Y414377D02*
X307149Y414377D01*
X307149Y422551D01*
X315323Y422551D01*
X315323Y420776D01*
X308924Y414377D01*
X307149Y414377D01*
G37*
%LPD*%
%LPC*%
G36*
X299876Y414377D02*
X299876Y414377D01*
X293477Y420776D01*
X293477Y422551D01*
X301651Y422551D01*
X301651Y414377D01*
X299876Y414377D01*
G37*
%LPD*%
%LPC*%
G36*
X96676Y414377D02*
X96676Y414377D01*
X90277Y420776D01*
X90277Y422551D01*
X98451Y422551D01*
X98451Y414377D01*
X96676Y414377D01*
G37*
%LPD*%
%LPC*%
G36*
X78949Y198099D02*
X78949Y198099D01*
X78949Y205803D01*
X80342Y205350D01*
X81856Y204579D01*
X83230Y203581D01*
X84431Y202380D01*
X85429Y201006D01*
X86200Y199492D01*
X86653Y198099D01*
X78949Y198099D01*
G37*
%LPD*%
%LPC*%
G36*
X78949Y137599D02*
X78949Y137599D01*
X78949Y145303D01*
X80342Y144850D01*
X81856Y144079D01*
X83230Y143081D01*
X84431Y141880D01*
X85429Y140506D01*
X86200Y138992D01*
X86653Y137599D01*
X78949Y137599D01*
G37*
%LPD*%
%LPC*%
G36*
X78949Y858499D02*
X78949Y858499D01*
X78949Y866203D01*
X80342Y865750D01*
X81856Y864979D01*
X83230Y863981D01*
X84431Y862780D01*
X85429Y861406D01*
X86200Y859892D01*
X86653Y858499D01*
X78949Y858499D01*
G37*
%LPD*%
%LPC*%
G36*
X282149Y198099D02*
X282149Y198099D01*
X282149Y205803D01*
X283542Y205350D01*
X285056Y204579D01*
X286430Y203581D01*
X287631Y202380D01*
X288629Y201006D01*
X289400Y199492D01*
X289853Y198099D01*
X282149Y198099D01*
G37*
%LPD*%
%LPC*%
G36*
X282149Y858499D02*
X282149Y858499D01*
X282149Y866203D01*
X283542Y865750D01*
X285056Y864979D01*
X286430Y863981D01*
X287631Y862780D01*
X288629Y861406D01*
X289400Y859892D01*
X289853Y858499D01*
X282149Y858499D01*
G37*
%LPD*%
%LPC*%
G36*
X282149Y137599D02*
X282149Y137599D01*
X282149Y145303D01*
X283542Y144850D01*
X285056Y144079D01*
X286430Y143081D01*
X287631Y141880D01*
X288629Y140506D01*
X289400Y138992D01*
X289853Y137599D01*
X282149Y137599D01*
G37*
%LPD*%
%LPC*%
G36*
X282149Y853001D02*
X282149Y853001D01*
X289853Y853001D01*
X289400Y851608D01*
X288629Y850094D01*
X287631Y848720D01*
X286430Y847519D01*
X285056Y846521D01*
X283542Y845750D01*
X282149Y845297D01*
X282149Y853001D01*
G37*
%LPD*%
%LPC*%
G36*
X78949Y853001D02*
X78949Y853001D01*
X86653Y853001D01*
X86200Y851608D01*
X85429Y850094D01*
X84431Y848720D01*
X83230Y847519D01*
X81856Y846521D01*
X80342Y845750D01*
X78949Y845297D01*
X78949Y853001D01*
G37*
%LPD*%
%LPC*%
G36*
X282149Y132101D02*
X282149Y132101D01*
X289853Y132101D01*
X289400Y130708D01*
X288629Y129194D01*
X287631Y127820D01*
X286430Y126619D01*
X285056Y125621D01*
X283542Y124850D01*
X282149Y124397D01*
X282149Y132101D01*
G37*
%LPD*%
%LPC*%
G36*
X65747Y198099D02*
X65747Y198099D01*
X66200Y199492D01*
X66971Y201006D01*
X67969Y202380D01*
X69170Y203581D01*
X70544Y204579D01*
X72058Y205350D01*
X73451Y205803D01*
X73451Y198099D01*
X65747Y198099D01*
G37*
%LPD*%
%LPC*%
G36*
X65747Y137599D02*
X65747Y137599D01*
X66200Y138992D01*
X66971Y140506D01*
X67969Y141880D01*
X69170Y143081D01*
X70544Y144079D01*
X72058Y144850D01*
X73451Y145303D01*
X73451Y137599D01*
X65747Y137599D01*
G37*
%LPD*%
%LPC*%
G36*
X268947Y198099D02*
X268947Y198099D01*
X269400Y199492D01*
X270171Y201006D01*
X271169Y202380D01*
X272370Y203581D01*
X273744Y204579D01*
X275258Y205350D01*
X276651Y205803D01*
X276651Y198099D01*
X268947Y198099D01*
G37*
%LPD*%
%LPC*%
G36*
X78949Y132101D02*
X78949Y132101D01*
X86653Y132101D01*
X86200Y130708D01*
X85429Y129194D01*
X84431Y127820D01*
X83230Y126619D01*
X81856Y125621D01*
X80342Y124850D01*
X78949Y124397D01*
X78949Y132101D01*
G37*
%LPD*%
%LPC*%
G36*
X78949Y192601D02*
X78949Y192601D01*
X86653Y192601D01*
X86200Y191208D01*
X85429Y189694D01*
X84431Y188320D01*
X83230Y187119D01*
X81856Y186121D01*
X80342Y185350D01*
X78949Y184897D01*
X78949Y192601D01*
G37*
%LPD*%
%LPC*%
G36*
X268947Y137599D02*
X268947Y137599D01*
X269400Y138992D01*
X270171Y140506D01*
X271169Y141880D01*
X272370Y143081D01*
X273744Y144079D01*
X275258Y144850D01*
X276651Y145303D01*
X276651Y137599D01*
X268947Y137599D01*
G37*
%LPD*%
%LPC*%
G36*
X282149Y192601D02*
X282149Y192601D01*
X289853Y192601D01*
X289400Y191208D01*
X288629Y189694D01*
X287631Y188320D01*
X286430Y187119D01*
X285056Y186121D01*
X283542Y185350D01*
X282149Y184897D01*
X282149Y192601D01*
G37*
%LPD*%
%LPC*%
G36*
X65747Y858499D02*
X65747Y858499D01*
X66200Y859892D01*
X66971Y861406D01*
X67969Y862780D01*
X69170Y863981D01*
X70544Y864979D01*
X72058Y865750D01*
X73451Y866203D01*
X73451Y858499D01*
X65747Y858499D01*
G37*
%LPD*%
%LPC*%
G36*
X268947Y858499D02*
X268947Y858499D01*
X269400Y859892D01*
X270171Y861406D01*
X271169Y862780D01*
X272370Y863981D01*
X273744Y864979D01*
X275258Y865750D01*
X276651Y866203D01*
X276651Y858499D01*
X268947Y858499D01*
G37*
%LPD*%
%LPC*%
G36*
X275258Y185350D02*
X275258Y185350D01*
X273744Y186121D01*
X272370Y187119D01*
X271169Y188320D01*
X270171Y189694D01*
X269400Y191208D01*
X268947Y192601D01*
X276651Y192601D01*
X276651Y184897D01*
X275258Y185350D01*
G37*
%LPD*%
%LPC*%
G36*
X72058Y185350D02*
X72058Y185350D01*
X70544Y186121D01*
X69170Y187119D01*
X67969Y188320D01*
X66971Y189694D01*
X66200Y191208D01*
X65747Y192601D01*
X73451Y192601D01*
X73451Y184897D01*
X72058Y185350D01*
G37*
%LPD*%
%LPC*%
G36*
X72058Y124850D02*
X72058Y124850D01*
X70544Y125621D01*
X69170Y126619D01*
X67969Y127820D01*
X66971Y129194D01*
X66200Y130708D01*
X65747Y132101D01*
X73451Y132101D01*
X73451Y124397D01*
X72058Y124850D01*
G37*
%LPD*%
%LPC*%
G36*
X72058Y845750D02*
X72058Y845750D01*
X70544Y846521D01*
X69170Y847519D01*
X67969Y848720D01*
X66971Y850094D01*
X66200Y851608D01*
X65747Y853001D01*
X73451Y853001D01*
X73451Y845297D01*
X72058Y845750D01*
G37*
%LPD*%
%LPC*%
G36*
X275258Y845750D02*
X275258Y845750D01*
X273744Y846521D01*
X272370Y847519D01*
X271169Y848720D01*
X270171Y850094D01*
X269400Y851608D01*
X268947Y853001D01*
X276651Y853001D01*
X276651Y845297D01*
X275258Y845750D01*
G37*
%LPD*%
%LPC*%
G36*
X275258Y124850D02*
X275258Y124850D01*
X273744Y125621D01*
X272370Y126619D01*
X271169Y127820D01*
X270171Y129194D01*
X269400Y130708D01*
X268947Y132101D01*
X276651Y132101D01*
X276651Y124397D01*
X275258Y124850D01*
G37*
%LPD*%
%LPC*%
G36*
X193039Y802639D02*
X193039Y802639D01*
X193039Y810261D01*
X194709Y810261D01*
X200661Y804309D01*
X200661Y802639D01*
X193039Y802639D01*
G37*
%LPD*%
%LPC*%
G36*
X180339Y802639D02*
X180339Y802639D01*
X180339Y804309D01*
X186291Y810261D01*
X187961Y810261D01*
X187961Y802639D01*
X180339Y802639D01*
G37*
%LPD*%
%LPC*%
G36*
X193039Y789939D02*
X193039Y789939D01*
X193039Y797561D01*
X200661Y797561D01*
X200661Y795891D01*
X194709Y789939D01*
X193039Y789939D01*
G37*
%LPD*%
%LPC*%
G36*
X186291Y789939D02*
X186291Y789939D01*
X180339Y795891D01*
X180339Y797561D01*
X187961Y797561D01*
X187961Y789939D01*
X186291Y789939D01*
G37*
%LPD*%
D10*
X76200Y381000D03*
X152400Y381000D03*
D11*
X76200Y970750D03*
X76200Y885750D03*
X76200Y855750D03*
X76200Y310350D03*
X76200Y225350D03*
X76200Y195350D03*
X76200Y19850D03*
X76200Y104850D03*
X76200Y134850D03*
D12*
X51200Y425300D03*
D13*
X76200Y425300D03*
X101200Y425300D03*
D14*
X121200Y495300D03*
X31200Y495300D03*
D15*
X127000Y355600D03*
X50800Y355600D03*
X292100Y381000D03*
X215900Y381000D03*
D11*
X279400Y970750D03*
X279400Y885750D03*
X279400Y855750D03*
X279400Y310350D03*
X279400Y225350D03*
X279400Y195350D03*
X279400Y19850D03*
X279400Y104850D03*
X279400Y134850D03*
D12*
X254400Y425300D03*
D13*
X279400Y425300D03*
X304400Y425300D03*
D14*
X324400Y495300D03*
X234400Y495300D03*
D10*
X152400Y355600D03*
X228600Y355600D03*
D12*
X51200Y660250D03*
D13*
X76200Y660250D03*
X101200Y660250D03*
D14*
X121200Y730250D03*
X31200Y730250D03*
D15*
X171450Y609600D03*
X95250Y609600D03*
D12*
X254400Y660250D03*
D13*
X279400Y660250D03*
X304400Y660250D03*
D14*
X324400Y730250D03*
X234400Y730250D03*
D10*
X228600Y609600D03*
X304800Y609600D03*
D16*
X165100Y876300D03*
X190500Y876300D03*
X165100Y850900D03*
X190500Y850900D03*
X165100Y825500D03*
X190500Y825500D03*
X165100Y800100D03*
X190500Y800100D03*
D17*
X76200Y425450D02*
X76200Y425300D01*
X69850Y317500D02*
X76200Y310350D01*
X31750Y679450D02*
X57150Y704850D01*
X57150Y749300D01*
X63500Y323850D02*
X69850Y317500D01*
X63500Y323850D02*
X44450Y323850D01*
X31750Y336550D01*
X31750Y438150D01*
X63500Y469900D01*
X63500Y527050D01*
X31750Y558800D01*
X31750Y679450D01*
X57150Y749300D02*
X133350Y825500D01*
X165100Y825500D01*
X279400Y425300D02*
X279400Y419100D01*
X260350Y704850D02*
X260350Y806450D01*
X260350Y704850D02*
X234950Y679450D01*
X234950Y647700D02*
X279400Y603250D01*
X323850Y354800D02*
X279400Y310350D01*
X215900Y850900D02*
X190500Y850900D01*
X215900Y850900D02*
X260350Y806450D01*
X234950Y679450D02*
X234950Y647700D01*
X279400Y603250D02*
X279400Y482600D01*
X323850Y438150D01*
X323850Y354800D01*
M02*
