M48
;GenerationSoftware,Autodesk,EAGLE,9.6.2*%
;CreationDate,2022-05-21T19:07:27Z*%
FMAT,2
ICI,OFF
METRIC,TZ,000.000
T5C0.813
T4C1.016
T3C1.100
T2C2.100
T1C3.200
%
G90
M71
T1
X17780Y16510
X17780Y93980
T2
X23440Y73025
X32440Y73025
X3120Y73025
X12120Y73025
X23440Y49530
X32440Y49530
X3120Y49530
X12120Y49530
T3
X7620Y1985
X7620Y10485
X7620Y13485
X5120Y42530
X7620Y42530
X10120Y42530
X7620Y19535
X7620Y22535
X30440Y66025
X27940Y66025
X25440Y66025
X7620Y97075
X27940Y97075
X27940Y88575
X27940Y85575
X27940Y31035
X27940Y22535
X27940Y19535
X27940Y1985
X27940Y10485
X27940Y13485
X25440Y42530
X27940Y42530
X30440Y42530
X7620Y31035
X7620Y85575
X7620Y88575
X10120Y66025
X5120Y66025
X7620Y66025
T4
X16510Y87630
X19050Y87630
X16510Y85090
X19050Y85090
X16510Y82550
X19050Y82550
X16510Y80010
X19050Y80010
T5
X22860Y35560
X15240Y35560
X21590Y38100
X17145Y60960
X9525Y60960
X29210Y38100
X5080Y35560
X12700Y35560
X15240Y38100
X7620Y38100
X22860Y60960
X30480Y60960
M30